<svg width="190" height="190" viewBox="0 0 190 190" fill="none" xmlns="http://www.w3.org/2000/svg">
<path d="M0 0H8.38235V8.38235H0V0Z" fill="#D7E1EA"/>
<path d="M36.3235 0H44.7059V8.38235H36.3235V0Z" fill="#D7E1EA"/>
<path d="M72.6471 0H81.0294V8.38235H72.6471V0Z" fill="#D7E1EA"/>
<path d="M108.971 0H117.353V8.38235H108.971V0Z" fill="#D7E1EA"/>
<path d="M145.294 0H153.676V8.38235H145.294V0Z" fill="#D7E1EA"/>
<path d="M181.618 0H190V8.38235H181.618V0Z" fill="#D7E1EA"/>
<path d="M0 36.3235H8.38235V44.7059H0V36.3235Z" fill="#D7E1EA"/>
<path d="M36.3235 36.3235H44.7059V44.7059H36.3235V36.3235Z" fill="#D7E1EA"/>
<path d="M72.6471 36.3235H81.0294V44.7059H72.6471V36.3235Z" fill="#D7E1EA"/>
<path d="M108.971 36.3235H117.353V44.7059H108.971V36.3235Z" fill="#D7E1EA"/>
<path d="M145.294 36.3235H153.676V44.7059H145.294V36.3235Z" fill="#D7E1EA"/>
<path d="M181.618 36.3235H190V44.7059H181.618V36.3235Z" fill="#D7E1EA"/>
<path d="M0 72.6471H8.38235V81.0294H0V72.6471Z" fill="#D7E1EA"/>
<path d="M36.3235 72.6471H44.7059V81.0294H36.3235V72.6471Z" fill="#D7E1EA"/>
<path d="M72.6471 72.6471H81.0294V81.0294H72.6471V72.6471Z" fill="#D7E1EA"/>
<path d="M108.971 72.6471H117.353V81.0294H108.971V72.6471Z" fill="#D7E1EA"/>
<path d="M145.294 72.6471H153.676V81.0294H145.294V72.6471Z" fill="#D7E1EA"/>
<path d="M181.618 72.6471H190V81.0294H181.618V72.6471Z" fill="#D7E1EA"/>
<path d="M0 108.971H8.38235V117.353H0V108.971Z" fill="#D7E1EA"/>
<path d="M36.3235 108.971H44.7059V117.353H36.3235V108.971Z" fill="#D7E1EA"/>
<path d="M72.6471 108.971H81.0294V117.353H72.6471V108.971Z" fill="#D7E1EA"/>
<path d="M108.971 108.971H117.353V117.353H108.971V108.971Z" fill="#D7E1EA"/>
<path d="M145.294 108.971H153.676V117.353H145.294V108.971Z" fill="#D7E1EA"/>
<path d="M181.618 108.971H190V117.353H181.618V108.971Z" fill="#D7E1EA"/>
<path d="M0 145.294H8.38235V153.676H0V145.294Z" fill="#D7E1EA"/>
<path d="M36.3235 145.294H44.7059V153.676H36.3235V145.294Z" fill="#D7E1EA"/>
<path d="M72.6471 145.294H81.0294V153.676H72.6471V145.294Z" fill="#D7E1EA"/>
<path d="M108.971 145.294H117.353V153.676H108.971V145.294Z" fill="#D7E1EA"/>
<path d="M145.294 145.294H153.676V153.676H145.294V145.294Z" fill="#D7E1EA"/>
<path d="M181.618 145.294H190V153.676H181.618V145.294Z" fill="#D7E1EA"/>
<path d="M0 181.618H8.38235V190H0V181.618Z" fill="#D7E1EA"/>
<path d="M36.3235 181.618H44.7059V190H36.3235V181.618Z" fill="#D7E1EA"/>
<path d="M72.6471 181.618H81.0294V190H72.6471V181.618Z" fill="#D7E1EA"/>
<path d="M108.971 181.618H117.353V190H108.971V181.618Z" fill="#D7E1EA"/>
<path d="M145.294 181.618H153.676V190H145.294V181.618Z" fill="#D7E1EA"/>
<path d="M181.618 181.618H190V190H181.618V181.618Z" fill="#D7E1EA"/>
</svg>
