<svg width="18" height="20" viewBox="0 0 18 20" fill="none" xmlns="http://www.w3.org/2000/svg">
<path d="M17.0052 8.11993C17.2852 8.39993 17.2852 8.83993 17.0052 9.11993L9.0452 17.0799C7.7252 18.3999 6.20521 19.1199 4.78521 19.1199C4.42521 19.1199 4.06521 19.0799 3.70521 18.9799C2.30521 18.5999 1.2252 17.5199 0.845196 16.0599C0.365196 14.2599 1.0052 12.2999 2.6252 10.6799L11.4852 1.81993C12.9252 0.379931 14.9252 0.839911 16.0852 1.99991C17.6652 3.57991 17.2252 5.43991 16.1652 6.49991L7.2252 15.4399C6.0452 16.6199 4.7052 16.5399 4.0252 15.8399C3.3452 15.1399 3.2652 13.8399 4.4452 12.6399L10.4852 6.59991C10.7652 6.31991 11.2052 6.31991 11.4852 6.59991C11.7652 6.87991 11.7652 7.31991 11.4852 7.59991L5.4452 13.6399C4.9252 14.1599 4.8452 14.6599 5.0252 14.8599C5.2252 15.0599 5.7252 14.9799 6.2452 14.4599L15.1852 5.51993C16.0852 4.61993 15.7052 3.59991 15.1052 2.99991C14.4252 2.31991 13.3252 1.9799 12.4852 2.8399L3.6252 11.6999C2.3652 12.9599 1.84521 14.4199 2.20521 15.7199C2.46521 16.6799 3.16521 17.3999 4.08521 17.6399C5.32521 17.9799 6.74522 17.4199 8.06522 16.0999L16.0252 8.1399C16.2852 7.8599 16.7252 7.85993 17.0052 8.11993Z" fill="#35425B"/>
</svg>
