<svg width="12" height="12" viewBox="0 0 12 12" fill="none" xmlns="http://www.w3.org/2000/svg">
<path d="M10.945 9.66003C11.305 10.02 11.305 10.58 10.945 10.94C10.765 11.12 10.545 11.2 10.305 11.2C10.065 11.2 9.84502 11.12 9.66502 10.94L6.00501 7.28004L2.345 10.94C2.165 11.12 1.94501 11.2 1.70501 11.2C1.46501 11.2 1.24502 11.12 1.06502 10.94C0.705023 10.58 0.705023 10.02 1.06502 9.66003L4.72501 6.00004L1.06502 2.34004C0.705023 1.98004 0.705023 1.42004 1.06502 1.06004C1.42502 0.700037 1.985 0.700037 2.345 1.06004L6.00501 4.72003L9.66502 1.06004C10.025 0.700037 10.585 0.700037 10.945 1.06004C11.305 1.42004 11.305 1.98004 10.945 2.34004L7.28499 6.00004L10.945 9.66003Z" fill="#101B29"/>
</svg>
