<svg width="12" height="12" viewBox="0 0 12 12" fill="none" xmlns="http://www.w3.org/2000/svg">
<path d="M10.945 9.66003C11.305 10.02 11.305 10.58 10.945 10.94C10.765 11.12 10.545 11.2 10.305 11.2C10.065 11.2 9.84505 11.12 9.66505 10.94L6.00504 7.28004L2.34503 10.94C2.16503 11.12 1.94504 11.2 1.70504 11.2C1.46504 11.2 1.24505 11.12 1.06505 10.94C0.705054 10.58 0.705054 10.02 1.06505 9.66003L4.72504 6.00004L1.06505 2.34004C0.705054 1.98004 0.705054 1.42004 1.06505 1.06004C1.42505 0.700037 1.98503 0.700037 2.34503 1.06004L6.00504 4.72003L9.66505 1.06004C10.0251 0.700037 10.585 0.700037 10.945 1.06004C11.305 1.42004 11.305 1.98004 10.945 2.34004L7.28502 6.00004L10.945 9.66003Z" fill="#35425B"/>
</svg>
