<svg width="200" height="40" viewBox="0 0 200 40" fill="none" xmlns="http://www.w3.org/2000/svg">
<path d="M107.256 4.62719C106.62 3.96598 105.863 3.44357 105.029 3.09085C104.195 2.73812 103.301 2.56225 102.4 2.57362C101.542 2.53679 100.686 2.68196 99.884 3.00023C99.082 3.31849 98.3513 3.80315 97.7365 4.42447C97.1218 5.0458 96.636 5.79069 96.3091 6.61346C95.9821 7.43623 95.8207 8.31954 95.835 9.20922C95.89 10.9625 96.6129 12.6219 97.8455 13.8245C99.0781 15.0271 100.72 15.6751 102.413 15.6266C104.015 15.6385 105.568 15.0506 106.785 13.9709V10.8264H104.642L103.602 8.32362H109.201V15.0234C108.345 16.0118 107.296 16.8009 106.123 17.3385C104.951 17.8761 103.682 18.15 102.4 18.1422C101.223 18.1873 100.05 17.9858 98.9494 17.55C97.8493 17.1142 96.8453 16.4529 95.9975 15.6057C95.1498 14.7585 94.4756 13.7429 94.0154 12.6195C93.5553 11.4961 93.3185 10.2882 93.3194 9.06779C93.3202 7.84743 93.5586 6.63978 94.0203 5.51709C94.482 4.39441 95.1575 3.37975 96.0065 2.53382C96.8554 1.68789 97.8603 1.02808 98.961 0.593856C100.062 0.159631 101.236 -0.040084 102.413 0.00665921C104.798 0.00791075 107.087 0.985924 108.78 2.72764L107.256 4.62719Z" fill="#35425B"/>
<path d="M70.3788 17.7572H67.9014V0.520004H70.3788V7.59199C71.0397 7.26514 71.765 7.10253 72.4971 7.1171C72.9334 7.1171 73.7564 7.21917 74.6685 7.33229C75.8019 7.47286 77.073 7.63049 77.9104 7.63049C78.6823 7.64033 79.4484 7.49203 80.1649 7.19411V0.520004H82.6423V17.7572H80.1649V9.7354C79.4484 10.0333 78.6823 10.1816 77.9104 10.1718C77.073 10.1718 75.802 10.0181 74.6685 9.88104C73.7564 9.77075 72.9334 9.67123 72.4971 9.67123C71.7659 9.65218 71.0405 9.8104 70.3788 10.1333V17.7572Z" fill="#35425B"/>
<path d="M81.8123 26.5234C81.1828 25.8482 80.4282 25.3116 79.5939 24.9455C78.7596 24.5794 77.8626 24.3914 76.9565 24.3928C76.0938 24.352 75.2322 24.4956 74.4254 24.8148C73.6186 25.1339 72.8838 25.6217 72.2668 26.2477C71.6498 26.8738 71.1638 27.6247 70.8389 28.4538C70.5141 29.2829 70.3575 30.1724 70.3788 31.0669C70.4338 32.8202 71.1567 34.4796 72.3893 35.6822C73.622 36.8848 75.2641 37.5327 76.9565 37.4843C77.9792 37.4918 78.9893 37.2507 79.9058 36.7804C80.8223 36.3101 81.6195 35.6236 82.2335 34.7762L83.7324 36.8811C82.8745 37.8676 81.8253 38.6553 80.6534 39.1928C79.4815 39.7302 78.2133 40.0053 76.9317 39.9999C74.609 39.9999 72.3814 39.0439 70.739 37.3421C69.0966 35.6404 68.1739 33.3323 68.1739 30.9257C68.1739 28.5191 69.0966 26.211 70.739 24.5093C72.3814 22.8075 74.609 21.8515 76.9317 21.8515C78.1185 21.8476 79.2944 22.0872 80.3914 22.5564C81.4884 23.0256 82.485 23.7152 83.3236 24.5853L81.8123 26.5234Z" fill="#35425B"/>
<path fill-rule="evenodd" clip-rule="evenodd" d="M95.8844 22.1082H98.5601L106.562 39.6406H103.825L102.735 37.0736H97.693C94.6581 37.0736 93.023 38.0619 92.6513 38.7807L92.2302 39.5893H89.5917L96.8011 24.1875L95.8844 22.1082ZM101.657 34.5837L98.0274 27.3063L94.3112 35.5591C95.5847 34.7686 97.0709 34.4264 98.5477 34.5837H101.657Z" fill="#35425B"/>
<path fill-rule="evenodd" clip-rule="evenodd" d="M113.97 22.4034V39.6406H116.398V33.005C117.383 32.5056 118.473 32.2675 119.569 32.3119H122.492C123.139 32.3628 123.788 32.2694 124.397 32.0381C125.006 31.8067 125.56 31.4427 126.021 30.9707C126.483 30.4987 126.841 29.9297 127.072 29.302C127.303 28.6743 127.401 28.0025 127.361 27.332C127.404 26.6642 127.308 25.9946 127.078 25.3691C126.848 24.7437 126.49 24.1773 126.028 23.7089C125.567 23.2405 125.013 22.8813 124.405 22.6559C123.796 22.4306 123.148 22.3444 122.505 22.4034H113.97ZM124.982 27.332C124.982 28.9877 124.09 29.7706 122.505 29.7706H119.569C118.471 29.7059 117.377 29.9451 116.398 30.4637V24.9191H122.505C124.14 24.9191 124.982 25.6763 124.982 27.332Z" fill="#35425B"/>
<path d="M135.214 39.6406V22.4034H137.605V39.6406H135.214Z" fill="#35425B"/>
<path d="M153.3 39.6405V24.9447H159.134V22.3777H144.963V24.9447H150.897V39.6405H153.3Z" fill="#35425B"/>
<path fill-rule="evenodd" clip-rule="evenodd" d="M170.196 22.1082H172.872L180.886 39.6406H178.149L177.059 37.0736H171.955C168.92 37.0736 167.298 38.0619 166.914 38.7807L166.492 39.5893H163.866L171.063 24.1875L170.196 22.1082ZM175.981 34.5837L172.339 27.3063L168.623 35.5591C169.898 34.772 171.383 34.4301 172.859 34.5837H175.981Z" fill="#35425B"/>
<path d="M188.282 22.4034V39.6406L200 39.6919V37.125H190.759V22.4034H188.282Z" fill="#35425B"/>
<path d="M87.3867 0.520004V17.7572H89.7774V0.520004H87.3867Z" fill="#35425B"/>
<path d="M113.14 17.7572H115.618V10.1333C116.279 9.8104 117.005 9.65218 117.736 9.67123C118.172 9.67123 118.995 9.77075 119.907 9.88104C121.041 10.0181 122.312 10.1718 123.149 10.1718C123.921 10.1816 124.687 10.0333 125.404 9.7354V17.7572H127.881V0.520004H125.404V7.19411C124.687 7.49203 123.921 7.64033 123.149 7.63049C122.312 7.63049 121.041 7.47286 119.907 7.33229C118.995 7.21917 118.172 7.1171 117.736 7.1171C117.004 7.10253 116.278 7.26514 115.618 7.59199V0.520004H113.14V17.7572Z" fill="#35425B"/>
<path d="M132.625 17.7572V0.520004H135.103V15.2415H144.344V17.8085L132.625 17.7572Z" fill="#35425B"/>
<path fill-rule="evenodd" clip-rule="evenodd" d="M154.477 0.211981H151.801L152.718 2.30406L145.52 17.7058H148.147L148.568 16.8972C148.952 16.1785 150.575 15.1902 153.609 15.1902H158.676L159.766 17.7572H162.491L154.477 0.211981ZM153.944 5.41008L157.586 12.6874H154.464C152.988 12.541 151.505 12.8825 150.228 13.6629L153.944 5.41008Z" fill="#35425B"/>
<path d="M164.04 0.520004H167.186L177.877 13.6885V0.520004H180.354V17.7572H177.938L168.4 5.89779V17.7572H166.009V2.94578L164.04 0.520004Z" fill="#35425B"/>
<path fill-rule="evenodd" clip-rule="evenodd" d="M192.134 0.520004H183.661L184.702 3.0613H186.015V17.7828H192.209C193.203 17.8444 194.198 17.6693 195.117 17.2711C196.035 16.8729 196.854 16.2621 197.51 15.4854C199.089 13.7473 199.974 11.4546 199.988 9.06799C200.026 7.96929 199.852 6.87379 199.475 5.84581C199.099 4.81784 198.528 3.87811 197.797 3.08182C197.065 2.28553 196.187 1.64872 195.215 1.20879C194.243 0.768866 193.195 0.534685 192.134 0.520004ZM192.159 15.2415H188.443L188.393 3.0613H192.109C195.553 3.0613 197.486 5.92346 197.486 9.24768C197.533 10.0076 197.43 10.7696 197.185 11.4875C196.94 12.2054 196.557 12.8644 196.059 13.4246C195.561 13.9848 194.959 14.4347 194.289 14.7469C193.618 15.0592 192.894 15.2275 192.159 15.2415Z" fill="#35425B"/>
<path d="M17.2866 0H0L0.0125629 38.1369C1.09649 37.3904 2.11368 36.5517 3.05279 35.6304C3.36686 35.2419 3.68093 34.8659 4.00757 34.4899L6.28146 33.7254C6.68601 33.4705 7.0665 33.0236 7.41613 32.613C7.68539 32.2967 7.93634 32.002 8.16589 31.833C8.4343 31.6353 8.6572 31.4312 8.87097 31.2355C9.07742 31.0464 9.27536 30.8651 9.49756 30.705H9.87445C10.4234 30.2955 11.074 29.6222 11.7653 28.9069C12.9566 27.6743 14.2687 26.3166 15.3896 25.9677C15.7807 26.3929 16.3021 26.6962 16.8239 26.9998C17.4249 27.3495 18.0263 27.6994 18.4298 28.2361C19.6159 27.8497 21.1518 25.8116 21.9479 24.7552C21.9781 24.7151 22.0073 24.6764 22.0354 24.6392L23.4298 23.5113C25.4523 21.4185 27.4753 19.3252 29.5103 17.2449C30.1959 17.4702 30.5143 17.9341 30.8468 18.4188C31.0139 18.6623 31.1846 18.9111 31.4073 19.1374C32.5709 20.216 33.6779 21.3538 34.7239 22.5463C35.0168 22.9381 35.3308 23.2595 35.6399 23.5758C35.9141 23.8564 36.1844 24.1331 36.4324 24.4512L36.6586 25.0403C36.9484 25.2606 37.2648 25.3636 37.5849 25.4679C37.8474 25.5534 38.1124 25.6397 38.3671 25.7922C39.6389 26.5736 40.7376 27.6056 41.5958 28.8251C43.0028 28.5244 45.2642 27.6345 45.9677 26.5567C47.9914 26.8555 49.8483 28.9859 51.5247 30.9094C52.4501 31.9711 53.3204 32.9697 54.1336 33.5625C54.5928 33.8985 55.1174 34.2216 55.6539 34.5522C56.8787 35.3068 58.166 36.1 58.8824 37.1719H59.2593V0H41.9853V14.4H17.2866V0Z" fill="#35425B"/>
<path d="M30.3896 24.8272C30.2887 23.3356 29.9713 21.8665 29.4474 20.4658C29.2242 21.1338 28.6944 21.609 28.1644 22.0843C27.8294 22.3849 27.4942 22.6855 27.2363 23.035L23.0654 27.5843L20.779 29.6648C20.4299 30.2832 20.2913 30.9965 20.1546 31.7C20.006 32.465 19.8596 33.2184 19.4473 33.8256L18.3166 34.7781C17.3927 35.7146 16.5521 36.7294 15.8041 37.811H15.6156V37.999C16.6358 37.5558 17.5944 36.9829 18.4674 36.2945L19.5981 35.9186C20.0086 35.647 20.4341 35.3546 20.8667 35.0572C21.6916 34.4903 22.5429 33.9053 23.3669 33.412C24.5466 32.9047 25.6885 32.3141 26.784 31.6449C26.8993 31.2968 27.0145 30.9444 27.1299 30.5913C27.4549 29.5972 27.7821 28.5967 28.1157 27.6721C28.3454 27.2654 28.7246 26.864 29.1214 26.4439C29.593 25.9448 30.0895 25.4192 30.3896 24.8272Z" fill="#35425B"/>
<path d="M37.6132 29.9405C36.7841 28.6872 34.9248 26.4063 33.4298 25.9676C32.5893 26.9054 31.8287 27.9115 31.1559 28.9755C30.8827 29.5683 30.6626 30.2997 30.4376 31.0473C30.0727 32.2595 29.6951 33.5141 29.0579 34.2893V34.6653H33.2413C34.0415 34.1601 34.8017 33.5945 35.5152 32.9734C36.528 32.5159 37.4849 31.944 38.367 31.269C38.5593 30.9725 38.2529 30.6517 37.9556 30.3405C37.8256 30.2044 37.6973 30.0701 37.6132 29.9405Z" fill="#35425B"/>
<path d="M14.6233 29.5645C15.4002 30.9101 15.9159 32.3897 16.1434 33.9259C15.856 34.822 14.5344 35.9744 13.4601 36.9113C13.0319 37.2846 12.643 37.6237 12.3745 37.8987L11.2313 39.2272H10.0504C8.93691 40.0603 5.4647 40.0172 3.10645 39.9879C2.80431 39.9841 2.51963 39.9806 2.26139 39.9792V39.7912C2.72903 39.383 3.16132 38.7197 3.59115 38.0602C4.08509 37.3023 4.57578 36.5495 5.11317 36.1943C5.49248 35.9487 5.9987 35.8648 6.50672 35.7806C6.95775 35.7059 7.41019 35.6309 7.7765 35.4423L8.3544 34.6653C8.59527 34.4953 8.83339 34.3583 9.07006 34.222C9.33943 34.067 9.60703 33.913 9.87451 33.7128L10.6408 32.7729C12.1158 31.8997 13.4571 30.8191 14.6233 29.5645Z" fill="#35425B"/>
<path d="M42.6846 37.73C43.2614 37.394 43.8631 37.0436 44.636 36.9588C44.6337 35.9594 44.8982 34.9775 45.4023 34.1139C45.7586 33.5736 46.3655 33.231 46.9708 32.8892C47.4326 32.6284 47.8936 32.3681 48.2416 32.0209H48.4426V31.8329C48.0409 31.5775 47.7055 31.224 47.3673 30.8676C46.8593 30.3322 46.345 29.7902 45.5908 29.5645L40.4651 33.1614V36.0063C38.8293 36.6359 37.3871 37.6815 36.2817 39.0392H36.0932V39.2272C36.5337 39.1322 37.0069 39.0384 37.4876 38.9431C38.5287 38.7368 39.6057 38.5233 40.4651 38.2747H41.5958C41.9729 38.1445 42.3239 37.9401 42.6846 37.73Z" fill="#35425B"/>
<path d="M51.8598 34.8658C53.4998 35.6678 54.9809 36.759 56.2317 38.0867H52.4628C51.8049 37.7818 51.0996 37.5911 50.3774 37.5227V37.3347H50.5658L51.8598 34.8658Z" fill="#35425B"/>
</svg>
