<svg width="284" height="56" viewBox="0 0 284 56" fill="none" xmlns="http://www.w3.org/2000/svg">
<path d="M152.304 6.47807C151.401 5.55237 150.325 4.821 149.141 4.32718C147.957 3.83337 146.687 3.58715 145.408 3.60307C144.19 3.5515 142.974 3.75474 141.835 4.20032C140.696 4.64589 139.659 5.32441 138.786 6.19426C137.913 7.06411 137.223 8.10696 136.759 9.25884C136.295 10.4107 136.065 11.6474 136.086 12.8929C136.164 15.3475 137.19 17.6707 138.941 19.3543C140.691 21.038 143.023 21.9451 145.426 21.8773C147.701 21.8939 149.906 21.0708 151.635 19.5593V15.157H148.592L147.115 11.6531H155.065V21.0327C153.849 22.4165 152.36 23.5212 150.695 24.2738C149.031 25.0265 147.229 25.41 145.408 25.3991C143.737 25.4622 142.07 25.1802 140.508 24.57C138.946 23.9598 137.52 23.034 136.316 21.848C135.113 20.6619 134.155 19.24 133.502 17.6673C132.848 16.0946 132.512 14.4034 132.513 12.6949C132.515 10.9864 132.853 9.29569 133.509 7.72393C134.164 6.15217 135.124 4.73165 136.329 3.54735C137.535 2.36305 138.962 1.43931 140.525 0.831398C142.088 0.223483 143.755 -0.0561176 145.426 0.00932289C148.814 0.0110751 152.063 1.38029 154.467 3.8187L152.304 6.47807Z" fill="#CEA45B"/>
<path d="M99.9379 24.86H96.4199V0.728006H99.9379V10.6288C100.876 10.1712 101.906 9.94354 102.946 9.96394C103.565 9.96394 104.734 10.1068 106.029 10.2652C107.639 10.462 109.444 10.6827 110.633 10.6827C111.729 10.6965 112.817 10.4888 113.834 10.0717V0.728006H117.352V24.86H113.834V13.6296C112.817 14.0467 111.729 14.2543 110.633 14.2405C109.444 14.2405 107.639 14.0253 106.029 13.8335C104.734 13.679 103.565 13.5397 102.946 13.5397C101.908 13.5131 100.878 13.7346 99.9379 14.1866V24.86Z" fill="#CEA45B"/>
<path d="M116.174 37.1327C115.28 36.1875 114.208 35.4362 113.023 34.9237C111.839 34.4112 110.565 34.148 109.278 34.1499C108.053 34.0928 106.83 34.2939 105.684 34.7407C104.538 35.1874 103.495 35.8703 102.619 36.7468C101.743 37.6233 101.053 38.6746 100.591 39.8353C100.13 40.996 99.9076 42.2413 99.9379 43.4937C100.016 45.9483 101.042 48.2715 102.793 49.9551C104.543 51.6387 106.875 52.5458 109.278 52.478C110.73 52.4885 112.165 52.151 113.466 51.4925C114.768 50.8341 115.9 49.8731 116.772 48.6866L118.9 51.6335C117.682 53.0146 116.192 54.1174 114.528 54.8699C112.864 55.6223 111.063 56.0074 109.243 55.9999C105.945 55.9999 102.782 54.6615 100.449 52.279C98.1171 49.8966 96.8069 46.6653 96.8069 43.296C96.8069 39.9267 98.1171 36.6954 100.449 34.313C102.782 31.9305 105.945 30.5921 109.243 30.5921C110.928 30.5867 112.598 30.9221 114.156 31.579C115.714 32.2359 117.129 33.2012 118.319 34.4194L116.174 37.1327Z" fill="#CEA45B"/>
<path fill-rule="evenodd" clip-rule="evenodd" d="M136.156 30.9515H139.955L151.318 55.4968H147.431L145.883 51.9031H138.724C134.414 51.9031 132.093 53.2867 131.565 54.2929L130.967 55.425H127.22L137.458 33.8625L136.156 30.9515ZM144.353 48.4172L139.199 38.2289L133.922 49.7828C135.73 48.676 137.841 48.1969 139.938 48.4172H144.353Z" fill="#CEA45B"/>
<path fill-rule="evenodd" clip-rule="evenodd" d="M161.837 31.3648V55.4968H165.285V46.207C166.684 45.5078 168.231 45.1744 169.788 45.2367H173.939C174.857 45.3079 175.78 45.1772 176.644 44.8533C177.508 44.5294 178.295 44.0198 178.95 43.359C179.605 42.6982 180.114 41.9016 180.442 41.0228C180.77 40.144 180.91 39.2035 180.852 38.2648C180.914 37.3299 180.777 36.3924 180.45 35.5168C180.124 34.6411 179.615 33.8482 178.96 33.1924C178.305 32.5367 177.518 32.0338 176.655 31.7183C175.791 31.4028 174.871 31.2822 173.957 31.3648H161.837ZM177.475 38.2648C177.475 40.5828 176.208 41.6789 173.957 41.6789H169.788C168.229 41.5883 166.675 41.9232 165.285 42.6492V34.8867H173.957C176.279 34.8867 177.475 35.9468 177.475 38.2648Z" fill="#CEA45B"/>
<path d="M192.004 55.4968V31.3648H195.399V55.4968H192.004Z" fill="#CEA45B"/>
<path d="M217.686 55.4968V34.9226H225.971V31.3288H205.848V34.9226H214.273V55.4968H217.686Z" fill="#CEA45B"/>
<path fill-rule="evenodd" clip-rule="evenodd" d="M241.679 30.9515H245.478L256.859 55.4968H252.971L251.423 51.9031H244.176C239.867 51.9031 237.562 53.2867 237.017 54.2929L236.419 55.425H232.69L242.91 33.8625L241.679 30.9515ZM249.893 48.4172L244.722 38.2289L239.445 49.7828C241.255 48.6808 243.364 48.2021 245.46 48.4172H249.893Z" fill="#CEA45B"/>
<path d="M267.36 31.3648V55.4968L284 55.5687V51.9749H270.878V31.3648H267.36Z" fill="#CEA45B"/>
<path d="M124.089 0.728006V24.86H127.484V0.728006H124.089Z" fill="#CEA45B"/>
<path d="M160.659 24.86H164.177V14.1866C165.116 13.7346 166.146 13.5131 167.185 13.5397C167.804 13.5397 168.973 13.679 170.268 13.8335C171.878 14.0253 173.682 14.2405 174.872 14.2405C175.968 14.2543 177.056 14.0467 178.073 13.6296V24.86H181.591V0.728006H178.073V10.0717C177.056 10.4888 175.968 10.6965 174.872 10.6827C173.682 10.6827 171.878 10.462 170.268 10.2652C168.973 10.1068 167.804 9.96394 167.185 9.96394C166.145 9.94354 165.115 10.1712 164.177 10.6288V0.728006H160.659V24.86Z" fill="#CEA45B"/>
<path d="M188.328 24.86V0.728006H191.846V21.3381H204.968V24.9319L188.328 24.86Z" fill="#CEA45B"/>
<path fill-rule="evenodd" clip-rule="evenodd" d="M219.357 0.296774H215.557L216.859 3.22568L206.639 24.7882H210.368L210.966 23.6561C211.511 22.6499 213.816 21.2663 218.125 21.2663H225.32L226.868 24.86H230.737L219.357 0.296774ZM218.6 7.57411L223.772 17.7624H219.339C217.243 17.5575 215.137 18.0355 213.323 19.128L218.6 7.57411Z" fill="#CEA45B"/>
<path d="M232.937 0.728006H237.404L252.585 19.1639V0.728006H256.103V24.86H252.673L239.128 8.25691V24.86H235.733V4.1241L232.937 0.728006Z" fill="#CEA45B"/>
<path fill-rule="evenodd" clip-rule="evenodd" d="M272.83 0.728006H260.799L262.276 4.28582H264.141V24.896H272.936C274.348 24.9821 275.761 24.737 277.065 24.1795C278.37 23.622 279.533 22.7669 280.465 21.6796C282.706 19.2463 283.963 16.0364 283.983 12.6952C284.037 11.157 283.789 9.6233 283.255 8.18414C282.721 6.74497 281.91 5.42936 280.872 4.31455C279.833 3.19974 278.586 2.30821 277.205 1.69231C275.824 1.07641 274.337 0.74856 272.83 0.728006ZM272.866 21.3381H267.589L267.518 4.28582H272.795C277.685 4.28582 280.429 8.29284 280.429 12.9467C280.496 14.0107 280.351 15.0774 280.003 16.0825C279.655 17.0876 279.111 18.0101 278.404 18.7944C277.697 19.5787 276.842 20.2085 275.89 20.6457C274.938 21.0829 273.909 21.3185 272.866 21.3381Z" fill="#CEA45B"/>
<path d="M24.5469 0H0L0.0178393 53.3917C1.55701 52.3465 3.00143 51.1724 4.33496 49.8825C4.78094 49.3386 5.22693 48.8122 5.69075 48.2859L8.91967 47.2156C9.49413 46.8587 10.0344 46.2331 10.5309 45.6582C10.9132 45.2154 11.2696 44.8028 11.5956 44.5662C11.9767 44.2895 12.2932 44.0037 12.5968 43.7296C12.8899 43.465 13.171 43.2112 13.4865 42.987H14.0217C14.8012 42.4136 15.7251 41.4711 16.7067 40.4697C18.3983 38.744 20.2615 36.8433 21.8532 36.3548C22.4086 36.95 23.149 37.3747 23.8899 37.7997C24.7433 38.2893 25.5974 38.7792 26.1703 39.5305C27.8546 38.9896 30.0356 36.1362 31.166 34.6573C31.209 34.6011 31.2504 34.5469 31.2902 34.4949L33.2704 32.9158C36.1422 29.9859 39.0149 27.0552 41.9046 24.1429C42.8782 24.4582 43.3303 25.1078 43.8025 25.7863C44.0398 26.1272 44.2821 26.4755 44.5983 26.7923C46.2507 28.3024 47.8226 29.8953 49.3079 31.5648C49.7238 32.1133 50.1698 32.5633 50.6086 33.0061C50.998 33.399 51.3818 33.7863 51.7341 34.2317L52.0552 35.0564C52.4668 35.3648 52.9161 35.5091 53.3705 35.6551C53.7433 35.7748 54.1196 35.8956 54.4813 36.1091C56.2873 37.203 57.8474 38.6479 59.066 40.3552C61.064 39.9341 64.2751 38.6883 65.2741 37.1794C68.1479 37.5977 70.7845 40.5803 73.1651 43.2732C74.4791 44.7595 75.715 46.1576 76.8697 46.9875C77.5218 47.4578 78.2667 47.9103 79.0286 48.3731C80.7677 49.4295 82.5958 50.54 83.613 52.0406H84.1481V0H59.6191V20.16H24.5469V0Z" fill="#CEA45B"/>
<path d="M43.1532 34.758C43.0099 32.6698 42.5592 30.613 41.8153 28.6521C41.4983 29.5874 40.7461 30.2526 39.9935 30.9181C39.5177 31.3388 39.0418 31.7597 38.6756 32.249L32.7529 38.6181L29.5061 41.5307C29.0105 42.3965 28.8137 43.3951 28.6196 44.3801C28.4085 45.4511 28.2006 46.5058 27.6152 47.3559L26.0096 48.6893C24.6977 50.0005 23.5039 51.4212 22.4418 52.9354H22.1742V53.1986C23.6229 52.5781 24.984 51.776 26.2237 50.8124L27.8292 50.286C28.4122 49.9057 29.0164 49.4964 29.6307 49.0801C30.8021 48.2865 32.0109 47.4674 33.181 46.7769C34.8561 46.0665 36.4777 45.2398 38.0333 44.3029C38.197 43.8156 38.3606 43.3222 38.5245 42.8278C38.986 41.4361 39.4505 40.0353 39.9243 38.7409C40.2504 38.1716 40.7889 37.6096 41.3524 37.0215C42.022 36.3227 42.727 35.5869 43.1532 34.758Z" fill="#CEA45B"/>
<path d="M53.4108 41.9167C52.2334 40.1621 49.5932 36.9688 47.4703 36.3547C46.2768 37.6676 45.1967 39.0762 44.2413 40.5657C43.8535 41.3956 43.5409 42.4196 43.2213 43.4662C42.7032 45.1632 42.167 46.9198 41.2622 48.0051V48.5315H47.2027C48.3389 47.8242 49.4184 47.0323 50.4316 46.1628C51.8698 45.5223 53.2285 44.7217 54.4811 43.7766C54.7542 43.3615 54.3191 42.9125 53.8969 42.4767C53.7123 42.2862 53.5302 42.0982 53.4108 41.9167Z" fill="#CEA45B"/>
<path d="M20.7651 41.3903C21.8683 43.2742 22.6006 45.3456 22.9236 47.4962C22.5155 48.7508 20.6388 50.3642 19.1133 51.6758C18.5053 52.1985 17.9531 52.6732 17.5718 53.0582L15.9485 54.9181H14.2716C12.6904 56.0844 7.75988 56.024 4.41115 55.983C3.98212 55.9778 3.57787 55.9728 3.21117 55.9708V55.7076C3.87523 55.1362 4.48907 54.2076 5.09944 53.2843C5.80082 52.2233 6.49761 51.1692 7.2607 50.672C7.79933 50.3281 8.51816 50.2107 9.23954 50.0929C9.88 49.9883 10.5225 49.8833 11.0426 49.6193L11.8632 48.5314C12.2053 48.2935 12.5434 48.1016 12.8795 47.9109C13.262 47.6938 13.642 47.4781 14.0218 47.198L15.11 45.882C17.2045 44.6596 19.1091 43.1468 20.7651 41.3903Z" fill="#CEA45B"/>
<path d="M60.6122 52.8219C61.4312 52.3517 62.2856 51.861 63.3831 51.7423C63.3798 50.3432 63.7554 48.9685 64.4713 47.7594C64.9772 47.0031 65.839 46.5233 66.6985 46.0448C67.3543 45.6797 68.0089 45.3153 68.503 44.8293H68.7885V44.5661C68.2181 44.2085 67.7418 43.7136 67.2616 43.2147C66.5402 42.4651 65.81 41.7063 64.7389 41.3903L57.4605 46.426V50.4088C55.1376 51.2903 53.0897 52.7541 51.52 54.6549H51.2524V54.9181C51.8779 54.7851 52.5497 54.6538 53.2324 54.5204C54.7107 54.2315 56.2401 53.9327 57.4605 53.5846H59.066C59.6014 53.4023 60.0999 53.1161 60.6122 52.8219Z" fill="#CEA45B"/>
<path d="M73.641 48.8121C75.9697 49.9349 78.0729 51.4626 79.849 53.3214H74.4972C73.5629 52.8946 72.5615 52.6276 71.5359 52.5318V52.2686H71.8035L73.641 48.8121Z" fill="#CEA45B"/>
</svg>
