<svg width="48" height="48" viewBox="0 0 48 48" fill="none" xmlns="http://www.w3.org/2000/svg">
<path d="M24 23.9993L2.25 9V39H45.75V9L24 23.9993Z" fill="#CEA45B"/>
<path d="M45.5161 7.01005V7H2.48389V7.01005C2.28921 7.00768 2.09602 7.04571 1.9156 7.12191C1.73518 7.19811 1.57112 7.31096 1.433 7.45387C1.29489 7.59679 1.18547 7.76691 1.11113 7.95432C1.03679 8.14173 0.999021 8.34268 1.00002 8.54545V39.4545C1.00002 39.8644 1.15636 40.2575 1.43463 40.5473C1.71291 40.8372 2.09034 41 2.48389 41H45.5161C45.9097 41 46.2871 40.8372 46.5654 40.5473C46.8436 40.2575 47 39.8644 47 39.4545V8.54545C47.001 8.34268 46.9632 8.14173 46.8889 7.95432C46.8145 7.76691 46.7051 7.59679 46.567 7.45387C46.4289 7.31096 46.2648 7.19811 46.0844 7.12191C45.904 7.04571 45.7108 7.00768 45.5161 7.01005ZM40.7507 10.0909L24 22.1215L7.24934 10.0909H40.7507ZM44.0322 37.9091H3.96776V11.4888L16.0613 20.175L6.9355 26.8274V30.5999L18.6677 22.0473L23.1572 25.2719C23.4052 25.4493 23.6991 25.5443 24 25.5443C24.3009 25.5443 24.5948 25.4493 24.8428 25.2719L29.3323 22.0473L44.0322 32.7635V37.9091ZM44.0322 28.991L31.9387 20.175L44.0322 11.4888V28.991Z" fill="#1B2D43"/>
</svg>
