<svg width="32" height="32" viewBox="0 0 32 32" fill="none" xmlns="http://www.w3.org/2000/svg">
<path d="M23.927 15.8749C24.0243 15.7532 24.0243 15.5802 23.927 15.4584L18.5936 8.79178C18.4786 8.64803 18.2689 8.62472 18.1251 8.73972C17.9813 8.85473 17.958 9.06449 18.073 9.20824L22.9731 15.3334H8.33333C8.14924 15.3334 8 15.4826 8 15.6667C8 15.8508 8.14924 16 8.33333 16H22.9731L18.073 22.1251C17.958 22.2689 17.9813 22.4786 18.1251 22.5936C18.2689 22.7086 18.4786 22.6853 18.5936 22.5416L23.927 15.8749Z" fill="#1B2D43"/>
<path fill-rule="evenodd" clip-rule="evenodd" d="M0 16C0 24.8366 7.16344 32 16 32C24.8366 32 32 24.8366 32 16C32 7.16344 24.8366 0 16 0C7.16344 0 0 7.16344 0 16ZM0.666667 16C0.666667 24.4684 7.53163 31.3333 16 31.3333C24.4684 31.3333 31.3333 24.4684 31.3333 16C31.3333 7.53163 24.4684 0.666667 16 0.666667C7.53163 0.666667 0.666667 7.53163 0.666667 16Z" fill="#1B2D43"/>
</svg>
