<svg width="336" height="290" viewBox="0 0 336 290" fill="none" xmlns="http://www.w3.org/2000/svg">
<path d="M292.444 0L304 0.12977L298.11 10.0904L295.768 5.91906L32.9813 154L32 152.252L294.786 4.17135L292.444 0Z" fill="#CEA45B"/>
<rect width="336" height="1" transform="matrix(1 0 0 -1 0 250)" fill="#D7E1EA"/>
<rect x="56" y="215" width="16" height="34" fill="#144A71"/>
<path d="M52.4108 270.262C52.4108 270.898 52.2908 271.552 52.0508 272.224C51.8228 272.884 51.5168 273.55 51.1328 274.222C50.7608 274.894 50.3408 275.554 49.8728 276.202C49.4048 276.838 48.9368 277.444 48.4688 278.02L47.5868 278.794V278.866L48.7388 278.668H52.6628V280H45.4988V279.478C45.7628 279.202 46.0808 278.86 46.4528 278.452C46.8248 278.044 47.2088 277.594 47.6048 277.102C48.0128 276.598 48.4088 276.07 48.7928 275.518C49.1888 274.954 49.5428 274.384 49.8548 273.808C50.1788 273.232 50.4368 272.662 50.6288 272.098C50.8208 271.534 50.9168 271 50.9168 270.496C50.9168 269.908 50.7488 269.422 50.4128 269.038C50.0768 268.642 49.5668 268.444 48.8828 268.444C48.4268 268.444 47.9828 268.54 47.5508 268.732C47.1188 268.912 46.7468 269.122 46.4348 269.362L45.8408 268.336C46.2608 267.976 46.7588 267.694 47.3348 267.49C47.9108 267.286 48.5288 267.184 49.1888 267.184C49.7048 267.184 50.1608 267.262 50.5568 267.418C50.9528 267.562 51.2888 267.772 51.5648 268.048C51.8408 268.324 52.0508 268.654 52.1948 269.038C52.3388 269.41 52.4108 269.818 52.4108 270.262ZM54.9654 273.7C54.9654 271.54 55.3134 269.914 56.0094 268.822C56.7174 267.73 57.7434 267.184 59.0874 267.184C60.5394 267.184 61.5894 267.724 62.2374 268.804C62.8974 269.872 63.2274 271.504 63.2274 273.7C63.2274 275.86 62.8734 277.486 62.1654 278.578C61.4694 279.67 60.4434 280.216 59.0874 280.216C57.6594 280.216 56.6154 279.646 55.9554 278.506C55.2954 277.366 54.9654 275.764 54.9654 273.7ZM56.4594 273.7C56.4594 274.48 56.5074 275.194 56.6034 275.842C56.7114 276.478 56.8734 277.03 57.0894 277.498C57.3054 277.954 57.5754 278.314 57.8994 278.578C58.2354 278.83 58.6314 278.956 59.0874 278.956C59.9994 278.956 60.6654 278.536 61.0854 277.696C61.5174 276.844 61.7334 275.512 61.7334 273.7C61.7334 272.932 61.6854 272.224 61.5894 271.576C61.5054 270.928 61.3554 270.37 61.1394 269.902C60.9354 269.434 60.6654 269.074 60.3294 268.822C59.9934 268.57 59.5794 268.444 59.0874 268.444C58.1874 268.444 57.5214 268.87 57.0894 269.722C56.6694 270.574 56.4594 271.9 56.4594 273.7ZM64.774 273.7C64.774 271.54 65.122 269.914 65.818 268.822C66.526 267.73 67.552 267.184 68.896 267.184C70.348 267.184 71.398 267.724 72.046 268.804C72.706 269.872 73.036 271.504 73.036 273.7C73.036 275.86 72.682 277.486 71.974 278.578C71.278 279.67 70.252 280.216 68.896 280.216C67.468 280.216 66.424 279.646 65.764 278.506C65.104 277.366 64.774 275.764 64.774 273.7ZM66.268 273.7C66.268 274.48 66.316 275.194 66.412 275.842C66.52 276.478 66.682 277.03 66.898 277.498C67.114 277.954 67.384 278.314 67.708 278.578C68.044 278.83 68.44 278.956 68.896 278.956C69.808 278.956 70.474 278.536 70.894 277.696C71.326 276.844 71.542 275.512 71.542 273.7C71.542 272.932 71.494 272.224 71.398 271.576C71.314 270.928 71.164 270.37 70.948 269.902C70.744 269.434 70.474 269.074 70.138 268.822C69.802 268.57 69.388 268.444 68.896 268.444C67.996 268.444 67.33 268.87 66.898 269.722C66.478 270.574 66.268 271.9 66.268 273.7ZM74.5826 273.7C74.5826 271.54 74.9306 269.914 75.6266 268.822C76.3346 267.73 77.3606 267.184 78.7046 267.184C80.1566 267.184 81.2066 267.724 81.8546 268.804C82.5146 269.872 82.8446 271.504 82.8446 273.7C82.8446 275.86 82.4906 277.486 81.7826 278.578C81.0866 279.67 80.0606 280.216 78.7046 280.216C77.2766 280.216 76.2326 279.646 75.5726 278.506C74.9126 277.366 74.5826 275.764 74.5826 273.7ZM76.0766 273.7C76.0766 274.48 76.1246 275.194 76.2206 275.842C76.3286 276.478 76.4906 277.03 76.7066 277.498C76.9226 277.954 77.1926 278.314 77.5166 278.578C77.8526 278.83 78.2486 278.956 78.7046 278.956C79.6166 278.956 80.2826 278.536 80.7026 277.696C81.1346 276.844 81.3506 275.512 81.3506 273.7C81.3506 272.932 81.3026 272.224 81.2066 271.576C81.1226 270.928 80.9726 270.37 80.7566 269.902C80.5526 269.434 80.2826 269.074 79.9466 268.822C79.6106 268.57 79.1966 268.444 78.7046 268.444C77.8046 268.444 77.1386 268.87 76.7066 269.722C76.2866 270.574 76.0766 271.9 76.0766 273.7Z" fill="#35425B"/>
<path d="M54.3776 195.668H56.8976V186.956L57.0776 185.894L56.3576 186.74L54.3776 188.162L53.6936 187.244L57.6536 184.184H58.3016V195.668H60.7676V197H54.3776V195.668ZM63.1242 196.226C63.1242 195.938 63.2202 195.704 63.4122 195.524C63.6042 195.344 63.8502 195.254 64.1502 195.254C64.5222 195.254 64.8222 195.386 65.0502 195.65C65.2902 195.914 65.4102 196.298 65.4102 196.802C65.4102 197.234 65.3502 197.612 65.2302 197.936C65.1102 198.26 64.9542 198.536 64.7622 198.764C64.5702 199.004 64.3602 199.196 64.1322 199.34C63.9042 199.496 63.6762 199.61 63.4482 199.682L62.9982 198.98C63.4302 198.812 63.7482 198.548 63.9522 198.188C64.1682 197.84 64.2762 197.486 64.2762 197.126C64.1682 197.162 64.0662 197.18 63.9702 197.18C63.7302 197.18 63.5262 197.102 63.3582 196.946C63.2022 196.778 63.1242 196.538 63.1242 196.226ZM75.1898 193.13H73.0658V197H71.6618V193.13H66.1178V192.536L72.0938 184.202H73.0658V191.87H75.1898V193.13ZM71.6618 187.946L71.8418 186.47H71.7878L71.1578 187.694L68.6198 191.132L67.7558 192.014L69.0158 191.87H71.6618V187.946Z" fill="#1B2D43"/>
<path d="M156.411 270.262C156.411 270.898 156.291 271.552 156.051 272.224C155.823 272.884 155.517 273.55 155.133 274.222C154.761 274.894 154.341 275.554 153.873 276.202C153.405 276.838 152.937 277.444 152.469 278.02L151.587 278.794V278.866L152.739 278.668H156.663V280H149.499V279.478C149.763 279.202 150.081 278.86 150.453 278.452C150.825 278.044 151.209 277.594 151.605 277.102C152.013 276.598 152.409 276.07 152.793 275.518C153.189 274.954 153.543 274.384 153.855 273.808C154.179 273.232 154.437 272.662 154.629 272.098C154.821 271.534 154.917 271 154.917 270.496C154.917 269.908 154.749 269.422 154.413 269.038C154.077 268.642 153.567 268.444 152.883 268.444C152.427 268.444 151.983 268.54 151.551 268.732C151.119 268.912 150.747 269.122 150.435 269.362L149.841 268.336C150.261 267.976 150.759 267.694 151.335 267.49C151.911 267.286 152.529 267.184 153.189 267.184C153.705 267.184 154.161 267.262 154.557 267.418C154.953 267.562 155.289 267.772 155.565 268.048C155.841 268.324 156.051 268.654 156.195 269.038C156.339 269.41 156.411 269.818 156.411 270.262ZM158.965 273.7C158.965 271.54 159.313 269.914 160.009 268.822C160.717 267.73 161.743 267.184 163.087 267.184C164.539 267.184 165.589 267.724 166.237 268.804C166.897 269.872 167.227 271.504 167.227 273.7C167.227 275.86 166.873 277.486 166.165 278.578C165.469 279.67 164.443 280.216 163.087 280.216C161.659 280.216 160.615 279.646 159.955 278.506C159.295 277.366 158.965 275.764 158.965 273.7ZM160.459 273.7C160.459 274.48 160.507 275.194 160.603 275.842C160.711 276.478 160.873 277.03 161.089 277.498C161.305 277.954 161.575 278.314 161.899 278.578C162.235 278.83 162.631 278.956 163.087 278.956C163.999 278.956 164.665 278.536 165.085 277.696C165.517 276.844 165.733 275.512 165.733 273.7C165.733 272.932 165.685 272.224 165.589 271.576C165.505 270.928 165.355 270.37 165.139 269.902C164.935 269.434 164.665 269.074 164.329 268.822C163.993 268.57 163.579 268.444 163.087 268.444C162.187 268.444 161.521 268.87 161.089 269.722C160.669 270.574 160.459 271.9 160.459 273.7ZM168.774 273.7C168.774 271.54 169.122 269.914 169.818 268.822C170.526 267.73 171.552 267.184 172.896 267.184C174.348 267.184 175.398 267.724 176.046 268.804C176.706 269.872 177.036 271.504 177.036 273.7C177.036 275.86 176.682 277.486 175.974 278.578C175.278 279.67 174.252 280.216 172.896 280.216C171.468 280.216 170.424 279.646 169.764 278.506C169.104 277.366 168.774 275.764 168.774 273.7ZM170.268 273.7C170.268 274.48 170.316 275.194 170.412 275.842C170.52 276.478 170.682 277.03 170.898 277.498C171.114 277.954 171.384 278.314 171.708 278.578C172.044 278.83 172.44 278.956 172.896 278.956C173.808 278.956 174.474 278.536 174.894 277.696C175.326 276.844 175.542 275.512 175.542 273.7C175.542 272.932 175.494 272.224 175.398 271.576C175.314 270.928 175.164 270.37 174.948 269.902C174.744 269.434 174.474 269.074 174.138 268.822C173.802 268.57 173.388 268.444 172.896 268.444C171.996 268.444 171.33 268.87 170.898 269.722C170.478 270.574 170.268 271.9 170.268 273.7ZM179.789 280L184.307 269.452L185.099 268.57L184.037 268.732H178.907V267.4H186.431V267.886L181.247 280H179.789Z" fill="#35425B"/>
<path d="M160.646 135.956C161.054 135.956 161.432 135.896 161.78 135.776C162.128 135.656 162.428 135.482 162.68 135.254C162.932 135.014 163.13 134.732 163.274 134.408C163.418 134.084 163.49 133.73 163.49 133.346C163.49 132.506 163.238 131.882 162.734 131.474C162.242 131.066 161.558 130.862 160.682 130.862H159.35V130.34L161.942 126.344L162.77 125.552L161.6 125.732H158.036V124.4H164.462V124.922L161.6 129.224L160.97 129.746V129.782L161.582 129.656C162.062 129.668 162.506 129.758 162.914 129.926C163.322 130.082 163.676 130.316 163.976 130.628C164.276 130.928 164.51 131.294 164.678 131.726C164.846 132.146 164.93 132.626 164.93 133.166C164.93 133.814 164.816 134.39 164.588 134.894C164.36 135.398 164.048 135.824 163.652 136.172C163.268 136.508 162.812 136.766 162.284 136.946C161.756 137.126 161.198 137.216 160.61 137.216C160.07 137.216 159.584 137.174 159.152 137.09C158.72 137.006 158.342 136.898 158.018 136.766L158.396 135.488C158.672 135.62 158.996 135.734 159.368 135.83C159.752 135.914 160.178 135.956 160.646 135.956ZM167.124 136.226C167.124 135.938 167.22 135.704 167.412 135.524C167.604 135.344 167.85 135.254 168.15 135.254C168.522 135.254 168.822 135.386 169.05 135.65C169.29 135.914 169.41 136.298 169.41 136.802C169.41 137.234 169.35 137.612 169.23 137.936C169.11 138.26 168.954 138.536 168.762 138.764C168.57 139.004 168.36 139.196 168.132 139.34C167.904 139.496 167.676 139.61 167.448 139.682L166.998 138.98C167.43 138.812 167.748 138.548 167.952 138.188C168.168 137.84 168.276 137.486 168.276 137.126C168.168 137.162 168.066 137.18 167.97 137.18C167.73 137.18 167.526 137.102 167.358 136.946C167.202 136.778 167.124 136.538 167.124 136.226ZM170.982 133.994C170.982 133.238 171.18 132.584 171.576 132.032C171.972 131.468 172.59 130.958 173.43 130.502C173.13 130.322 172.848 130.136 172.584 129.944C172.332 129.74 172.104 129.512 171.9 129.26C171.708 129.008 171.552 128.726 171.432 128.414C171.324 128.102 171.27 127.742 171.27 127.334C171.27 126.866 171.348 126.44 171.504 126.056C171.672 125.672 171.906 125.342 172.206 125.066C172.518 124.79 172.884 124.574 173.304 124.418C173.736 124.262 174.222 124.184 174.762 124.184C175.266 124.184 175.722 124.256 176.13 124.4C176.538 124.544 176.88 124.742 177.156 124.994C177.444 125.246 177.666 125.546 177.822 125.894C177.978 126.242 178.056 126.626 178.056 127.046C178.056 127.73 177.9 128.336 177.588 128.864C177.276 129.38 176.76 129.89 176.04 130.394C176.352 130.574 176.646 130.772 176.922 130.988C177.21 131.204 177.456 131.444 177.66 131.708C177.876 131.972 178.044 132.272 178.164 132.608C178.284 132.932 178.344 133.304 178.344 133.724C178.344 134.24 178.26 134.714 178.092 135.146C177.924 135.566 177.678 135.932 177.354 136.244C177.03 136.544 176.634 136.784 176.166 136.964C175.698 137.132 175.164 137.216 174.564 137.216C173.988 137.216 173.478 137.132 173.034 136.964C172.59 136.796 172.212 136.568 171.9 136.28C171.6 135.992 171.372 135.656 171.216 135.272C171.06 134.876 170.982 134.45 170.982 133.994ZM176.94 133.814C176.94 133.454 176.868 133.142 176.724 132.878C176.58 132.602 176.388 132.356 176.148 132.14C175.92 131.912 175.656 131.708 175.356 131.528C175.056 131.348 174.744 131.174 174.42 131.006C173.688 131.414 173.166 131.87 172.854 132.374C172.542 132.878 172.386 133.358 172.386 133.814C172.386 134.102 172.434 134.378 172.53 134.642C172.626 134.906 172.77 135.134 172.962 135.326C173.154 135.518 173.388 135.674 173.664 135.794C173.952 135.902 174.282 135.956 174.654 135.956C174.954 135.956 175.242 135.914 175.518 135.83C175.794 135.734 176.034 135.602 176.238 135.434C176.454 135.254 176.622 135.032 176.742 134.768C176.874 134.492 176.94 134.174 176.94 133.814ZM172.674 127.298C172.674 127.634 172.74 127.934 172.872 128.198C173.004 128.45 173.178 128.678 173.394 128.882C173.622 129.086 173.88 129.278 174.168 129.458C174.456 129.626 174.756 129.788 175.068 129.944C175.608 129.524 176.004 129.11 176.256 128.702C176.52 128.294 176.652 127.844 176.652 127.352C176.652 126.74 176.46 126.272 176.076 125.948C175.704 125.612 175.254 125.444 174.726 125.444C174.402 125.444 174.114 125.498 173.862 125.606C173.61 125.714 173.394 125.852 173.214 126.02C173.034 126.188 172.896 126.386 172.8 126.614C172.716 126.83 172.674 127.058 172.674 127.298Z" fill="#1B2D43"/>
<rect x="160" y="155" width="16" height="94" fill="#144A71"/>
<path d="M260.411 270.262C260.411 270.898 260.291 271.552 260.051 272.224C259.823 272.884 259.517 273.55 259.133 274.222C258.761 274.894 258.341 275.554 257.873 276.202C257.405 276.838 256.937 277.444 256.469 278.02L255.587 278.794V278.866L256.739 278.668H260.663V280H253.499V279.478C253.763 279.202 254.081 278.86 254.453 278.452C254.825 278.044 255.209 277.594 255.605 277.102C256.013 276.598 256.409 276.07 256.793 275.518C257.189 274.954 257.543 274.384 257.855 273.808C258.179 273.232 258.437 272.662 258.629 272.098C258.821 271.534 258.917 271 258.917 270.496C258.917 269.908 258.749 269.422 258.413 269.038C258.077 268.642 257.567 268.444 256.883 268.444C256.427 268.444 255.983 268.54 255.551 268.732C255.119 268.912 254.747 269.122 254.435 269.362L253.841 268.336C254.261 267.976 254.759 267.694 255.335 267.49C255.911 267.286 256.529 267.184 257.189 267.184C257.705 267.184 258.161 267.262 258.557 267.418C258.953 267.562 259.289 267.772 259.565 268.048C259.841 268.324 260.051 268.654 260.195 269.038C260.339 269.41 260.411 269.818 260.411 270.262ZM262.965 273.7C262.965 271.54 263.313 269.914 264.009 268.822C264.717 267.73 265.743 267.184 267.087 267.184C268.539 267.184 269.589 267.724 270.237 268.804C270.897 269.872 271.227 271.504 271.227 273.7C271.227 275.86 270.873 277.486 270.165 278.578C269.469 279.67 268.443 280.216 267.087 280.216C265.659 280.216 264.615 279.646 263.955 278.506C263.295 277.366 262.965 275.764 262.965 273.7ZM264.459 273.7C264.459 274.48 264.507 275.194 264.603 275.842C264.711 276.478 264.873 277.03 265.089 277.498C265.305 277.954 265.575 278.314 265.899 278.578C266.235 278.83 266.631 278.956 267.087 278.956C267.999 278.956 268.665 278.536 269.085 277.696C269.517 276.844 269.733 275.512 269.733 273.7C269.733 272.932 269.685 272.224 269.589 271.576C269.505 270.928 269.355 270.37 269.139 269.902C268.935 269.434 268.665 269.074 268.329 268.822C267.993 268.57 267.579 268.444 267.087 268.444C266.187 268.444 265.521 268.87 265.089 269.722C264.669 270.574 264.459 271.9 264.459 273.7ZM273.944 278.668H276.464V269.956L276.644 268.894L275.924 269.74L273.944 271.162L273.26 270.244L277.22 267.184H277.868V278.668H280.334V280H273.944V278.668ZM283.789 280L288.307 269.452L289.099 268.57L288.037 268.732H282.907V267.4H290.431V267.886L285.247 280H283.789Z" fill="#35425B"/>
<path d="M263.407 77L267.925 66.452L268.717 65.57L267.655 65.732H262.525V64.4H270.049V64.886L264.865 77H263.407ZM270.131 76.226C270.131 75.938 270.227 75.704 270.419 75.524C270.611 75.344 270.857 75.254 271.157 75.254C271.529 75.254 271.829 75.386 272.057 75.65C272.297 75.914 272.417 76.298 272.417 76.802C272.417 77.234 272.357 77.612 272.237 77.936C272.117 78.26 271.961 78.536 271.769 78.764C271.577 79.004 271.367 79.196 271.139 79.34C270.911 79.496 270.683 79.61 270.455 79.682L270.005 78.98C270.437 78.812 270.755 78.548 270.959 78.188C271.175 77.84 271.283 77.486 271.283 77.126C271.175 77.162 271.073 77.18 270.977 77.18C270.737 77.18 270.533 77.102 270.365 76.946C270.209 76.778 270.131 76.538 270.131 76.226ZM281.621 73.202C281.621 73.754 281.537 74.276 281.369 74.768C281.201 75.248 280.955 75.674 280.631 76.046C280.307 76.406 279.905 76.694 279.425 76.91C278.945 77.114 278.399 77.216 277.787 77.216C277.187 77.216 276.647 77.12 276.167 76.928C275.687 76.736 275.273 76.454 274.925 76.082C274.577 75.698 274.307 75.23 274.115 74.678C273.935 74.126 273.845 73.49 273.845 72.77C273.845 71.582 273.995 70.49 274.295 69.494C274.607 68.486 275.033 67.61 275.573 66.866C276.113 66.122 276.749 65.522 277.481 65.066C278.225 64.598 279.029 64.304 279.893 64.184L280.199 65.336C279.527 65.456 278.915 65.684 278.363 66.02C277.811 66.356 277.325 66.77 276.905 67.262C276.497 67.754 276.161 68.306 275.897 68.918C275.633 69.53 275.453 70.16 275.357 70.808C275.549 70.484 275.873 70.19 276.329 69.926C276.785 69.65 277.343 69.512 278.003 69.512C279.131 69.512 280.013 69.836 280.649 70.484C281.297 71.132 281.621 72.038 281.621 73.202ZM280.127 73.346C280.127 72.494 279.929 71.852 279.533 71.42C279.137 70.988 278.525 70.772 277.697 70.772C277.109 70.772 276.599 70.916 276.167 71.204C275.747 71.492 275.453 71.816 275.285 72.176C275.261 72.344 275.249 72.482 275.249 72.59C275.249 72.698 275.249 72.818 275.249 72.95C275.249 73.322 275.297 73.688 275.393 74.048C275.501 74.408 275.663 74.732 275.879 75.02C276.095 75.296 276.359 75.524 276.671 75.704C276.995 75.872 277.373 75.956 277.805 75.956C278.153 75.956 278.465 75.89 278.741 75.758C279.029 75.626 279.275 75.446 279.479 75.218C279.683 74.99 279.839 74.714 279.947 74.39C280.067 74.066 280.127 73.718 280.127 73.346Z" fill="#1B2D43"/>
<rect x="264" y="95" width="16" height="154" fill="#144A71"/>
<circle cx="168" cy="79" r="24" fill="#CEA45B"/>
<path d="M153.837 83.182C154.629 83.182 155.235 82.99 155.655 82.606C156.075 82.222 156.285 81.694 156.285 81.022C156.285 80.302 156.039 79.774 155.547 79.438C155.055 79.102 154.353 78.934 153.441 78.934L152.019 78.988V72.4H158.211V74.596H154.035V77.026L154.773 76.954C155.361 76.978 155.889 77.086 156.357 77.278C156.837 77.47 157.245 77.74 157.581 78.088C157.917 78.424 158.175 78.838 158.355 79.33C158.535 79.81 158.625 80.35 158.625 80.95C158.625 81.658 158.505 82.282 158.265 82.822C158.025 83.362 157.689 83.812 157.257 84.172C156.837 84.532 156.339 84.802 155.763 84.982C155.187 85.162 154.557 85.252 153.873 85.252C153.333 85.252 152.817 85.204 152.325 85.108C151.845 85.024 151.437 84.904 151.101 84.748L151.731 82.804C152.007 82.924 152.307 83.02 152.631 83.092C152.967 83.152 153.369 83.182 153.837 83.182ZM160.846 83.812C160.846 83.392 160.978 83.062 161.242 82.822C161.506 82.57 161.854 82.444 162.286 82.444C162.742 82.444 163.102 82.57 163.366 82.822C163.63 83.062 163.762 83.392 163.762 83.812C163.762 84.232 163.63 84.568 163.366 84.82C163.102 85.072 162.742 85.198 162.286 85.198C161.854 85.198 161.506 85.072 161.242 84.82C160.978 84.568 160.846 84.232 160.846 83.812ZM174.474 81.49H172.494V85H170.316V81.49H164.862V80.158L170.568 72.31H172.494V79.618H174.474V81.49ZM170.316 76.864L170.478 75.352H170.406L169.794 76.648L167.922 79.078L167.022 79.762L168.174 79.618H170.316V76.864ZM178.782 78.592L175.272 72.4H178.242L180.186 76.036L180.618 77.314L181.032 76.036L183.066 72.4H185.748L182.112 78.466L185.928 85H182.994L180.78 81.112L180.294 79.78L179.826 81.112L177.594 85H174.912L178.782 78.592Z" fill="white"/>
</svg>
