<svg width="48" height="48" viewBox="0 0 48 48" fill="none" xmlns="http://www.w3.org/2000/svg">
<path d="M12.1096 23.8124C11.9635 23.6298 11.9635 23.3703 12.1096 23.1877L20.1096 13.1877C20.2821 12.972 20.5967 12.9371 20.8123 13.1096C21.028 13.2821 21.0629 13.5967 20.8904 13.8124L13.5403 23H35.5C35.7761 23 36 23.2239 36 23.5C36 23.7762 35.7761 24 35.5 24H13.5403L20.8904 33.1877C21.0629 33.4033 21.028 33.7179 20.8123 33.8905C20.5967 34.063 20.2821 34.028 20.1096 33.8124L12.1096 23.8124Z" fill="#D7E1EA"/>
<path fill-rule="evenodd" clip-rule="evenodd" d="M48 24C48 37.2548 37.2548 48 24 48C10.7452 48 0 37.2548 0 24C0 10.7452 10.7452 0 24 0C37.2548 0 48 10.7452 48 24ZM47 24C47 36.7025 36.7025 47 24 47C11.2975 47 1 36.7025 1 24C1 11.2975 11.2975 1 24 1C36.7025 1 47 11.2975 47 24Z" fill="#D7E1EA"/>
</svg>
