<svg width="48" height="48" viewBox="0 0 48 48" fill="none" xmlns="http://www.w3.org/2000/svg">
<path d="M35.8904 23.8124C36.0365 23.6298 36.0365 23.3703 35.8904 23.1877L27.8904 13.1877C27.7179 12.972 27.4033 12.9371 27.1877 13.1096C26.972 13.2821 26.9371 13.5967 27.1096 13.8124L34.4597 23H12.5C12.2239 23 12 23.2239 12 23.5C12 23.7762 12.2239 24 12.5 24H34.4597L27.1096 33.1877C26.9371 33.4033 26.972 33.7179 27.1877 33.8905C27.4033 34.063 27.7179 34.028 27.8904 33.8124L35.8904 23.8124Z" fill="#1B2D43"/>
<path fill-rule="evenodd" clip-rule="evenodd" d="M0 24C0 37.2548 10.7452 48 24 48C37.2548 48 48 37.2548 48 24C48 10.7452 37.2548 0 24 0C10.7452 0 0 10.7452 0 24ZM1 24C1 36.7025 11.2975 47 24 47C36.7025 47 47 36.7025 47 24C47 11.2975 36.7025 1 24 1C11.2975 1 1 11.2975 1 24Z" fill="#1B2D43"/>
</svg>
