<svg width="22" height="20" viewBox="0 0 22 20" fill="none" xmlns="http://www.w3.org/2000/svg">
<path fill-rule="evenodd" clip-rule="evenodd" d="M0.999864 7.99997H20.9999C21.4489 7.99997 21.8439 7.69997 21.9639 7.26697C22.0839 6.83397 21.9009 6.37397 21.5149 6.14297L11.5149 0.142971C11.1979 -0.0460293 10.8029 -0.0460293 10.4859 0.142971L0.485864 6.14297C0.0998639 6.37397 -0.084136 6.83397 0.035864 7.26697C0.155864 7.69997 0.550864 7.99997 0.999864 7.99997ZM10.9999 2.16697L17.3899 5.99997H4.60986L10.9999 2.16697Z" fill="#CEA45B"/>
<path d="M21.9995 18H-0.000488281V20H21.9995V18Z" fill="#CEA45B"/>
<path fill-rule="evenodd" clip-rule="evenodd" d="M20.9995 9V11H19.9995V15H20.9995V17H0.999512V15H1.99951V11H0.999512V9H20.9995ZM13.9995 11H11.9995V15H13.9995V11ZM7.99951 15H9.99951V11H7.99951V15ZM5.99951 11H3.99951V15H5.99951V11ZM15.9995 15H17.9995V11H15.9995V15Z" fill="#CEA45B"/>
</svg>
