<svg width="24" height="22" viewBox="0 0 24 22" fill="none" xmlns="http://www.w3.org/2000/svg">
<path d="M15.0015 15C14.8495 15 14.6955 14.965 14.5545 14.895C14.2155 14.726 14.0015 14.379 14.0015 14V12H13.0015V10H15.0015C15.5535 10 16.0015 10.448 16.0015 11V12L18.4015 10.2C18.5745 10.07 18.7855 10 19.0015 10C20.6555 10 22.0015 8.654 22.0015 7V5C22.0015 3.346 20.6555 2 19.0015 2H13.0015C11.6645 2 10.4765 2.898 10.1145 4.184L8.18945 3.641C8.79345 1.497 10.7725 0 13.0015 0H19.0015C21.7585 0 24.0015 2.243 24.0015 5V7C24.0015 9.64 21.9455 11.809 19.3515 11.988L15.6015 14.8C15.4245 14.932 15.2135 15 15.0015 15Z" fill="#CEA45B"/>
<path fill-rule="evenodd" clip-rule="evenodd" d="M8.00098 14C5.79498 14 4.00098 12.206 4.00098 10C4.00098 7.795 5.79498 6 8.00098 6C10.207 6 12.001 7.795 12.001 10C12.001 12.206 10.207 14 8.00098 14ZM8.00098 8C6.89798 8 6.00098 8.896 6.00098 10C6.00098 11.103 6.89798 12 8.00098 12C9.10398 12 10.001 11.103 10.001 10C10.001 8.896 9.10398 8 8.00098 8Z" fill="#CEA45B"/>
<path fill-rule="evenodd" clip-rule="evenodd" d="M0.000976562 21V22H16.001V21C16.001 17.467 12.711 15 8.00098 15C3.29098 15 0.000976562 17.467 0.000976562 21ZM13.843 20H2.15998C2.75798 18.192 4.99398 17 8.00198 17C11.01 17 13.245 18.192 13.843 20Z" fill="#CEA45B"/>
</svg>
