<svg width="18" height="20" viewBox="0 0 18 20" fill="none" xmlns="http://www.w3.org/2000/svg">
<path d="M16 0H4C2.897 0 2 0.896 2 2V3H4V2H16L16.001 18H4V16H0V18H2C2 19.103 2.897 20 4 20H16C17.103 20 18 19.103 18 18V2C18 0.896 17.103 0 16 0Z" fill="#CEA45B"/>
<path fill-rule="evenodd" clip-rule="evenodd" d="M10 3.5C12.481 3.5 14.5 5.519 14.5 8C14.5 10.482 12.481 12.5 10 12.5C7.519 12.5 5.5 10.482 5.5 8C5.5 5.519 7.519 3.5 10 3.5ZM11.207 10H8.792C9.087 10.92 9.558 11.5 9.999 11.5C10.44 11.5 10.913 10.92 11.207 10ZM6.663 7C6.567 7.319 6.5 7.65 6.5 8C6.5 8.35 6.567 8.682 6.663 9H7.561C7.523 8.679 7.5 8.347 7.5 8C7.5 7.653 7.523 7.321 7.56 7H6.663ZM8.576 7C8.532 7.316 8.5 7.646 8.5 8C8.5 8.354 8.532 8.684 8.576 9H11.424C11.468 8.684 11.5 8.354 11.5 8C11.5 7.646 11.468 7.316 11.424 7H8.576ZM11.208 6C10.913 5.08 10.44 4.5 10 4.5C9.56 4.5 9.087 5.08 8.793 6H11.208ZM13.337 9C13.433 8.682 13.5 8.35 13.5 8C13.5 7.65 13.433 7.319 13.337 7H12.44C12.478 7.321 12.501 7.653 12.501 8C12.501 8.347 12.478 8.679 12.44 9H13.337ZM12.247 10C12.158 10.337 12.046 10.644 11.916 10.923C12.288 10.679 12.609 10.365 12.864 10H12.247ZM12.247 6H12.864C12.609 5.636 12.288 5.322 11.916 5.077C12.046 5.357 12.158 5.664 12.247 6ZM7.753 6C7.842 5.664 7.954 5.357 8.084 5.077C7.712 5.322 7.391 5.636 7.136 6H7.753ZM7.753 10H7.136C7.391 10.365 7.712 10.679 8.084 10.923C7.954 10.644 7.842 10.336 7.753 10Z" fill="#CEA45B"/>
<path d="M4 9H2V6H0V4H4V9Z" fill="#CEA45B"/>
<path d="M4 15H2V12H0V10H4V15Z" fill="#CEA45B"/>
</svg>
