<svg width="544" height="366" viewBox="0 0 544 366" fill="none" xmlns="http://www.w3.org/2000/svg">
<path d="M134.422 6.31034H140.738V0H134.422V6.31034Z" fill="#F0F4F8"/>
<path d="M143.386 6.31034H149.703V0H143.386V6.31034Z" fill="#F0F4F8"/>
<path d="M152.345 6.31034H158.661V0H152.345V6.31034Z" fill="#F0F4F8"/>
<path d="M188.192 6.31034H194.508V0H188.192V6.31034Z" fill="#F0F4F8"/>
<path d="M125.463 15.7735H131.78V9.46311H125.463V15.7735Z" fill="#F0F4F8"/>
<path d="M134.422 15.7735H140.738V9.46311H134.422V15.7735Z" fill="#F0F4F8"/>
<path d="M143.386 15.7735H149.703V9.46311H143.386V15.7735Z" fill="#F0F4F8"/>
<path d="M152.345 15.7735H158.661V9.46311H152.345V15.7735Z" fill="#F0F4F8"/>
<path d="M170.268 15.7735H176.585V9.46311H170.268V15.7735Z" fill="#F0F4F8"/>
<path d="M188.192 15.7735H194.508V9.46311H188.192V15.7735Z" fill="#F0F4F8"/>
<path d="M116.498 25.2365H122.815V18.9262H116.498V25.2365Z" fill="#F0F4F8"/>
<path d="M125.463 25.2365H131.78V18.9262H125.463V25.2365Z" fill="#F0F4F8"/>
<path d="M134.422 25.2365H140.738V18.9262H134.422V25.2365Z" fill="#F0F4F8"/>
<path d="M143.386 25.2365H149.703V18.9262H143.386V25.2365Z" fill="#F0F4F8"/>
<path d="M152.345 25.2365H158.661V18.9262H152.345V25.2365Z" fill="#F0F4F8"/>
<path d="M161.304 25.2365H167.62V18.9262H161.304V25.2365Z" fill="#F0F4F8"/>
<path d="M170.268 25.2365H176.585V18.9262H170.268V25.2365Z" fill="#F0F4F8"/>
<path d="M179.227 25.2365H185.544V18.9262H179.227V25.2365Z" fill="#F0F4F8"/>
<path d="M188.192 25.2365H194.508V18.9262H188.192V25.2365Z" fill="#F0F4F8"/>
<path d="M107.54 34.7053H113.856V28.395H107.54V34.7053Z" fill="#F0F4F8"/>
<path d="M116.498 34.7053H122.815V28.395H116.498V34.7053Z" fill="#F0F4F8"/>
<path d="M134.422 34.7053H140.738V28.395H134.422V34.7053Z" fill="#F0F4F8"/>
<path d="M143.386 34.7053H149.703V28.395H143.386V34.7053Z" fill="#F0F4F8"/>
<path d="M152.345 34.7053H158.661V28.395H152.345V34.7053Z" fill="#F0F4F8"/>
<path d="M161.304 34.7053H167.62V28.395H161.304V34.7053Z" fill="#F0F4F8"/>
<path d="M170.268 34.7053H176.585V28.395H170.268V34.7053Z" fill="#F0F4F8"/>
<path d="M179.227 34.7053H185.544V28.395H179.227V34.7053Z" fill="#F0F4F8"/>
<path d="M188.192 34.7053H194.508V28.395H188.192V34.7053Z" fill="#F0F4F8"/>
<path d="M116.498 44.1684H122.815V37.858H116.498V44.1684Z" fill="#F0F4F8"/>
<path d="M125.463 44.1684H131.78V37.858H125.463V44.1684Z" fill="#F0F4F8"/>
<path d="M134.422 44.1684H140.738V37.858H134.422V44.1684Z" fill="#F0F4F8"/>
<path d="M161.304 44.1684H167.62V37.858H161.304V44.1684Z" fill="#F0F4F8"/>
<path d="M170.268 44.1684H176.585V37.858H170.268V44.1684Z" fill="#F0F4F8"/>
<path d="M179.227 44.1684H185.544V37.858H179.227V44.1684Z" fill="#F0F4F8"/>
<path d="M188.192 44.1684H194.508V37.858H188.192V44.1684Z" fill="#F0F4F8"/>
<path d="M197.151 6.31034H203.467V0H197.151V6.31034Z" fill="#F0F4F8"/>
<path d="M206.115 6.31034H212.431V0H206.115V6.31034Z" fill="#F0F4F8"/>
<path d="M215.074 6.31034H221.39V0H215.074V6.31034Z" fill="#F0F4F8"/>
<path d="M197.151 15.7735H203.467V9.46311H197.151V15.7735Z" fill="#F0F4F8"/>
<path d="M197.151 25.2365H203.467V18.9262H197.151V25.2365Z" fill="#F0F4F8"/>
<path d="M206.115 25.2365H212.431V18.9262H206.115V25.2365Z" fill="#F0F4F8"/>
<path d="M215.074 25.2365H221.39V18.9262H215.074V25.2365Z" fill="#F0F4F8"/>
<path d="M224.033 25.2365H230.349V18.9262H224.033V25.2365Z" fill="#F0F4F8"/>
<path d="M232.997 25.2365H239.314V18.9262H232.997V25.2365Z" fill="#F0F4F8"/>
<path d="M197.151 34.7053H203.467V28.395H197.151V34.7053Z" fill="#F0F4F8"/>
<path d="M206.115 34.7053H212.431V28.395H206.115V34.7053Z" fill="#F0F4F8"/>
<path d="M215.074 34.7053H221.39V28.395H215.074V34.7053Z" fill="#F0F4F8"/>
<path d="M224.033 34.7053H230.349V28.395H224.033V34.7053Z" fill="#F0F4F8"/>
<path d="M197.151 44.1684H203.467V37.858H197.151V44.1684Z" fill="#F0F4F8"/>
<path d="M206.115 44.1684H212.431V37.858H206.115V44.1684Z" fill="#F0F4F8"/>
<path d="M215.074 44.1684H221.39V37.858H215.074V44.1684Z" fill="#F0F4F8"/>
<path d="M224.033 44.1684H230.349V37.858H224.033V44.1684Z" fill="#F0F4F8"/>
<path d="M98.5753 53.6372H104.892V47.3269H98.5753V53.6372Z" fill="#F0F4F8"/>
<path d="M107.54 53.6372H113.856V47.3269H107.54V53.6372Z" fill="#F0F4F8"/>
<path d="M116.498 53.6372H122.815V47.3269H116.498V53.6372Z" fill="#F0F4F8"/>
<path d="M125.463 53.6372H131.78V47.3269H125.463V53.6372Z" fill="#F0F4F8"/>
<path d="M134.422 53.6372H140.738V47.3269H134.422V53.6372Z" fill="#F0F4F8"/>
<path d="M71.6932 63.1003H78.0096V56.7899H71.6932V63.1003Z" fill="#F0F4F8"/>
<path d="M107.54 63.1003H113.856V56.7899H107.54V63.1003Z" fill="#F0F4F8"/>
<path d="M125.463 63.1003H131.78V56.7899H125.463V63.1003Z" fill="#F0F4F8"/>
<path d="M134.422 63.1003H140.738V56.7899H134.422V63.1003Z" fill="#F0F4F8"/>
<path d="M80.6518 72.5691H86.9682V66.2587H80.6518V72.5691Z" fill="#F0F4F8"/>
<path d="M89.6166 72.5691H95.933V66.2587H89.6166V72.5691Z" fill="#F0F4F8"/>
<path d="M98.5753 72.5691H104.892V66.2587H98.5753V72.5691Z" fill="#F0F4F8"/>
<path d="M116.498 72.5691H122.815V66.2587H116.498V72.5691Z" fill="#F0F4F8"/>
<path d="M125.463 72.5691H131.78V66.2587H125.463V72.5691Z" fill="#F0F4F8"/>
<path d="M71.6932 82.0322H78.0096V75.7218H71.6932V82.0322Z" fill="#F0F4F8"/>
<path d="M143.386 53.6372H149.703V47.3269H143.386V53.6372Z" fill="#F0F4F8"/>
<path d="M152.345 53.6372H158.661V47.3269H152.345V53.6372Z" fill="#F0F4F8"/>
<path d="M161.304 53.6372H167.62V47.3269H161.304V53.6372Z" fill="#F0F4F8"/>
<path d="M170.268 53.6372H176.585V47.3269H170.268V53.6372Z" fill="#F0F4F8"/>
<path d="M179.227 53.6372H185.544V47.3269H179.227V53.6372Z" fill="#F0F4F8"/>
<path d="M188.192 53.6372H194.508V47.3269H188.192V53.6372Z" fill="#F0F4F8"/>
<path d="M197.151 53.6372H203.467V47.3269H197.151V53.6372Z" fill="#F0F4F8"/>
<path d="M206.115 53.6372H212.431V47.3269H206.115V53.6372Z" fill="#F0F4F8"/>
<path d="M215.074 53.6372H221.39V47.3269H215.074V53.6372Z" fill="#F0F4F8"/>
<path d="M152.345 63.1003H158.661V56.7899H152.345V63.1003Z" fill="#F0F4F8"/>
<path d="M161.304 63.1003H167.62V56.7899H161.304V63.1003Z" fill="#F0F4F8"/>
<path d="M170.268 63.1003H176.585V56.7899H170.268V63.1003Z" fill="#F0F4F8"/>
<path d="M179.227 63.1003H185.544V56.7899H179.227V63.1003Z" fill="#F0F4F8"/>
<path d="M188.192 63.1003H194.508V56.7899H188.192V63.1003Z" fill="#F0F4F8"/>
<path d="M197.151 63.1003H203.467V56.7899H197.151V63.1003Z" fill="#F0F4F8"/>
<path d="M206.115 63.1003H212.431V56.7899H206.115V63.1003Z" fill="#F0F4F8"/>
<path d="M215.074 63.1003H221.39V56.7899H215.074V63.1003Z" fill="#F0F4F8"/>
<path d="M224.033 63.1003H230.349V56.7899H224.033V63.1003Z" fill="#F0F4F8"/>
<path d="M170.268 72.5691H176.585V66.2587H170.268V72.5691Z" fill="#F0F4F8"/>
<path d="M179.227 72.5691H185.544V66.2587H179.227V72.5691Z" fill="#F0F4F8"/>
<path d="M188.192 72.5691H194.508V66.2587H188.192V72.5691Z" fill="#F0F4F8"/>
<path d="M197.151 72.5691H203.467V66.2587H197.151V72.5691Z" fill="#F0F4F8"/>
<path d="M206.115 72.5691H212.431V66.2587H206.115V72.5691Z" fill="#F0F4F8"/>
<path d="M215.074 72.5691H221.39V66.2587H215.074V72.5691Z" fill="#F0F4F8"/>
<path d="M170.268 82.0322H176.585V75.7218H170.268V82.0322Z" fill="#F0F4F8"/>
<path d="M179.227 82.0322H185.544V75.7218H179.227V82.0322Z" fill="#F0F4F8"/>
<path d="M188.192 82.0322H194.508V75.7218H188.192V82.0322Z" fill="#F0F4F8"/>
<path d="M197.151 82.0322H203.467V75.7218H197.151V82.0322Z" fill="#F0F4F8"/>
<path d="M206.115 82.0322H212.431V75.7218H206.115V82.0322Z" fill="#F0F4F8"/>
<path d="M215.074 82.0322H221.39V75.7218H215.074V82.0322Z" fill="#F0F4F8"/>
<path d="M62.7345 91.4952H69.0509V85.1849H62.7345V91.4952Z" fill="#F0F4F8"/>
<path d="M80.6518 91.4952H86.9682V85.1849H80.6518V91.4952Z" fill="#F0F4F8"/>
<path d="M89.6166 91.4952H95.933V85.1849H89.6166V91.4952Z" fill="#F0F4F8"/>
<path d="M98.5753 91.4952H104.892V85.1849H98.5753V91.4952Z" fill="#F0F4F8"/>
<path d="M107.54 91.4952H113.856V85.1849H107.54V91.4952Z" fill="#F0F4F8"/>
<path d="M116.498 91.4952H122.815V85.1849H116.498V91.4952Z" fill="#F0F4F8"/>
<path d="M125.463 91.4952H131.78V85.1849H125.463V91.4952Z" fill="#F0F4F8"/>
<path d="M134.422 91.4952H140.738V85.1849H134.422V91.4952Z" fill="#F0F4F8"/>
<path d="M8.96444 100.964H15.2808V94.6537H8.96444V100.964Z" fill="#F0F4F8"/>
<path d="M17.9235 100.964H24.2399V94.6537H17.9235V100.964Z" fill="#F0F4F8"/>
<path d="M80.6518 100.964H86.9682V94.6537H80.6518V100.964Z" fill="#F0F4F8"/>
<path d="M89.6166 100.964H95.933V94.6537H89.6166V100.964Z" fill="#F0F4F8"/>
<path d="M107.54 100.964H113.856V94.6537H107.54V100.964Z" fill="#F0F4F8"/>
<path d="M125.463 100.964H131.78V94.6537H125.463V100.964Z" fill="#F0F4F8"/>
<path d="M134.422 100.964H140.738V94.6537H134.422V100.964Z" fill="#F0F4F8"/>
<path d="M143.386 100.964H149.703V94.6537H143.386V100.964Z" fill="#F0F4F8"/>
<path d="M0 110.427H6.3164V104.117H0V110.427Z" fill="#F0F4F8"/>
<path d="M8.96444 110.427H15.2808V104.117H8.96444V110.427Z" fill="#F0F4F8"/>
<path d="M17.9235 110.427H24.2399V104.117H17.9235V110.427Z" fill="#F0F4F8"/>
<path d="M26.8879 110.427H33.2043V104.117H26.8879V110.427Z" fill="#F0F4F8"/>
<path d="M35.8466 110.427H42.163V104.117H35.8466V110.427Z" fill="#F0F4F8"/>
<path d="M44.811 110.427H51.1274V104.117H44.811V110.427Z" fill="#F0F4F8"/>
<path d="M53.7697 110.427H60.0861V104.117H53.7697V110.427Z" fill="#F0F4F8"/>
<path d="M62.7345 110.427H69.0509V104.117H62.7345V110.427Z" fill="#F0F4F8"/>
<path d="M71.6932 110.427H78.0096V104.117H71.6932V110.427Z" fill="#F0F4F8"/>
<path d="M89.6166 110.427H95.933V104.117H89.6166V110.427Z" fill="#F0F4F8"/>
<path d="M116.498 110.427H122.815V104.117H116.498V110.427Z" fill="#F0F4F8"/>
<path d="M125.463 110.427H131.78V104.117H125.463V110.427Z" fill="#F0F4F8"/>
<path d="M143.386 110.427H149.703V104.117H143.386V110.427Z" fill="#F0F4F8"/>
<path d="M0 119.896H6.3164V113.586H0V119.896Z" fill="#F0F4F8"/>
<path d="M8.96444 119.896H15.2808V113.586H8.96444V119.896Z" fill="#F0F4F8"/>
<path d="M17.9235 119.896H24.2399V113.586H17.9235V119.896Z" fill="#F0F4F8"/>
<path d="M26.8879 119.896H33.2043V113.586H26.8879V119.896Z" fill="#F0F4F8"/>
<path d="M35.8466 119.896H42.163V113.586H35.8466V119.896Z" fill="#F0F4F8"/>
<path d="M44.811 119.896H51.1274V113.586H44.811V119.896Z" fill="#F0F4F8"/>
<path d="M53.7697 119.896H60.0861V113.586H53.7697V119.896Z" fill="#F0F4F8"/>
<path d="M62.7345 119.896H69.0509V113.586H62.7345V119.896Z" fill="#F0F4F8"/>
<path d="M71.6932 119.896H78.0096V113.586H71.6932V119.896Z" fill="#F0F4F8"/>
<path d="M80.6518 119.896H86.9682V113.586H80.6518V119.896Z" fill="#F0F4F8"/>
<path d="M89.6166 119.896H95.933V113.586H89.6166V119.896Z" fill="#F0F4F8"/>
<path d="M98.5753 119.896H104.892V113.586H98.5753V119.896Z" fill="#F0F4F8"/>
<path d="M107.54 119.896H113.856V113.586H107.54V119.896Z" fill="#F0F4F8"/>
<path d="M116.498 119.896H122.815V113.586H116.498V119.896Z" fill="#F0F4F8"/>
<path d="M143.386 119.896H149.703V113.586H143.386V119.896Z" fill="#F0F4F8"/>
<path d="M152.345 119.896H158.661V113.586H152.345V119.896Z" fill="#F0F4F8"/>
<path d="M170.268 91.4952H176.585V85.1849H170.268V91.4952Z" fill="#F0F4F8"/>
<path d="M179.227 91.4952H185.543V85.1849H179.227V91.4952Z" fill="#F0F4F8"/>
<path d="M188.192 91.4952H194.508V85.1849H188.192V91.4952Z" fill="#F0F4F8"/>
<path d="M197.151 91.4952H203.467V85.1849H197.151V91.4952Z" fill="#F0F4F8"/>
<path d="M206.115 91.4952H212.431V85.1849H206.115V91.4952Z" fill="#F0F4F8"/>
<path d="M215.074 91.4952H221.39V85.1849H215.074V91.4952Z" fill="#F0F4F8"/>
<path d="M170.268 100.964H176.585V94.6537H170.268V100.964Z" fill="#F0F4F8"/>
<path d="M179.227 100.964H185.543V94.6537H179.227V100.964Z" fill="#F0F4F8"/>
<path d="M188.192 100.964H194.508V94.6537H188.192V100.964Z" fill="#F0F4F8"/>
<path d="M197.151 100.964H203.467V94.6537H197.151V100.964Z" fill="#F0F4F8"/>
<path d="M206.115 100.964H212.431V94.6537H206.115V100.964Z" fill="#F0F4F8"/>
<path d="M179.227 110.427H185.543V104.117H179.227V110.427Z" fill="#F0F4F8"/>
<path d="M188.192 110.427H194.508V104.117H188.192V110.427Z" fill="#F0F4F8"/>
<path d="M197.151 110.427H203.467V104.117H197.151V110.427Z" fill="#F0F4F8"/>
<path d="M206.115 110.427H212.431V104.117H206.115V110.427Z" fill="#F0F4F8"/>
<path d="M179.227 119.896H185.543V113.586H179.227V119.896Z" fill="#F0F4F8"/>
<path d="M188.192 119.896H194.508V113.586H188.192V119.896Z" fill="#F0F4F8"/>
<path d="M197.151 119.896H203.467V113.586H197.151V119.896Z" fill="#F0F4F8"/>
<path d="M224.033 119.896H230.349V113.586H224.033V119.896Z" fill="#F0F4F8"/>
<path d="M179.227 129.359H185.543V123.049H179.227V129.359Z" fill="#F0F4F8"/>
<path d="M188.192 129.359H194.508V123.049H188.192V129.359Z" fill="#F0F4F8"/>
<path d="M224.033 129.359H230.349V123.049H224.033V129.359Z" fill="#F0F4F8"/>
<path d="M8.96444 129.359H15.2808V123.049H8.96444V129.359Z" fill="#F0F4F8"/>
<path d="M17.9235 129.359H24.2399V123.049H17.9235V129.359Z" fill="#F0F4F8"/>
<path d="M26.8879 129.359H33.2043V123.049H26.8879V129.359Z" fill="#F0F4F8"/>
<path d="M35.8466 129.359H42.163V123.049H35.8466V129.359Z" fill="#F0F4F8"/>
<path d="M44.811 129.359H51.1274V123.049H44.811V129.359Z" fill="#F0F4F8"/>
<path d="M53.7697 129.359H60.0861V123.049H53.7697V129.359Z" fill="#F0F4F8"/>
<path d="M62.7345 129.359H69.0509V123.049H62.7345V129.359Z" fill="#F0F4F8"/>
<path d="M71.6932 129.359H78.0096V123.049H71.6932V129.359Z" fill="#F0F4F8"/>
<path d="M80.6518 129.359H86.9682V123.049H80.6518V129.359Z" fill="#F0F4F8"/>
<path d="M89.6166 129.359H95.933V123.049H89.6166V129.359Z" fill="#F0F4F8"/>
<path d="M98.5753 129.359H104.892V123.049H98.5753V129.359Z" fill="#F0F4F8"/>
<path d="M107.54 129.359H113.856V123.049H107.54V129.359Z" fill="#F0F4F8"/>
<path d="M125.463 129.359H131.78V123.049H125.463V129.359Z" fill="#F0F4F8"/>
<path d="M152.345 129.359H158.661V123.049H152.345V129.359Z" fill="#F0F4F8"/>
<path d="M8.96444 138.828H15.2808V132.517H8.96444V138.828Z" fill="#F0F4F8"/>
<path d="M17.9235 138.828H24.2399V132.517H17.9235V138.828Z" fill="#F0F4F8"/>
<path d="M26.8879 138.828H33.2043V132.517H26.8879V138.828Z" fill="#F0F4F8"/>
<path d="M35.8466 138.828H42.163V132.517H35.8466V138.828Z" fill="#F0F4F8"/>
<path d="M44.811 138.828H51.1274V132.517H44.811V138.828Z" fill="#F0F4F8"/>
<path d="M53.7697 138.828H60.0861V132.517H53.7697V138.828Z" fill="#F0F4F8"/>
<path d="M62.7345 138.828H69.0509V132.517H62.7345V138.828Z" fill="#F0F4F8"/>
<path d="M71.6932 138.828H78.0096V132.517H71.6932V138.828Z" fill="#F0F4F8"/>
<path d="M80.6518 138.828H86.9682V132.517H80.6518V138.828Z" fill="#F0F4F8"/>
<path d="M89.6166 138.828H95.933V132.517H89.6166V138.828Z" fill="#F0F4F8"/>
<path d="M98.5753 138.828H104.892V132.517H98.5753V138.828Z" fill="#F0F4F8"/>
<path d="M107.54 138.828H113.856V132.517H107.54V138.828Z" fill="#F0F4F8"/>
<path d="M143.386 138.828H149.703V132.517H143.386V138.828Z" fill="#F0F4F8"/>
<path d="M53.7697 148.291H60.0861V141.981H53.7697V148.291Z" fill="#F0F4F8"/>
<path d="M62.7345 148.291H69.0509V141.981H62.7345V148.291Z" fill="#F0F4F8"/>
<path d="M71.6932 148.291H78.0096V141.981H71.6932V148.291Z" fill="#F0F4F8"/>
<path d="M80.6518 148.291H86.9682V141.981H80.6518V148.291Z" fill="#F0F4F8"/>
<path d="M89.6166 148.291H95.933V141.981H89.6166V148.291Z" fill="#F0F4F8"/>
<path d="M98.5753 148.291H104.892V141.981H98.5753V148.291Z" fill="#F0F4F8"/>
<path d="M107.54 148.291H113.856V141.981H107.54V148.291Z" fill="#F0F4F8"/>
<path d="M143.386 148.291H149.703V141.981H143.386V148.291Z" fill="#F0F4F8"/>
<path d="M152.345 148.291H158.661V141.981H152.345V148.291Z" fill="#F0F4F8"/>
<path d="M62.7345 157.754H69.0509V151.444H62.7345V157.754Z" fill="#F0F4F8"/>
<path d="M71.6932 157.754H78.0096V151.444H71.6932V157.754Z" fill="#F0F4F8"/>
<path d="M80.6518 157.754H86.9682V151.444H80.6518V157.754Z" fill="#F0F4F8"/>
<path d="M89.6166 157.754H95.933V151.444H89.6166V157.754Z" fill="#F0F4F8"/>
<path d="M98.5753 157.754H104.892V151.444H98.5753V157.754Z" fill="#F0F4F8"/>
<path d="M107.54 157.754H113.856V151.444H107.54V157.754Z" fill="#F0F4F8"/>
<path d="M116.498 157.754H122.815V151.444H116.498V157.754Z" fill="#F0F4F8"/>
<path d="M125.463 157.754H131.78V151.444H125.463V157.754Z" fill="#F0F4F8"/>
<path d="M134.422 157.754H140.738V151.444H134.422V157.754Z" fill="#F0F4F8"/>
<path d="M143.386 157.754H149.703V151.444H143.386V157.754Z" fill="#F0F4F8"/>
<path d="M152.345 157.754H158.661V151.444H152.345V157.754Z" fill="#F0F4F8"/>
<path d="M161.304 157.754H167.62V151.444H161.304V157.754Z" fill="#F0F4F8"/>
<path d="M62.7345 167.223H69.0509V160.912H62.7345V167.223Z" fill="#F0F4F8"/>
<path d="M71.6932 167.223H78.0096V160.912H71.6932V167.223Z" fill="#F0F4F8"/>
<path d="M80.6518 167.223H86.9682V160.912H80.6518V167.223Z" fill="#F0F4F8"/>
<path d="M89.6166 167.223H95.933V160.912H89.6166V167.223Z" fill="#F0F4F8"/>
<path d="M98.5753 167.223H104.892V160.912H98.5753V167.223Z" fill="#F0F4F8"/>
<path d="M107.54 167.223H113.856V160.912H107.54V167.223Z" fill="#F0F4F8"/>
<path d="M116.498 167.223H122.815V160.912H116.498V167.223Z" fill="#F0F4F8"/>
<path d="M125.463 167.223H131.78V160.912H125.463V167.223Z" fill="#F0F4F8"/>
<path d="M134.422 167.223H140.738V160.912H134.422V167.223Z" fill="#F0F4F8"/>
<path d="M143.386 167.223H149.703V160.912H143.386V167.223Z" fill="#F0F4F8"/>
<path d="M152.345 167.223H158.661V160.912H152.345V167.223Z" fill="#F0F4F8"/>
<path d="M161.304 167.223H167.62V160.912H161.304V167.223Z" fill="#F0F4F8"/>
<path d="M71.6932 176.686H78.0096V170.376H71.6932V176.686Z" fill="#F0F4F8"/>
<path d="M80.6518 176.686H86.9682V170.376H80.6518V176.686Z" fill="#F0F4F8"/>
<path d="M89.6166 176.686H95.933V170.376H89.6166V176.686Z" fill="#F0F4F8"/>
<path d="M98.5753 176.686H104.892V170.376H98.5753V176.686Z" fill="#F0F4F8"/>
<path d="M107.54 176.686H113.856V170.376H107.54V176.686Z" fill="#F0F4F8"/>
<path d="M125.463 176.686H131.78V170.376H125.463V176.686Z" fill="#F0F4F8"/>
<path d="M134.422 176.686H140.738V170.376H134.422V176.686Z" fill="#F0F4F8"/>
<path d="M143.386 176.686H149.703V170.376H143.386V176.686Z" fill="#F0F4F8"/>
<path d="M152.345 176.686H158.661V170.376H152.345V176.686Z" fill="#F0F4F8"/>
<path d="M89.6166 186.155H95.933V179.844H89.6166V186.155Z" fill="#F0F4F8"/>
<path d="M98.5753 186.155H104.892V179.844H98.5753V186.155Z" fill="#F0F4F8"/>
<path d="M107.54 186.155H113.856V179.844H107.54V186.155Z" fill="#F0F4F8"/>
<path d="M116.498 186.155H122.815V179.844H116.498V186.155Z" fill="#F0F4F8"/>
<path d="M125.463 186.155H131.78V179.844H125.463V186.155Z" fill="#F0F4F8"/>
<path d="M134.422 186.155H140.738V179.844H134.422V186.155Z" fill="#F0F4F8"/>
<path d="M143.386 186.155H149.703V179.844H143.386V186.155Z" fill="#F0F4F8"/>
<path d="M89.6166 195.618H95.933V189.307H89.6166V195.618Z" fill="#F0F4F8"/>
<path d="M98.5753 195.618H104.892V189.307H98.5753V195.618Z" fill="#F0F4F8"/>
<path d="M107.54 195.618H113.856V189.307H107.54V195.618Z" fill="#F0F4F8"/>
<path d="M116.498 195.618H122.815V189.307H116.498V195.618Z" fill="#F0F4F8"/>
<path d="M125.463 195.618H131.78V189.307H125.463V195.618Z" fill="#F0F4F8"/>
<path d="M134.422 195.618H140.738V189.307H134.422V195.618Z" fill="#F0F4F8"/>
<path d="M80.6518 205.087H86.9682V198.776H80.6518V205.087Z" fill="#F0F4F8"/>
<path d="M89.6166 205.087H95.933V198.776H89.6166V205.087Z" fill="#F0F4F8"/>
<path d="M98.5753 205.087H104.892V198.776H98.5753V205.087Z" fill="#F0F4F8"/>
<path d="M107.54 205.087H113.856V198.776H107.54V205.087Z" fill="#F0F4F8"/>
<path d="M116.498 205.087H122.815V198.776H116.498V205.087Z" fill="#F0F4F8"/>
<path d="M125.463 205.087H131.78V198.776H125.463V205.087Z" fill="#F0F4F8"/>
<path d="M80.6518 214.55H86.9682V208.239H80.6518V214.55Z" fill="#F0F4F8"/>
<path d="M89.6166 214.55H95.933V208.239H89.6166V214.55Z" fill="#F0F4F8"/>
<path d="M98.5753 214.55H104.892V208.239H98.5753V214.55Z" fill="#F0F4F8"/>
<path d="M107.54 214.55H113.856V208.239H107.54V214.55Z" fill="#F0F4F8"/>
<path d="M107.54 233.482H113.856V227.171H107.54V233.482Z" fill="#F0F4F8"/>
<path d="M116.498 233.482H122.815V227.171H116.498V233.482Z" fill="#F0F4F8"/>
<path d="M125.463 242.945H131.78V236.634H125.463V242.945Z" fill="#F0F4F8"/>
<path d="M98.5753 224.013H104.892V217.702H98.5753V224.013Z" fill="#F0F4F8"/>
<path d="M71.6932 186.155H78.0096V179.844H71.6932V186.155Z" fill="#F0F4F8"/>
<path d="M71.6932 195.618H78.0096V189.307H71.6932V195.618Z" fill="#F0F4F8"/>
<path d="M80.6518 195.618H86.9682V189.307H80.6518V195.618Z" fill="#F0F4F8"/>
<path d="M80.6518 186.155H86.9682V179.844H80.6518V186.155Z" fill="#F0F4F8"/>
<path d="M98.5753 233.482H104.892V227.171H98.5753V233.482Z" fill="#F0F4F8"/>
<path d="M158.661 328.135H152.345V321.825H158.661V328.135Z" fill="#F0F4F8"/>
<path d="M167.621 328.135H161.304V321.825H167.621V328.135Z" fill="#F0F4F8"/>
<path d="M143.386 337.604H149.703V331.294H143.386V337.604Z" fill="#F0F4F8"/>
<path d="M158.661 337.604H152.345V331.294H158.661V337.604Z" fill="#F0F4F8"/>
<path d="M143.386 356.53H149.703V350.22H143.386V356.53Z" fill="#F0F4F8"/>
<path d="M149.703 365.999H143.386V359.689H149.703V365.999Z" fill="#F0F4F8"/>
<path d="M143.386 347.067H149.703V340.757H143.386V347.067Z" fill="#F0F4F8"/>
<path d="M149.703 328.135H143.386V321.825H149.703V328.135Z" fill="#F0F4F8"/>
<path d="M143.386 242.945H149.703V236.634H143.386V242.945Z" fill="#F0F4F8"/>
<path d="M143.386 252.413H149.703V246.103H143.386V252.413Z" fill="#F0F4F8"/>
<path d="M152.345 252.413H158.661V246.103H152.345V252.413Z" fill="#F0F4F8"/>
<path d="M161.304 252.413H167.62V246.103H161.304V252.413Z" fill="#F0F4F8"/>
<path d="M134.422 261.876H140.738V255.566H134.422V261.876Z" fill="#F0F4F8"/>
<path d="M143.386 261.876H149.703V255.566H143.386V261.876Z" fill="#F0F4F8"/>
<path d="M152.345 261.876H158.661V255.566H152.345V261.876Z" fill="#F0F4F8"/>
<path d="M161.304 261.876H167.62V255.566H161.304V261.876Z" fill="#F0F4F8"/>
<path d="M170.268 261.876H176.585V255.566H170.268V261.876Z" fill="#F0F4F8"/>
<path d="M134.422 271.345H140.738V265.035H134.422V271.345Z" fill="#F0F4F8"/>
<path d="M143.386 271.345H149.703V265.035H143.386V271.345Z" fill="#F0F4F8"/>
<path d="M152.345 271.345H158.661V265.035H152.345V271.345Z" fill="#F0F4F8"/>
<path d="M161.304 271.345H167.62V265.035H161.304V271.345Z" fill="#F0F4F8"/>
<path d="M170.268 271.345H176.585V265.035H170.268V271.345Z" fill="#F0F4F8"/>
<path d="M179.227 271.345H185.544V265.035H179.227V271.345Z" fill="#F0F4F8"/>
<path d="M188.192 271.345H194.508V265.035H188.192V271.345Z" fill="#F0F4F8"/>
<path d="M197.151 271.345H203.467V265.035H197.151V271.345Z" fill="#F0F4F8"/>
<path d="M143.386 280.808H149.703V274.498H143.386V280.808Z" fill="#F0F4F8"/>
<path d="M152.345 280.808H158.661V274.498H152.345V280.808Z" fill="#F0F4F8"/>
<path d="M161.304 280.808H167.62V274.498H161.304V280.808Z" fill="#F0F4F8"/>
<path d="M170.268 280.808H176.585V274.498H170.268V280.808Z" fill="#F0F4F8"/>
<path d="M179.227 280.808H185.544V274.498H179.227V280.808Z" fill="#F0F4F8"/>
<path d="M188.192 280.808H194.508V274.498H188.192V280.808Z" fill="#F0F4F8"/>
<path d="M152.345 290.271H158.661V283.961H152.345V290.271Z" fill="#F0F4F8"/>
<path d="M161.304 290.271H167.62V283.961H161.304V290.271Z" fill="#F0F4F8"/>
<path d="M170.268 290.271H176.585V283.961H170.268V290.271Z" fill="#F0F4F8"/>
<path d="M179.227 290.271H185.544V283.961H179.227V290.271Z" fill="#F0F4F8"/>
<path d="M188.192 290.271H194.508V283.961H188.192V290.271Z" fill="#F0F4F8"/>
<path d="M161.304 299.74H167.62V293.43H161.304V299.74Z" fill="#F0F4F8"/>
<path d="M170.268 299.74H176.585V293.43H170.268V299.74Z" fill="#F0F4F8"/>
<path d="M179.227 299.74H185.544V293.43H179.227V299.74Z" fill="#F0F4F8"/>
<path d="M188.192 299.74H194.508V293.43H188.192V299.74Z" fill="#F0F4F8"/>
<path d="M161.304 309.203H167.62V302.893H161.304V309.203Z" fill="#F0F4F8"/>
<path d="M170.268 309.203H176.585V302.893H170.268V309.203Z" fill="#F0F4F8"/>
<path d="M179.227 309.203H185.544V302.893H179.227V309.203Z" fill="#F0F4F8"/>
<path d="M161.304 318.672H167.62V312.362H161.304V318.672Z" fill="#F0F4F8"/>
<path d="M170.268 318.672H176.585V312.362H170.268V318.672Z" fill="#F0F4F8"/>
<path d="M152.345 318.672H158.661V312.362H152.345V318.672Z" fill="#F0F4F8"/>
<path d="M152.345 309.203H158.661V302.893H152.345V309.203Z" fill="#F0F4F8"/>
<path d="M152.345 299.74H158.661V293.43H152.345V299.74Z" fill="#F0F4F8"/>
<path d="M241.956 205.087H248.272V198.776H241.956V205.087Z" fill="#F0F4F8"/>
<path d="M232.997 224.013H239.314V217.702H232.997V224.013Z" fill="#F0F4F8"/>
<path d="M232.997 233.482H239.314V227.171H232.997V233.482Z" fill="#F0F4F8"/>
<path d="M232.997 242.945H239.314V236.634H232.997V242.945Z" fill="#F0F4F8"/>
<path d="M241.956 186.155H248.272V179.844H241.956V186.155Z" fill="#F0F4F8"/>
<path d="M241.956 195.618H248.272V189.307H241.956V195.618Z" fill="#F0F4F8"/>
<path d="M394.301 34.7053H400.617V28.395H394.301V34.7053Z" fill="#F0F4F8"/>
<path d="M403.26 34.7053H409.576V28.395H403.26V34.7053Z" fill="#F0F4F8"/>
<path d="M403.26 44.1684H409.576V37.858H403.26V44.1684Z" fill="#F0F4F8"/>
<path d="M286.767 34.7053H293.083V28.395H286.767V34.7053Z" fill="#F0F4F8"/>
<path d="M277.802 44.1684H284.119V37.858H277.802V44.1684Z" fill="#F0F4F8"/>
<path d="M277.802 53.6372H284.119V47.3269H277.802V53.6372Z" fill="#F0F4F8"/>
<path d="M286.767 53.6372H293.083V47.3269H286.767V53.6372Z" fill="#F0F4F8"/>
<path d="M277.802 63.1003H284.119V56.7899H277.802V63.1003Z" fill="#F0F4F8"/>
<path d="M412.224 63.1003H418.541V56.7899H412.224V63.1003Z" fill="#F0F4F8"/>
<path d="M349.496 72.5691H355.812V66.2587H349.496V72.5691Z" fill="#F0F4F8"/>
<path d="M394.301 72.5691H400.617V66.2587H394.301V72.5691Z" fill="#F0F4F8"/>
<path d="M403.26 72.5691H409.576V66.2587H403.26V72.5691Z" fill="#F0F4F8"/>
<path d="M412.224 72.5691H418.541V66.2587H412.224V72.5691Z" fill="#F0F4F8"/>
<path d="M421.183 72.5691H427.499V66.2587H421.183V72.5691Z" fill="#F0F4F8"/>
<path d="M465.988 72.5691H472.305V66.2587H465.988V72.5691Z" fill="#F0F4F8"/>
<path d="M340.531 82.0322H346.848V75.7218H340.531V82.0322Z" fill="#F0F4F8"/>
<path d="M385.336 82.0322H391.653V75.7218H385.336V82.0322Z" fill="#F0F4F8"/>
<path d="M394.301 82.0322H400.617V75.7218H394.301V82.0322Z" fill="#F0F4F8"/>
<path d="M403.26 82.0322H409.576V75.7218H403.26V82.0322Z" fill="#F0F4F8"/>
<path d="M412.224 82.0322H418.541V75.7218H412.224V82.0322Z" fill="#F0F4F8"/>
<path d="M421.183 82.0322H427.499V75.7218H421.183V82.0322Z" fill="#F0F4F8"/>
<path d="M358.454 91.4952H364.771V85.1849H358.454V91.4952Z" fill="#F0F4F8"/>
<path d="M367.419 91.4952H373.735V85.1849H367.419V91.4952Z" fill="#F0F4F8"/>
<path d="M376.378 91.4952H382.694V85.1849H376.378V91.4952Z" fill="#F0F4F8"/>
<path d="M385.336 91.4952H391.653V85.1849H385.336V91.4952Z" fill="#F0F4F8"/>
<path d="M394.301 91.4952H400.617V85.1849H394.301V91.4952Z" fill="#F0F4F8"/>
<path d="M403.26 91.4952H409.576V85.1849H403.26V91.4952Z" fill="#F0F4F8"/>
<path d="M412.224 91.4952H418.541V85.1849H412.224V91.4952Z" fill="#F0F4F8"/>
<path d="M421.183 91.4952H427.499V85.1849H421.183V91.4952Z" fill="#F0F4F8"/>
<path d="M430.147 91.4952H436.464V85.1849H430.147V91.4952Z" fill="#F0F4F8"/>
<path d="M439.106 91.4952H445.423V85.1849H439.106V91.4952Z" fill="#F0F4F8"/>
<path d="M448.071 91.4952H454.387V85.1849H448.071V91.4952Z" fill="#F0F4F8"/>
<path d="M465.988 91.4952H472.305V85.1849H465.988V91.4952Z" fill="#F0F4F8"/>
<path d="M474.953 91.4952H481.269V85.1849H474.953V91.4952Z" fill="#F0F4F8"/>
<path d="M295.726 100.964H302.042V94.6537H295.726V100.964Z" fill="#F0F4F8"/>
<path d="M358.454 100.964H364.771V94.6537H358.454V100.964Z" fill="#F0F4F8"/>
<path d="M367.419 100.964H373.735V94.6537H367.419V100.964Z" fill="#F0F4F8"/>
<path d="M376.378 100.964H382.694V94.6537H376.378V100.964Z" fill="#F0F4F8"/>
<path d="M385.336 100.964H391.653V94.6537H385.336V100.964Z" fill="#F0F4F8"/>
<path d="M394.301 100.964H400.617V94.6537H394.301V100.964Z" fill="#F0F4F8"/>
<path d="M403.26 100.964H409.576V94.6537H403.26V100.964Z" fill="#F0F4F8"/>
<path d="M412.224 100.964H418.541V94.6537H412.224V100.964Z" fill="#F0F4F8"/>
<path d="M421.183 100.964H427.499V94.6537H421.183V100.964Z" fill="#F0F4F8"/>
<path d="M430.147 100.964H436.464V94.6537H430.147V100.964Z" fill="#F0F4F8"/>
<path d="M439.106 100.964H445.423V94.6537H439.106V100.964Z" fill="#F0F4F8"/>
<path d="M448.071 100.964H454.387V94.6537H448.071V100.964Z" fill="#F0F4F8"/>
<path d="M457.029 100.964H463.346V94.6537H457.029V100.964Z" fill="#F0F4F8"/>
<path d="M465.988 100.964H472.305V94.6537H465.988V100.964Z" fill="#F0F4F8"/>
<path d="M474.953 100.964H481.269V94.6537H474.953V100.964Z" fill="#F0F4F8"/>
<path d="M483.912 100.964H490.228V94.6537H483.912V100.964Z" fill="#F0F4F8"/>
<path d="M492.876 100.964H499.193V94.6537H492.876V100.964Z" fill="#F0F4F8"/>
<path d="M277.802 110.427H284.119V104.117H277.802V110.427Z" fill="#F0F4F8"/>
<path d="M286.767 110.427H293.083V104.117H286.767V110.427Z" fill="#F0F4F8"/>
<path d="M295.726 110.427H302.042V104.117H295.726V110.427Z" fill="#F0F4F8"/>
<path d="M304.685 110.427H311.001V104.117H304.685V110.427Z" fill="#F0F4F8"/>
<path d="M340.531 110.427H346.848V104.117H340.531V110.427Z" fill="#F0F4F8"/>
<path d="M349.496 110.427H355.812V104.117H349.496V110.427Z" fill="#F0F4F8"/>
<path d="M358.454 110.427H364.771V104.117H358.454V110.427Z" fill="#F0F4F8"/>
<path d="M367.419 110.427H373.735V104.117H367.419V110.427Z" fill="#F0F4F8"/>
<path d="M376.378 110.427H382.694V104.117H376.378V110.427Z" fill="#F0F4F8"/>
<path d="M385.336 110.427H391.653V104.117H385.336V110.427Z" fill="#F0F4F8"/>
<path d="M394.301 110.427H400.617V104.117H394.301V110.427Z" fill="#F0F4F8"/>
<path d="M403.26 110.427H409.576V104.117H403.26V110.427Z" fill="#F0F4F8"/>
<path d="M412.224 110.427H418.541V104.117H412.224V110.427Z" fill="#F0F4F8"/>
<path d="M421.183 110.427H427.499V104.117H421.183V110.427Z" fill="#F0F4F8"/>
<path d="M430.147 110.427H436.464V104.117H430.147V110.427Z" fill="#F0F4F8"/>
<path d="M439.106 110.427H445.423V104.117H439.106V110.427Z" fill="#F0F4F8"/>
<path d="M448.071 110.427H454.387V104.117H448.071V110.427Z" fill="#F0F4F8"/>
<path d="M457.029 110.427H463.346V104.117H457.029V110.427Z" fill="#F0F4F8"/>
<path d="M465.988 110.427H472.305V104.117H465.988V110.427Z" fill="#F0F4F8"/>
<path d="M474.953 110.427H481.269V104.117H474.953V110.427Z" fill="#F0F4F8"/>
<path d="M483.912 110.427H490.228V104.117H483.912V110.427Z" fill="#F0F4F8"/>
<path d="M492.876 110.427H499.193V104.117H492.876V110.427Z" fill="#F0F4F8"/>
<path d="M501.835 110.427H508.152V104.117H501.835V110.427Z" fill="#F0F4F8"/>
<path d="M510.8 110.427H517.116V104.117H510.8V110.427Z" fill="#F0F4F8"/>
<path d="M519.758 110.427H526.075V104.117H519.758V110.427Z" fill="#F0F4F8"/>
<path d="M528.723 110.427H535.039V104.117H528.723V110.427Z" fill="#F0F4F8"/>
<path d="M277.802 119.896H284.119V113.586H277.802V119.896Z" fill="#F0F4F8"/>
<path d="M286.767 119.896H293.083V113.586H286.767V119.896Z" fill="#F0F4F8"/>
<path d="M295.726 119.896H302.042V113.586H295.726V119.896Z" fill="#F0F4F8"/>
<path d="M304.685 119.896H311.001V113.586H304.685V119.896Z" fill="#F0F4F8"/>
<path d="M322.608 119.896H328.924V113.586H322.608V119.896Z" fill="#F0F4F8"/>
<path d="M331.572 119.896H337.888V113.586H331.572V119.896Z" fill="#F0F4F8"/>
<path d="M340.531 119.896H346.848V113.586H340.531V119.896Z" fill="#F0F4F8"/>
<path d="M349.496 119.896H355.812V113.586H349.496V119.896Z" fill="#F0F4F8"/>
<path d="M358.454 119.896H364.771V113.586H358.454V119.896Z" fill="#F0F4F8"/>
<path d="M367.419 119.896H373.735V113.586H367.419V119.896Z" fill="#F0F4F8"/>
<path d="M376.378 119.896H382.694V113.586H376.378V119.896Z" fill="#F0F4F8"/>
<path d="M385.336 119.896H391.653V113.586H385.336V119.896Z" fill="#F0F4F8"/>
<path d="M394.301 119.896H400.617V113.586H394.301V119.896Z" fill="#F0F4F8"/>
<path d="M403.26 119.896H409.576V113.586H403.26V119.896Z" fill="#F0F4F8"/>
<path d="M412.224 119.896H418.541V113.586H412.224V119.896Z" fill="#F0F4F8"/>
<path d="M421.183 119.896H427.499V113.586H421.183V119.896Z" fill="#F0F4F8"/>
<path d="M430.147 119.896H436.464V113.586H430.147V119.896Z" fill="#F0F4F8"/>
<path d="M439.106 119.896H445.423V113.586H439.106V119.896Z" fill="#F0F4F8"/>
<path d="M448.071 119.896H454.387V113.586H448.071V119.896Z" fill="#F0F4F8"/>
<path d="M457.029 119.896H463.346V113.586H457.029V119.896Z" fill="#F0F4F8"/>
<path d="M465.988 119.896H472.305V113.586H465.988V119.896Z" fill="#F0F4F8"/>
<path d="M474.953 119.896H481.269V113.586H474.953V119.896Z" fill="#F0F4F8"/>
<path d="M483.912 119.896H490.228V113.586H483.912V119.896Z" fill="#F0F4F8"/>
<path d="M492.876 119.896H499.193V113.586H492.876V119.896Z" fill="#F0F4F8"/>
<path d="M501.835 119.896H508.152V113.586H501.835V119.896Z" fill="#F0F4F8"/>
<path d="M510.8 119.896H517.116V113.586H510.8V119.896Z" fill="#F0F4F8"/>
<path d="M519.758 119.896H526.075V113.586H519.758V119.896Z" fill="#F0F4F8"/>
<path d="M528.723 119.896H535.039V113.586H528.723V119.896Z" fill="#F0F4F8"/>
<path d="M537.681 119.896H543.998V113.586H537.681V119.896Z" fill="#F0F4F8"/>
<path d="M268.844 129.359H275.16V123.049H268.844V129.359Z" fill="#F0F4F8"/>
<path d="M277.802 129.359H284.119V123.049H277.802V129.359Z" fill="#F0F4F8"/>
<path d="M286.767 129.359H293.083V123.049H286.767V129.359Z" fill="#F0F4F8"/>
<path d="M295.726 129.359H302.042V123.049H295.726V129.359Z" fill="#F0F4F8"/>
<path d="M304.685 129.359H311.001V123.049H304.685V129.359Z" fill="#F0F4F8"/>
<path d="M313.649 129.359H319.965V123.049H313.649V129.359Z" fill="#F0F4F8"/>
<path d="M322.608 129.359H328.924V123.049H322.608V129.359Z" fill="#F0F4F8"/>
<path d="M331.572 129.359H337.888V123.049H331.572V129.359Z" fill="#F0F4F8"/>
<path d="M340.531 129.359H346.848V123.049H340.531V129.359Z" fill="#F0F4F8"/>
<path d="M349.496 129.359H355.812V123.049H349.496V129.359Z" fill="#F0F4F8"/>
<path d="M358.454 129.359H364.771V123.049H358.454V129.359Z" fill="#F0F4F8"/>
<path d="M367.419 129.359H373.735V123.049H367.419V129.359Z" fill="#F0F4F8"/>
<path d="M376.378 129.359H382.694V123.049H376.378V129.359Z" fill="#F0F4F8"/>
<path d="M385.336 129.359H391.653V123.049H385.336V129.359Z" fill="#F0F4F8"/>
<path d="M394.301 129.359H400.617V123.049H394.301V129.359Z" fill="#F0F4F8"/>
<path d="M403.26 129.359H409.576V123.049H403.26V129.359Z" fill="#F0F4F8"/>
<path d="M412.224 129.359H418.541V123.049H412.224V129.359Z" fill="#F0F4F8"/>
<path d="M421.183 129.359H427.499V123.049H421.183V129.359Z" fill="#F0F4F8"/>
<path d="M430.147 129.359H436.464V123.049H430.147V129.359Z" fill="#F0F4F8"/>
<path d="M439.106 129.359H445.423V123.049H439.106V129.359Z" fill="#F0F4F8"/>
<path d="M448.071 129.359H454.387V123.049H448.071V129.359Z" fill="#F0F4F8"/>
<path d="M457.029 129.359H463.346V123.049H457.029V129.359Z" fill="#F0F4F8"/>
<path d="M465.988 129.359H472.305V123.049H465.988V129.359Z" fill="#F0F4F8"/>
<path d="M474.953 129.359H481.269V123.049H474.953V129.359Z" fill="#F0F4F8"/>
<path d="M483.912 129.359H490.228V123.049H483.912V129.359Z" fill="#F0F4F8"/>
<path d="M492.876 129.359H499.193V123.049H492.876V129.359Z" fill="#F0F4F8"/>
<path d="M501.835 129.359H508.152V123.049H501.835V129.359Z" fill="#F0F4F8"/>
<path d="M510.8 129.359H517.116V123.049H510.8V129.359Z" fill="#F0F4F8"/>
<path d="M519.758 129.359H526.075V123.049H519.758V129.359Z" fill="#F0F4F8"/>
<path d="M268.844 138.828H275.16V132.517H268.844V138.828Z" fill="#F0F4F8"/>
<path d="M277.802 138.828H284.119V132.517H277.802V138.828Z" fill="#F0F4F8"/>
<path d="M286.767 138.828H293.083V132.517H286.767V138.828Z" fill="#F0F4F8"/>
<path d="M295.726 138.828H302.042V132.517H295.726V138.828Z" fill="#F0F4F8"/>
<path d="M304.685 138.828H311.001V132.517H304.685V138.828Z" fill="#F0F4F8"/>
<path d="M313.649 138.828H319.965V132.517H313.649V138.828Z" fill="#F0F4F8"/>
<path d="M322.608 138.828H328.924V132.517H322.608V138.828Z" fill="#F0F4F8"/>
<path d="M331.572 138.828H337.888V132.517H331.572V138.828Z" fill="#F0F4F8"/>
<path d="M340.531 138.828H346.848V132.517H340.531V138.828Z" fill="#F0F4F8"/>
<path d="M349.496 138.828H355.812V132.517H349.496V138.828Z" fill="#F0F4F8"/>
<path d="M358.454 138.828H364.771V132.517H358.454V138.828Z" fill="#F0F4F8"/>
<path d="M367.419 138.828H373.735V132.517H367.419V138.828Z" fill="#F0F4F8"/>
<path d="M376.378 138.828H382.694V132.517H376.378V138.828Z" fill="#F0F4F8"/>
<path d="M385.336 138.828H391.653V132.517H385.336V138.828Z" fill="#F0F4F8"/>
<path d="M394.301 138.828H400.617V132.517H394.301V138.828Z" fill="#F0F4F8"/>
<path d="M403.26 138.828H409.576V132.517H403.26V138.828Z" fill="#F0F4F8"/>
<path d="M412.224 138.828H418.541V132.517H412.224V138.828Z" fill="#F0F4F8"/>
<path d="M421.183 138.828H427.499V132.517H421.183V138.828Z" fill="#F0F4F8"/>
<path d="M430.147 138.828H436.464V132.517H430.147V138.828Z" fill="#F0F4F8"/>
<path d="M439.106 138.828H445.423V132.517H439.106V138.828Z" fill="#F0F4F8"/>
<path d="M448.071 138.828H454.387V132.517H448.071V138.828Z" fill="#F0F4F8"/>
<path d="M457.029 138.828H463.346V132.517H457.029V138.828Z" fill="#F0F4F8"/>
<path d="M465.988 138.828H472.305V132.517H465.988V138.828Z" fill="#F0F4F8"/>
<path d="M474.953 138.828H481.269V132.517H474.953V138.828Z" fill="#F0F4F8"/>
<path d="M483.912 138.828H490.228V132.517H483.912V138.828Z" fill="#F0F4F8"/>
<path d="M501.835 138.828H508.152V132.517H501.835V138.828Z" fill="#F0F4F8"/>
<path d="M510.8 138.828H517.116V132.517H510.8V138.828Z" fill="#F0F4F8"/>
<path d="M277.802 148.291H284.119V141.981H277.802V148.291Z" fill="#F0F4F8"/>
<path d="M295.726 148.291H302.042V141.981H295.726V148.291Z" fill="#F0F4F8"/>
<path d="M304.685 148.291H311.001V141.981H304.685V148.291Z" fill="#F0F4F8"/>
<path d="M313.649 148.291H319.965V141.981H313.649V148.291Z" fill="#F0F4F8"/>
<path d="M322.608 148.291H328.924V141.981H322.608V148.291Z" fill="#F0F4F8"/>
<path d="M331.572 148.291H337.888V141.981H331.572V148.291Z" fill="#F0F4F8"/>
<path d="M340.531 148.291H346.848V141.981H340.531V148.291Z" fill="#F0F4F8"/>
<path d="M349.496 148.291H355.812V141.981H349.496V148.291Z" fill="#F0F4F8"/>
<path d="M358.454 148.291H364.771V141.981H358.454V148.291Z" fill="#F0F4F8"/>
<path d="M367.419 148.291H373.735V141.981H367.419V148.291Z" fill="#F0F4F8"/>
<path d="M376.378 148.291H382.694V141.981H376.378V148.291Z" fill="#F0F4F8"/>
<path d="M385.336 148.291H391.653V141.981H385.336V148.291Z" fill="#F0F4F8"/>
<path d="M394.301 148.291H400.617V141.981H394.301V148.291Z" fill="#F0F4F8"/>
<path d="M403.26 148.291H409.576V141.981H403.26V148.291Z" fill="#F0F4F8"/>
<path d="M412.224 148.291H418.541V141.981H412.224V148.291Z" fill="#F0F4F8"/>
<path d="M421.183 148.291H427.499V141.981H421.183V148.291Z" fill="#F0F4F8"/>
<path d="M430.147 148.291H436.464V141.981H430.147V148.291Z" fill="#F0F4F8"/>
<path d="M439.106 148.291H445.423V141.981H439.106V148.291Z" fill="#F0F4F8"/>
<path d="M448.071 148.291H454.387V141.981H448.071V148.291Z" fill="#F0F4F8"/>
<path d="M457.029 148.291H463.346V141.981H457.029V148.291Z" fill="#F0F4F8"/>
<path d="M465.988 148.291H472.305V141.981H465.988V148.291Z" fill="#F0F4F8"/>
<path d="M492.876 148.291H499.193V141.981H492.876V148.291Z" fill="#F0F4F8"/>
<path d="M241.956 157.754H248.272V151.444H241.956V157.754Z" fill="#F0F4F8"/>
<path d="M250.92 157.754H257.237V151.444H250.92V157.754Z" fill="#F0F4F8"/>
<path d="M268.844 157.754H275.16V151.444H268.844V157.754Z" fill="#F0F4F8"/>
<path d="M286.767 157.754H293.083V151.444H286.767V157.754Z" fill="#F0F4F8"/>
<path d="M295.726 157.754H302.042V151.444H295.726V157.754Z" fill="#F0F4F8"/>
<path d="M304.685 157.754H311.001V151.444H304.685V157.754Z" fill="#F0F4F8"/>
<path d="M313.649 157.754H319.965V151.444H313.649V157.754Z" fill="#F0F4F8"/>
<path d="M322.608 157.754H328.924V151.444H322.608V157.754Z" fill="#F0F4F8"/>
<path d="M331.572 157.754H337.888V151.444H331.572V157.754Z" fill="#F0F4F8"/>
<path d="M340.531 157.754H346.848V151.444H340.531V157.754Z" fill="#F0F4F8"/>
<path d="M349.496 157.754H355.812V151.444H349.496V157.754Z" fill="#F0F4F8"/>
<path d="M376.378 157.754H382.694V151.444H376.378V157.754Z" fill="#F0F4F8"/>
<path d="M385.336 157.754H391.653V151.444H385.336V157.754Z" fill="#F0F4F8"/>
<path d="M394.301 157.754H400.617V151.444H394.301V157.754Z" fill="#F0F4F8"/>
<path d="M403.26 157.754H409.576V151.444H403.26V157.754Z" fill="#F0F4F8"/>
<path d="M412.224 157.754H418.541V151.444H412.224V157.754Z" fill="#F0F4F8"/>
<path d="M421.183 157.754H427.499V151.444H421.183V157.754Z" fill="#F0F4F8"/>
<path d="M430.147 157.754H436.464V151.444H430.147V157.754Z" fill="#F0F4F8"/>
<path d="M439.106 157.754H445.423V151.444H439.106V157.754Z" fill="#F0F4F8"/>
<path d="M448.071 157.754H454.387V151.444H448.071V157.754Z" fill="#F0F4F8"/>
<path d="M457.029 157.754H463.346V151.444H457.029V157.754Z" fill="#F0F4F8"/>
<path d="M492.876 157.754H499.193V151.444H492.876V157.754Z" fill="#F0F4F8"/>
<path d="M250.92 167.223H257.237V160.912H250.92V167.223Z" fill="#F0F4F8"/>
<path d="M259.879 167.223H266.195V160.912H259.879V167.223Z" fill="#F0F4F8"/>
<path d="M268.844 167.223H275.16V160.912H268.844V167.223Z" fill="#F0F4F8"/>
<path d="M277.802 167.223H284.119V160.912H277.802V167.223Z" fill="#F0F4F8"/>
<path d="M286.767 167.223H293.083V160.912H286.767V167.223Z" fill="#F0F4F8"/>
<path d="M295.726 167.223H302.042V160.912H295.726V167.223Z" fill="#F0F4F8"/>
<path d="M304.685 167.223H311.001V160.912H304.685V167.223Z" fill="#F0F4F8"/>
<path d="M313.649 167.223H319.965V160.912H313.649V167.223Z" fill="#F0F4F8"/>
<path d="M322.608 167.223H328.924V160.912H322.608V167.223Z" fill="#F0F4F8"/>
<path d="M394.301 167.223H400.617V160.912H394.301V167.223Z" fill="#F0F4F8"/>
<path d="M421.183 167.223H427.499V160.912H421.183V167.223Z" fill="#F0F4F8"/>
<path d="M430.147 167.223H436.464V160.912H430.147V167.223Z" fill="#F0F4F8"/>
<path d="M457.029 167.223H463.346V160.912H457.029V167.223Z" fill="#F0F4F8"/>
<path d="M465.988 167.223H472.305V160.912H465.988V167.223Z" fill="#F0F4F8"/>
<path d="M250.92 176.686H257.237V170.376H250.92V176.686Z" fill="#F0F4F8"/>
<path d="M259.879 176.686H266.195V170.376H259.879V176.686Z" fill="#F0F4F8"/>
<path d="M268.844 176.686H275.16V170.376H268.844V176.686Z" fill="#F0F4F8"/>
<path d="M277.802 176.686H284.119V170.376H277.802V176.686Z" fill="#F0F4F8"/>
<path d="M286.767 176.686H293.083V170.376H286.767V176.686Z" fill="#F0F4F8"/>
<path d="M295.726 176.686H302.042V170.376H295.726V176.686Z" fill="#F0F4F8"/>
<path d="M304.685 176.686H311.001V170.376H304.685V176.686Z" fill="#F0F4F8"/>
<path d="M313.649 176.686H319.965V170.376H313.649V176.686Z" fill="#F0F4F8"/>
<path d="M322.608 176.686H328.924V170.376H322.608V176.686Z" fill="#F0F4F8"/>
<path d="M448.071 167.223H454.387V160.912H448.071V167.223Z" fill="#F0F4F8"/>
<path d="M412.224 167.223H418.541V160.912H412.224V167.223Z" fill="#F0F4F8"/>
<path d="M430.147 176.686H436.464V170.376H430.147V176.686Z" fill="#F0F4F8"/>
<path d="M457.029 176.686H463.346V170.376H457.029V176.686Z" fill="#F0F4F8"/>
<path d="M421.183 176.686H427.499V170.376H421.183V176.686Z" fill="#F0F4F8"/>
<path d="M412.224 176.686H418.541V170.376H412.224V176.686Z" fill="#F0F4F8"/>
<path d="M403.26 176.686H409.576V170.376H403.26V176.686Z" fill="#F0F4F8"/>
<path d="M394.301 176.686H400.617V170.376H394.301V176.686Z" fill="#F0F4F8"/>
<path d="M403.26 167.223H409.576V160.912H403.26V167.223Z" fill="#F0F4F8"/>
<path d="M376.378 176.686H382.694V170.376H376.378V176.686Z" fill="#F0F4F8"/>
<path d="M367.419 176.686H373.735V170.376H367.419V176.686Z" fill="#F0F4F8"/>
<path d="M358.454 176.686H364.771V170.376H358.454V176.686Z" fill="#F0F4F8"/>
<path d="M349.496 176.686H355.812V170.376H349.496V176.686Z" fill="#F0F4F8"/>
<path d="M340.531 176.686H346.848V170.376H340.531V176.686Z" fill="#F0F4F8"/>
<path d="M331.572 176.686H337.888V170.376H331.572V176.686Z" fill="#F0F4F8"/>
<path d="M376.378 167.223H382.694V160.912H376.378V167.223Z" fill="#F0F4F8"/>
<path d="M367.419 167.223H373.735V160.912H367.419V167.223Z" fill="#F0F4F8"/>
<path d="M358.454 167.223H364.771V160.912H358.454V167.223Z" fill="#F0F4F8"/>
<path d="M349.496 167.223H355.812V160.912H349.496V167.223Z" fill="#F0F4F8"/>
<path d="M331.572 167.223H337.888V160.912H331.572V167.223Z" fill="#F0F4F8"/>
<path d="M358.454 157.754H364.771V151.444H358.454V157.754Z" fill="#F0F4F8"/>
<path d="M385.336 167.223H391.653V160.912H385.336V167.223Z" fill="#F0F4F8"/>
<path d="M340.531 167.223H346.848V160.912H340.531V167.223Z" fill="#F0F4F8"/>
<path d="M367.419 157.754H373.735V151.444H367.419V157.754Z" fill="#F0F4F8"/>
<path d="M448.071 176.686H454.387V170.376H448.071V176.686Z" fill="#F0F4F8"/>
<path d="M439.106 176.686H445.423V170.376H439.106V176.686Z" fill="#F0F4F8"/>
<path d="M385.336 176.686H391.653V170.376H385.336V176.686Z" fill="#F0F4F8"/>
<path d="M439.106 167.223H445.423V160.912H439.106V167.223Z" fill="#F0F4F8"/>
<path d="M286.767 186.155H293.083V179.844H286.767V186.155Z" fill="#F0F4F8"/>
<path d="M295.726 186.155H302.042V179.844H295.726V186.155Z" fill="#F0F4F8"/>
<path d="M322.608 186.155H328.924V179.844H322.608V186.155Z" fill="#F0F4F8"/>
<path d="M340.531 186.155H346.848V179.844H340.531V186.155Z" fill="#F0F4F8"/>
<path d="M349.496 186.155H355.812V179.844H349.496V186.155Z" fill="#F0F4F8"/>
<path d="M313.649 195.618H319.965V189.307H313.649V195.618Z" fill="#F0F4F8"/>
<path d="M349.496 195.618H355.812V189.307H349.496V195.618Z" fill="#F0F4F8"/>
<path d="M358.454 195.618H364.771V189.307H358.454V195.618Z" fill="#F0F4F8"/>
<path d="M465.988 195.618H472.305V189.307H465.988V195.618Z" fill="#F0F4F8"/>
<path d="M313.649 205.087H319.965V198.776H313.649V205.087Z" fill="#F0F4F8"/>
<path d="M358.454 205.087H364.771V198.776H358.454V205.087Z" fill="#F0F4F8"/>
<path d="M367.419 205.087H373.735V198.776H367.419V205.087Z" fill="#F0F4F8"/>
<path d="M457.029 205.087H463.346V198.776H457.029V205.087Z" fill="#F0F4F8"/>
<path d="M448.071 195.618H454.387V189.307H448.071V195.618Z" fill="#F0F4F8"/>
<path d="M457.029 186.155H463.346V179.844H457.029V186.155Z" fill="#F0F4F8"/>
<path d="M421.183 186.155H427.499V179.844H421.183V186.155Z" fill="#F0F4F8"/>
<path d="M412.224 186.155H418.541V179.844H412.224V186.155Z" fill="#F0F4F8"/>
<path d="M403.26 186.155H409.576V179.844H403.26V186.155Z" fill="#F0F4F8"/>
<path d="M367.419 186.155H373.735V179.844H367.419V186.155Z" fill="#F0F4F8"/>
<path d="M358.454 186.155H364.771V179.844H358.454V186.155Z" fill="#F0F4F8"/>
<path d="M385.336 195.618H391.653V189.307H385.336V195.618Z" fill="#F0F4F8"/>
<path d="M430.147 186.155H436.464V179.844H430.147V186.155Z" fill="#F0F4F8"/>
<path d="M376.378 195.618H382.694V189.307H376.378V195.618Z" fill="#F0F4F8"/>
<path d="M430.147 205.087H436.464V198.776H430.147V205.087Z" fill="#F0F4F8"/>
<path d="M421.183 205.087H427.499V198.776H421.183V205.087Z" fill="#F0F4F8"/>
<path d="M412.224 205.087H418.541V198.776H412.224V205.087Z" fill="#F0F4F8"/>
<path d="M403.26 205.087H409.576V198.776H403.26V205.087Z" fill="#F0F4F8"/>
<path d="M394.301 205.087H400.617V198.776H394.301V205.087Z" fill="#F0F4F8"/>
<path d="M385.336 205.087H391.653V198.776H385.336V205.087Z" fill="#F0F4F8"/>
<path d="M376.378 205.087H382.694V198.776H376.378V205.087Z" fill="#F0F4F8"/>
<path d="M430.147 195.618H436.464V189.307H430.147V195.618Z" fill="#F0F4F8"/>
<path d="M421.183 195.618H427.499V189.307H421.183V195.618Z" fill="#F0F4F8"/>
<path d="M412.224 195.618H418.541V189.307H412.224V195.618Z" fill="#F0F4F8"/>
<path d="M403.26 195.618H409.576V189.307H403.26V195.618Z" fill="#F0F4F8"/>
<path d="M394.301 195.618H400.617V189.307H394.301V195.618Z" fill="#F0F4F8"/>
<path d="M367.419 195.618H373.735V189.307H367.419V195.618Z" fill="#F0F4F8"/>
<path d="M448.071 186.155H454.387V179.844H448.071V186.155Z" fill="#F0F4F8"/>
<path d="M439.106 186.155H445.423V179.844H439.106V186.155Z" fill="#F0F4F8"/>
<path d="M394.301 186.155H400.617V179.844H394.301V186.155Z" fill="#F0F4F8"/>
<path d="M385.336 186.155H391.653V179.844H385.336V186.155Z" fill="#F0F4F8"/>
<path d="M376.378 186.155H382.694V179.844H376.378V186.155Z" fill="#F0F4F8"/>
<path d="M340.531 205.087H346.848V198.776H340.531V205.087Z" fill="#F0F4F8"/>
<path d="M331.572 205.087H337.888V198.776H331.572V205.087Z" fill="#F0F4F8"/>
<path d="M322.608 205.087H328.924V198.776H322.608V205.087Z" fill="#F0F4F8"/>
<path d="M322.608 195.618H328.924V189.307H322.608V195.618Z" fill="#F0F4F8"/>
<path d="M349.496 205.087H355.812V198.776H349.496V205.087Z" fill="#F0F4F8"/>
<path d="M340.531 195.618H346.848V189.307H340.531V195.618Z" fill="#F0F4F8"/>
<path d="M286.767 195.618H293.083V189.307H286.767V195.618Z" fill="#F0F4F8"/>
<path d="M295.726 195.618H302.042V189.307H295.726V195.618Z" fill="#F0F4F8"/>
<path d="M250.92 195.618H257.237V189.307H250.92V195.618Z" fill="#F0F4F8"/>
<path d="M277.802 195.618H284.119V189.307H277.802V195.618Z" fill="#F0F4F8"/>
<path d="M250.92 186.155H257.237V179.844H250.92V186.155Z" fill="#F0F4F8"/>
<path d="M304.685 195.618H311.001V189.307H304.685V195.618Z" fill="#F0F4F8"/>
<path d="M250.92 205.087H257.237V198.776H250.92V205.087Z" fill="#F0F4F8"/>
<path d="M259.879 205.087H266.195V198.776H259.879V205.087Z" fill="#F0F4F8"/>
<path d="M268.844 205.087H275.16V198.776H268.844V205.087Z" fill="#F0F4F8"/>
<path d="M304.685 214.55H311.001V208.239H304.685V214.55Z" fill="#F0F4F8"/>
<path d="M313.649 214.55H319.965V208.239H313.649V214.55Z" fill="#F0F4F8"/>
<path d="M322.608 214.55H328.924V208.239H322.608V214.55Z" fill="#F0F4F8"/>
<path d="M358.454 214.55H364.771V208.239H358.454V214.55Z" fill="#F0F4F8"/>
<path d="M367.419 214.55H373.735V208.239H367.419V214.55Z" fill="#F0F4F8"/>
<path d="M376.378 214.55H382.694V208.239H376.378V214.55Z" fill="#F0F4F8"/>
<path d="M241.956 224.013H248.272V217.702H241.956V224.013Z" fill="#F0F4F8"/>
<path d="M304.685 224.013H311.001V217.702H304.685V224.013Z" fill="#F0F4F8"/>
<path d="M313.649 224.013H319.965V217.702H313.649V224.013Z" fill="#F0F4F8"/>
<path d="M322.608 224.013H328.924V217.702H322.608V224.013Z" fill="#F0F4F8"/>
<path d="M331.572 224.013H337.888V217.702H331.572V224.013Z" fill="#F0F4F8"/>
<path d="M340.531 224.013H346.848V217.702H340.531V224.013Z" fill="#F0F4F8"/>
<path d="M358.454 224.013H364.771V217.702H358.454V224.013Z" fill="#F0F4F8"/>
<path d="M367.419 224.013H373.735V217.702H367.419V224.013Z" fill="#F0F4F8"/>
<path d="M376.378 224.013H382.694V217.702H376.378V224.013Z" fill="#F0F4F8"/>
<path d="M385.336 224.013H391.653V217.702H385.336V224.013Z" fill="#F0F4F8"/>
<path d="M394.301 224.013H400.617V217.702H394.301V224.013Z" fill="#F0F4F8"/>
<path d="M403.26 224.013H409.576V217.702H403.26V224.013Z" fill="#F0F4F8"/>
<path d="M241.956 233.482H248.272V227.171H241.956V233.482Z" fill="#F0F4F8"/>
<path d="M250.92 233.482H257.237V227.171H250.92V233.482Z" fill="#F0F4F8"/>
<path d="M259.879 233.482H266.195V227.171H259.879V233.482Z" fill="#F0F4F8"/>
<path d="M268.844 233.482H275.16V227.171H268.844V233.482Z" fill="#F0F4F8"/>
<path d="M277.802 233.482H284.119V227.171H277.802V233.482Z" fill="#F0F4F8"/>
<path d="M286.767 233.482H293.083V227.171H286.767V233.482Z" fill="#F0F4F8"/>
<path d="M295.726 233.482H302.042V227.171H295.726V233.482Z" fill="#F0F4F8"/>
<path d="M304.685 233.482H311.001V227.171H304.685V233.482Z" fill="#F0F4F8"/>
<path d="M322.608 233.482H328.924V227.171H322.608V233.482Z" fill="#F0F4F8"/>
<path d="M331.572 233.482H337.888V227.171H331.572V233.482Z" fill="#F0F4F8"/>
<path d="M367.419 233.482H373.735V227.171H367.419V233.482Z" fill="#F0F4F8"/>
<path d="M376.378 233.482H382.694V227.171H376.378V233.482Z" fill="#F0F4F8"/>
<path d="M403.26 233.482H409.576V227.171H403.26V233.482Z" fill="#F0F4F8"/>
<path d="M412.224 233.482H418.541V227.171H412.224V233.482Z" fill="#F0F4F8"/>
<path d="M439.106 233.482H445.423V227.171H439.106V233.482Z" fill="#F0F4F8"/>
<path d="M241.956 242.945H248.272V236.634H241.956V242.945Z" fill="#F0F4F8"/>
<path d="M250.92 242.945H257.237V236.634H250.92V242.945Z" fill="#F0F4F8"/>
<path d="M259.879 242.945H266.195V236.634H259.879V242.945Z" fill="#F0F4F8"/>
<path d="M268.844 242.945H275.16V236.634H268.844V242.945Z" fill="#F0F4F8"/>
<path d="M277.802 242.945H284.119V236.634H277.802V242.945Z" fill="#F0F4F8"/>
<path d="M286.767 242.945H293.083V236.634H286.767V242.945Z" fill="#F0F4F8"/>
<path d="M295.726 242.945H302.042V236.634H295.726V242.945Z" fill="#F0F4F8"/>
<path d="M304.685 242.945H311.001V236.634H304.685V242.945Z" fill="#F0F4F8"/>
<path d="M313.649 242.945H319.965V236.634H313.649V242.945Z" fill="#F0F4F8"/>
<path d="M403.26 242.945H409.576V236.634H403.26V242.945Z" fill="#F0F4F8"/>
<path d="M412.224 242.945H418.541V236.634H412.224V242.945Z" fill="#F0F4F8"/>
<path d="M241.956 252.413H248.272V246.103H241.956V252.413Z" fill="#F0F4F8"/>
<path d="M250.92 252.413H257.237V246.103H250.92V252.413Z" fill="#F0F4F8"/>
<path d="M259.879 252.413H266.195V246.103H259.879V252.413Z" fill="#F0F4F8"/>
<path d="M268.844 252.413H275.16V246.103H268.844V252.413Z" fill="#F0F4F8"/>
<path d="M277.802 252.413H284.119V246.103H277.802V252.413Z" fill="#F0F4F8"/>
<path d="M286.767 252.413H293.083V246.103H286.767V252.413Z" fill="#F0F4F8"/>
<path d="M295.726 252.413H302.042V246.103H295.726V252.413Z" fill="#F0F4F8"/>
<path d="M304.685 252.413H311.001V246.103H304.685V252.413Z" fill="#F0F4F8"/>
<path d="M313.649 252.413H319.965V246.103H313.649V252.413Z" fill="#F0F4F8"/>
<path d="M322.608 252.413H328.924V246.103H322.608V252.413Z" fill="#F0F4F8"/>
<path d="M376.378 252.413H382.694V246.103H376.378V252.413Z" fill="#F0F4F8"/>
<path d="M430.147 252.413H436.464V246.103H430.147V252.413Z" fill="#F0F4F8"/>
<path d="M268.844 261.876H275.16V255.566H268.844V261.876Z" fill="#F0F4F8"/>
<path d="M277.802 261.876H284.119V255.566H277.802V261.876Z" fill="#F0F4F8"/>
<path d="M286.767 261.876H293.083V255.566H286.767V261.876Z" fill="#F0F4F8"/>
<path d="M295.726 261.876H302.042V255.566H295.726V261.876Z" fill="#F0F4F8"/>
<path d="M304.685 261.876H311.001V255.566H304.685V261.876Z" fill="#F0F4F8"/>
<path d="M313.649 261.876H319.965V255.566H313.649V261.876Z" fill="#F0F4F8"/>
<path d="M421.183 261.876H427.499V255.566H421.183V261.876Z" fill="#F0F4F8"/>
<path d="M430.147 261.876H436.464V255.566H430.147V261.876Z" fill="#F0F4F8"/>
<path d="M448.071 261.876H454.387V255.566H448.071V261.876Z" fill="#F0F4F8"/>
<path d="M277.802 271.345H284.119V265.035H277.802V271.345Z" fill="#F0F4F8"/>
<path d="M286.767 271.345H293.083V265.035H286.767V271.345Z" fill="#F0F4F8"/>
<path d="M295.726 271.345H302.042V265.035H295.726V271.345Z" fill="#F0F4F8"/>
<path d="M304.685 271.345H311.001V265.035H304.685V271.345Z" fill="#F0F4F8"/>
<path d="M412.224 271.345H418.541V265.035H412.224V271.345Z" fill="#F0F4F8"/>
<path d="M465.988 271.345H472.305V265.035H465.988V271.345Z" fill="#F0F4F8"/>
<path d="M474.953 271.345H481.269V265.035H474.953V271.345Z" fill="#F0F4F8"/>
<path d="M483.912 271.345H490.228V265.035H483.912V271.345Z" fill="#F0F4F8"/>
<path d="M277.802 280.808H284.119V274.498H277.802V280.808Z" fill="#F0F4F8"/>
<path d="M286.767 280.808H293.083V274.498H286.767V280.808Z" fill="#F0F4F8"/>
<path d="M295.726 280.808H302.042V274.498H295.726V280.808Z" fill="#F0F4F8"/>
<path d="M304.685 280.808H311.001V274.498H304.685V280.808Z" fill="#F0F4F8"/>
<path d="M313.649 280.808H319.965V274.498H313.649V280.808Z" fill="#F0F4F8"/>
<path d="M277.802 290.271H284.119V283.961H277.802V290.271Z" fill="#F0F4F8"/>
<path d="M286.767 290.271H293.083V283.961H286.767V290.271Z" fill="#F0F4F8"/>
<path d="M295.726 290.271H302.042V283.961H295.726V290.271Z" fill="#F0F4F8"/>
<path d="M304.685 290.271H311.001V283.961H304.685V290.271Z" fill="#F0F4F8"/>
<path d="M322.608 290.271H328.924V283.961H322.608V290.271Z" fill="#F0F4F8"/>
<path d="M277.802 299.74H284.119V293.43H277.802V299.74Z" fill="#F0F4F8"/>
<path d="M286.767 299.74H293.083V293.43H286.767V299.74Z" fill="#F0F4F8"/>
<path d="M295.726 299.74H302.042V293.43H295.726V299.74Z" fill="#F0F4F8"/>
<path d="M304.685 299.74H311.001V293.43H304.685V299.74Z" fill="#F0F4F8"/>
<path d="M322.608 299.74H328.924V293.43H322.608V299.74Z" fill="#F0F4F8"/>
<path d="M277.802 309.203H284.119V302.893H277.802V309.203Z" fill="#F0F4F8"/>
<path d="M286.767 309.203H293.083V302.893H286.767V309.203Z" fill="#F0F4F8"/>
<path d="M295.726 309.203H302.042V302.893H295.726V309.203Z" fill="#F0F4F8"/>
<path d="M286.767 318.672H293.083V312.362H286.767V318.672Z" fill="#F0F4F8"/>
<path d="M430.147 224.013H436.464V217.702H430.147V224.013Z" fill="#F0F4F8"/>
<path d="M412.224 224.013H418.541V217.702H412.224V224.013Z" fill="#F0F4F8"/>
<path d="M421.183 214.55H427.499V208.239H421.183V214.55Z" fill="#F0F4F8"/>
<path d="M421.183 224.013H427.499V217.702H421.183V224.013Z" fill="#F0F4F8"/>
<path d="M430.147 214.55H436.464V208.239H430.147V214.55Z" fill="#F0F4F8"/>
<path d="M412.224 214.55H418.541V208.239H412.224V214.55Z" fill="#F0F4F8"/>
<path d="M403.26 214.55H409.576V208.239H403.26V214.55Z" fill="#F0F4F8"/>
<path d="M394.301 214.55H400.617V208.239H394.301V214.55Z" fill="#F0F4F8"/>
<path d="M385.336 214.55H391.653V208.239H385.336V214.55Z" fill="#F0F4F8"/>
<path d="M340.531 214.55H346.848V208.239H340.531V214.55Z" fill="#F0F4F8"/>
<path d="M331.572 214.55H337.888V208.239H331.572V214.55Z" fill="#F0F4F8"/>
<path d="M349.496 214.55H355.812V208.239H349.496V214.55Z" fill="#F0F4F8"/>
<path d="M268.844 224.013H275.16V217.702H268.844V224.013Z" fill="#F0F4F8"/>
<path d="M259.879 224.013H266.195V217.702H259.879V224.013Z" fill="#F0F4F8"/>
<path d="M250.92 224.013H257.237V217.702H250.92V224.013Z" fill="#F0F4F8"/>
<path d="M259.879 214.55H266.195V208.239H259.879V214.55Z" fill="#F0F4F8"/>
<path d="M250.92 214.55H257.237V208.239H250.92V214.55Z" fill="#F0F4F8"/>
<path d="M241.956 214.55H248.272V208.239H241.956V214.55Z" fill="#F0F4F8"/>
<path d="M277.802 224.013H284.119V217.702H277.802V224.013Z" fill="#F0F4F8"/>
<path d="M286.767 224.013H293.083V217.702H286.767V224.013Z" fill="#F0F4F8"/>
<path d="M277.802 214.55H284.119V208.239H277.802V214.55Z" fill="#F0F4F8"/>
<path d="M268.844 214.55H275.16V208.239H268.844V214.55Z" fill="#F0F4F8"/>
<path d="M295.726 224.013H302.042V217.702H295.726V224.013Z" fill="#F0F4F8"/>
<path d="M295.726 214.55H302.042V208.239H295.726V214.55Z" fill="#F0F4F8"/>
<path d="M286.767 214.55H293.083V208.239H286.767V214.55Z" fill="#F0F4F8"/>
<path d="M474.953 337.604H481.269V331.294H474.953V337.604Z" fill="#F0F4F8"/>
<path d="M474.953 328.135H481.269V321.825H474.953V328.135Z" fill="#F0F4F8"/>
<path d="M483.912 318.672H490.228V312.362H483.912V318.672Z" fill="#F0F4F8"/>
<path d="M474.953 318.672H481.269V312.362H474.953V318.672Z" fill="#F0F4F8"/>
<path d="M465.988 318.672H472.305V312.362H465.988V318.672Z" fill="#F0F4F8"/>
<path d="M439.106 318.672H445.423V312.362H439.106V318.672Z" fill="#F0F4F8"/>
<path d="M430.147 318.672H436.464V312.362H430.147V318.672Z" fill="#F0F4F8"/>
<path d="M483.912 309.203H490.228V302.893H483.912V309.203Z" fill="#F0F4F8"/>
<path d="M474.953 309.203H481.269V302.893H474.953V309.203Z" fill="#F0F4F8"/>
<path d="M465.988 309.203H472.305V302.893H465.988V309.203Z" fill="#F0F4F8"/>
<path d="M457.029 309.203H463.346V302.893H457.029V309.203Z" fill="#F0F4F8"/>
<path d="M448.071 309.203H454.387V302.893H448.071V309.203Z" fill="#F0F4F8"/>
<path d="M439.106 309.203H445.423V302.893H439.106V309.203Z" fill="#F0F4F8"/>
<path d="M430.147 309.203H436.464V302.893H430.147V309.203Z" fill="#F0F4F8"/>
<path d="M474.953 299.74H481.269V293.43H474.953V299.74Z" fill="#F0F4F8"/>
<path d="M465.988 299.74H472.305V293.43H465.988V299.74Z" fill="#F0F4F8"/>
<path d="M457.029 299.74H463.346V293.43H457.029V299.74Z" fill="#F0F4F8"/>
<path d="M448.071 299.74H454.387V293.43H448.071V299.74Z" fill="#F0F4F8"/>
<path d="M439.106 299.74H445.423V293.43H439.106V299.74Z" fill="#F0F4F8"/>
<path d="M430.147 299.74H436.464V293.43H430.147V299.74Z" fill="#F0F4F8"/>
<path d="M474.953 290.271H481.269V283.961H474.953V290.271Z" fill="#F0F4F8"/>
<path d="M457.029 290.271H463.346V283.961H457.029V290.271Z" fill="#F0F4F8"/>
<path d="M439.106 290.271H445.423V283.961H439.106V290.271Z" fill="#F0F4F8"/>
<path d="M519.758 328.135H526.075V321.825H519.758V328.135Z" fill="#F0F4F8"/>
<path d="M448.071 290.271H454.387V283.961H448.071V290.271Z" fill="#F0F4F8"/>
</svg>
