<svg width="328" height="216" viewBox="0 0 328 216" fill="none" xmlns="http://www.w3.org/2000/svg">
<path d="M95.6812 0H0L0.0695357 205.939C6.06907 201.908 11.6992 197.379 16.8972 192.404C18.6356 190.306 20.374 188.276 22.1819 186.245L34.7679 182.117C37.007 180.741 39.1131 178.328 41.0483 176.11C42.5386 174.402 43.9276 172.811 45.1982 171.898C46.6839 170.831 47.9176 169.729 49.1008 168.671C50.2435 167.651 51.3391 166.672 52.569 165.807H54.6551C57.6936 163.595 61.2947 159.96 65.1209 156.098C71.7146 149.441 78.977 142.11 85.1813 140.225C87.3464 142.521 90.2323 144.16 93.1202 145.799C96.4466 147.687 99.7757 149.577 102.009 152.475C108.574 150.389 117.075 139.382 121.482 133.678C121.649 133.461 121.81 133.252 121.966 133.052L129.684 126.961C140.878 115.66 152.076 104.356 163.339 93.1227C167.134 94.3389 168.896 96.8442 170.737 99.4614C171.662 100.776 172.607 102.12 173.839 103.342C180.28 109.166 186.407 115.31 192.197 121.75C193.818 123.866 195.556 125.601 197.267 127.309C198.785 128.825 200.281 130.319 201.654 132.037L202.905 135.217C204.51 136.407 206.261 136.964 208.032 137.527C209.485 137.988 210.952 138.455 212.362 139.278C219.402 143.497 225.482 149.07 230.233 155.656C238.021 154.031 250.537 149.226 254.431 143.406C265.633 145.02 275.91 156.524 285.19 166.911C290.311 172.644 295.129 178.036 299.629 181.237C302.171 183.052 305.075 184.797 308.045 186.582C314.824 190.657 321.949 194.94 325.914 200.728H328V0H232.388V77.7602H95.6812V0Z" fill="url(#paint0_linear)"/>
<path d="M168.206 134.067C167.648 126.012 165.891 118.079 162.991 110.515C161.756 114.123 158.824 116.688 155.89 119.255C154.036 120.878 152.18 122.502 150.753 124.389L127.667 148.955L115.012 160.19C113.08 163.529 112.312 167.381 111.556 171.18C110.733 175.311 109.923 179.38 107.641 182.658L101.383 187.802C96.2688 192.859 91.6156 198.339 87.4755 204.179H86.4324V205.195C92.0794 202.801 97.3849 199.708 102.217 195.991L108.475 193.96C110.748 192.494 113.103 190.915 115.497 189.309C120.063 186.248 124.775 183.088 129.336 180.425C135.865 177.685 142.186 174.496 148.25 170.883C148.887 169.003 149.525 167.1 150.164 165.193C151.963 159.825 153.774 154.422 155.62 149.429C156.892 147.233 158.991 145.066 161.187 142.797C163.797 140.102 166.545 137.264 168.206 134.067Z" fill="url(#paint1_linear)"/>
<path d="M208.189 161.679C203.6 154.911 193.309 142.594 185.034 140.225C180.382 145.289 176.172 150.722 172.448 156.468C170.936 159.669 169.717 163.618 168.472 167.655C166.452 174.201 164.362 180.976 160.835 185.162V187.193H183.991C188.42 184.465 192.627 181.41 196.577 178.056C202.183 175.586 207.479 172.498 212.361 168.852C213.426 167.251 211.73 165.519 210.084 163.839C209.365 163.104 208.655 162.379 208.189 161.679Z" fill="url(#paint2_linear)"/>
<path d="M80.9399 159.648C85.24 166.915 88.0945 174.905 89.3538 183.2C87.7627 188.039 80.4479 194.262 74.5016 199.321C72.1317 201.337 69.9792 203.168 68.493 204.653L62.1653 211.827H55.6289C49.4658 216.326 30.2471 216.093 17.1942 215.935C15.5219 215.914 13.9461 215.895 12.5168 215.887V214.872C15.1052 212.668 17.4979 209.086 19.877 205.525C22.611 201.433 25.3269 197.367 28.3014 195.449C30.4009 194.123 33.2028 193.67 36.0147 193.215C38.5111 192.812 41.0154 192.407 43.043 191.389L46.2416 187.193C47.5748 186.275 48.8928 185.535 50.2028 184.799C51.6938 183.962 53.1749 183.13 54.6554 182.049L58.8971 176.974C67.0612 172.258 74.485 166.423 80.9399 159.648Z" fill="url(#paint3_linear)"/>
<path d="M236.26 203.742C239.452 201.928 242.782 200.035 247.06 199.577C247.047 194.181 248.512 188.878 251.302 184.215C253.274 181.298 256.633 179.447 259.983 177.602C262.54 176.193 265.091 174.788 267.017 172.913H268.13V171.898C265.907 170.519 264.05 168.61 262.178 166.685C259.366 163.794 256.52 160.867 252.345 159.648L223.974 179.072V194.434C214.92 197.834 206.938 203.48 200.819 210.812H199.776V211.827C202.214 211.314 204.833 210.807 207.494 210.293C213.256 209.179 219.218 208.026 223.974 206.683H230.233C232.32 205.98 234.263 204.876 236.26 203.742Z" fill="url(#paint4_linear)"/>
<path d="M287.044 188.275C296.122 192.606 304.32 198.498 311.243 205.668H290.382C286.74 204.022 282.836 202.992 278.839 202.623V201.608H279.882L287.044 188.275Z" fill="url(#paint5_linear)"/>
<defs>
<linearGradient id="paint0_linear" x1="164" y1="0" x2="164" y2="216" gradientUnits="userSpaceOnUse">
<stop stop-color="#EEAB40"/>
<stop offset="1" stop-color="#CEA45B"/>
</linearGradient>
<linearGradient id="paint1_linear" x1="164" y1="0" x2="164" y2="216" gradientUnits="userSpaceOnUse">
<stop stop-color="#EEAB40"/>
<stop offset="1" stop-color="#CEA45B"/>
</linearGradient>
<linearGradient id="paint2_linear" x1="164" y1="0" x2="164" y2="216" gradientUnits="userSpaceOnUse">
<stop stop-color="#EEAB40"/>
<stop offset="1" stop-color="#CEA45B"/>
</linearGradient>
<linearGradient id="paint3_linear" x1="164" y1="0" x2="164" y2="216" gradientUnits="userSpaceOnUse">
<stop stop-color="#EEAB40"/>
<stop offset="1" stop-color="#CEA45B"/>
</linearGradient>
<linearGradient id="paint4_linear" x1="164" y1="0" x2="164" y2="216" gradientUnits="userSpaceOnUse">
<stop stop-color="#EEAB40"/>
<stop offset="1" stop-color="#CEA45B"/>
</linearGradient>
<linearGradient id="paint5_linear" x1="164" y1="0" x2="164" y2="216" gradientUnits="userSpaceOnUse">
<stop stop-color="#EEAB40"/>
<stop offset="1" stop-color="#CEA45B"/>
</linearGradient>
</defs>
</svg>
