<svg width="55" height="94" viewBox="0 0 55 94" fill="none" xmlns="http://www.w3.org/2000/svg">
<path d="M0 0H3V3H0V0Z" fill="#D7E1EA"/>
<path d="M13 0H16V3H13V0Z" fill="#D7E1EA"/>
<path d="M26 0H29V3H26V0Z" fill="#D7E1EA"/>
<path d="M39 0H42V3H39V0Z" fill="#D7E1EA"/>
<path d="M52 0H55V3H52V0Z" fill="#D7E1EA"/>
<path d="M0 13H3V16H0V13Z" fill="#D7E1EA"/>
<path d="M13 13H16V16H13V13Z" fill="#D7E1EA"/>
<path d="M26 13H29V16H26V13Z" fill="#D7E1EA"/>
<path d="M39 13H42V16H39V13Z" fill="#D7E1EA"/>
<path d="M52 13H55V16H52V13Z" fill="#D7E1EA"/>
<path d="M0 26H3V29H0V26Z" fill="#D7E1EA"/>
<path d="M13 26H16V29H13V26Z" fill="#D7E1EA"/>
<path d="M26 26H29V29H26V26Z" fill="#D7E1EA"/>
<path d="M39 26H42V29H39V26Z" fill="#D7E1EA"/>
<path d="M52 26H55V29H52V26Z" fill="#D7E1EA"/>
<path d="M0 39H3V42H0V39Z" fill="#D7E1EA"/>
<path d="M13 39H16V42H13V39Z" fill="#D7E1EA"/>
<path d="M26 39H29V42H26V39Z" fill="#D7E1EA"/>
<path d="M39 39H42V42H39V39Z" fill="#D7E1EA"/>
<path d="M52 39H55V42H52V39Z" fill="#D7E1EA"/>
<path d="M0 52H3V55H0V52Z" fill="#D7E1EA"/>
<path d="M13 52H16V55H13V52Z" fill="#D7E1EA"/>
<path d="M26 52H29V55H26V52Z" fill="#D7E1EA"/>
<path d="M39 52H42V55H39V52Z" fill="#D7E1EA"/>
<path d="M52 52H55V55H52V52Z" fill="#D7E1EA"/>
<path d="M0 65H3V68H0V65Z" fill="#D7E1EA"/>
<path d="M13 65H16V68H13V65Z" fill="#D7E1EA"/>
<path d="M26 65H29V68H26V65Z" fill="#D7E1EA"/>
<path d="M39 65H42V68H39V65Z" fill="#D7E1EA"/>
<path d="M52 65H55V68H52V65Z" fill="#D7E1EA"/>
<path d="M0 78H3V81H0V78Z" fill="#D7E1EA"/>
<path d="M13 78H16V81H13V78Z" fill="#D7E1EA"/>
<path d="M26 78H29V81H26V78Z" fill="#D7E1EA"/>
<path d="M39 78H42V81H39V78Z" fill="#D7E1EA"/>
<path d="M52 78H55V81H52V78Z" fill="#D7E1EA"/>
<path d="M0 91H3V94H0V91Z" fill="#D7E1EA"/>
<path d="M13 91H16V94H13V91Z" fill="#D7E1EA"/>
<path d="M26 91H29V94H26V91Z" fill="#D7E1EA"/>
<path d="M39 91H42V94H39V91Z" fill="#D7E1EA"/>
<path d="M52 91H55V94H52V91Z" fill="#D7E1EA"/>
</svg>
