<svg width="48" height="48" viewBox="0 0 48 48" fill="none" xmlns="http://www.w3.org/2000/svg">
<g clip-path="url(#clip0)">
<path d="M8.894 40.2239H39.0875V46.4174H8.894V40.2239Z" fill="#CEA45B"/>
<path d="M32.4098 9.86477C32.4098 5.21734 28.6405 1.44995 23.9905 1.44995C19.3408 1.44995 15.5711 5.21734 15.5711 9.86477C15.5711 14.5118 19.3408 18.2792 23.9905 18.2792C28.6405 18.2792 32.4098 14.5118 32.4098 9.86477Z" fill="#CEA45B"/>
<path d="M27.7245 38.6964C37.7713 35.6129 36.7275 25.0063 36.7555 24.9144C36.2044 25.0218 30.1337 24.0265 25.5358 29.3808V19.6886C30.382 18.9265 33.9525 14.7509 33.9532 9.84526C33.9536 4.93964 30.3839 0.763231 25.538 0V3.15083C28.9395 3.93826 31.2088 7.15184 30.8126 10.6206C30.4164 14.089 27.4807 16.7083 23.9896 16.7083C20.4986 16.7083 17.5632 14.089 17.1671 10.6206C16.7709 7.15184 19.0402 3.93826 22.4413 3.15083V0C17.5954 0.762475 14.0253 4.93851 14.0253 9.84413C14.0253 14.7497 17.5954 18.9258 22.4413 19.6886V23.7592C17.8456 18.4071 11.7628 19.3991 11.2219 19.2928C11.3092 19.5329 9.85834 31.9997 22.4413 33.5326V38.6964H7.35469V41.7978H37.5297V44.8987H7.35469V48H40.6265V38.6964H27.7245ZM14.4672 22.5438C18.4584 23.2666 21.5794 26.394 22.2942 30.3863C18.3034 29.6636 15.1824 26.5362 14.4672 22.5438ZM33.5125 28.1643C32.7976 32.157 29.6759 35.2844 25.6843 36.0068C26.3999 32.0141 29.522 28.8863 33.514 28.1643H33.5125Z" fill="#35425B"/>
</g>
<defs>
<clipPath id="clip0">
<rect width="48" height="48" fill="white"/>
</clipPath>
</defs>
</svg>
