<svg width="48" height="48" viewBox="0 0 48 48" fill="none" xmlns="http://www.w3.org/2000/svg" class="" style="">
<path d="M8 40H38V46H8" stroke="#1B2D43" stroke-width="4" class="zbguMpAh_0"></path>
<path d="M24 18C28.4183 18 32 14.4183 32 10C32 6.98797 30.3354 4.36473 27.876 3M24 18C19.5817 18 16 14.4183 16 10C16 7.03887 17.6088 4.4535 20 3.07026M24 18V40" stroke="#1B2D43" stroke-width="4" class="zbguMpAh_1"></path>
<path d="M23.1086 31.1082C24.5213 26.0631 18.4672 20.009 13.4221 21.4216C12.0095 26.4667 18.0636 32.5208 23.1086 31.1082Z" stroke="#1B2D43" stroke-width="4" stroke-linejoin="round" class="zbguMpAh_2"></path>
<path d="M25.4216 36.7351C24.009 31.69 30.0631 25.636 35.1082 27.0486C36.5208 32.0936 30.4667 38.1477 25.4216 36.7351Z" stroke="#1B2D43" stroke-width="4" stroke-linejoin="round" class="zbguMpAh_3"></path>
<path stroke="#CEA45B" stroke-width="6" d="M21,10A3,3 0,1,1 27,10A3,3 0,1,1 21,10" class="zbguMpAh_4"></path>
<path d="M8 43H36" stroke="#CEA45B" stroke-width="2" class="zbguMpAh_5"></path>
<style data-made-with="vivus-instant">.zbguMpAh_0{stroke-dasharray:66 68;stroke-dashoffset:67;}.start .zbguMpAh_0{animation:zbguMpAh_draw 1206ms ease-in-out 0ms forwards;}.zbguMpAh_1{stroke-dasharray:65 67;stroke-dashoffset:66;}.start .zbguMpAh_1{animation:zbguMpAh_draw 1188ms ease-in-out 1206ms forwards;}.zbguMpAh_2{stroke-dasharray:33 35;stroke-dashoffset:34;}.start .zbguMpAh_2{animation:zbguMpAh_draw 612ms ease-in-out 2394ms forwards;}.zbguMpAh_3{stroke-dasharray:33 35;stroke-dashoffset:34;}.start .zbguMpAh_3{animation:zbguMpAh_draw 612ms ease-in-out 3006ms forwards;}.zbguMpAh_4{stroke-dasharray:19 21;stroke-dashoffset:20;}.start .zbguMpAh_4{animation:zbguMpAh_draw 360ms ease-in-out 3618ms forwards;}.zbguMpAh_5{stroke-dasharray:28 30;stroke-dashoffset:29;}.start .zbguMpAh_5{animation:zbguMpAh_draw 522ms ease-in-out 3978ms forwards;}@keyframes zbguMpAh_draw{100%{stroke-dashoffset:0;}}@keyframes zbguMpAh_fade{0%{stroke-opacity:1;}95.40229885057471%{stroke-opacity:1;}100%{stroke-opacity:0;}}</style></svg>
