<svg width="46" height="38" viewBox="0 0 46 38" fill="none" xmlns="http://www.w3.org/2000/svg">
<path d="M1.5 7V21.5339H8.66691V26H14.4897V21.5339H31.5103V26H37.3331V21.5339H44.5V7H1.5Z" fill="#CEA45B"/>
<path d="M46 8.94118V5.96078H31.6562V0H14.3438V2.98039H28.6884V5.96078H0V23.4944H7.17229V27.965H15.9672V23.4944H30.0328V27.965H38.8277V23.4944H43.0323V35.0196H2.96774V26.4763H0V38H46V11.9216H43.0323V20.514H38.8277V15.9689H30.0328V20.514H15.9672V15.9689H7.17229V20.514H2.96774V8.94118H46ZM33.0005 18.9627H35.86V24.9861H33.0005V18.9627ZM10.14 18.9627H12.9995V24.9861H10.14V18.9627Z" fill="#35425B"/>
</svg>
