<svg width="48" height="48" viewBox="0 0 48 48" fill="none" xmlns="http://www.w3.org/2000/svg">
<g clip-path="url(#clip0)">
<path d="M46.5 15.5C46.5 11.9104 43.59 9 40 9C36.4104 9 33.5 11.9104 33.5 15.5C33.5 19.09 36.4104 22 40 22C43.59 22 46.5 19.09 46.5 15.5Z" fill="#CEA45B"/>
<path d="M32 26.75C32 24.9552 30.545 23.5 28.75 23.5C26.9552 23.5 25.5 24.9552 25.5 26.75C25.5 28.545 26.9552 30 28.75 30C30.545 30 32 28.545 32 26.75Z" fill="#CEA45B"/>
<path d="M23.5 17.25C23.5 15.4552 22.045 14 20.25 14C18.4552 14 17 15.4552 17 17.25C17 19.045 18.4552 20.5 20.25 20.5C22.045 20.5 23.5 19.045 23.5 17.25Z" fill="#CEA45B"/>
<path d="M12.5 28.75C12.5 26.9552 11.045 25.5 9.25 25.5C7.45519 25.5 6 26.9552 6 28.75C6 30.545 7.45519 32 9.25 32C11.045 32 12.5 30.545 12.5 28.75Z" fill="#CEA45B"/>
<path d="M9.09851 32.9491C10.5361 32.9506 11.8774 32.226 12.664 31.0223C13.4503 29.8187 13.5754 28.299 12.9967 26.9831L18.3299 21.6496C19.4182 22.1297 20.6577 22.1297 21.7457 21.6496L25.0988 25.0019C24.3132 26.7869 24.8406 28.8778 26.3795 30.0765C27.9181 31.2748 30.0743 31.2748 31.6129 30.0765C33.1514 28.8778 33.6791 26.7869 32.8932 25.0019L35.6131 22.2847C38.0574 23.9234 41.2067 24.0792 43.8007 22.6895C46.3951 21.2999 48.0104 18.5918 48.0002 15.6488C47.9976 11.8444 45.3132 8.56882 41.5829 7.81958V11.0199C43.8453 11.779 45.2244 14.0657 44.8399 16.4208C44.4555 18.7759 42.421 20.5049 40.0345 20.5049C37.6484 20.5049 35.6139 18.7759 35.2294 16.4208C34.845 14.0657 36.2236 11.779 38.4861 11.0199V7.81958C35.8709 8.34314 33.6897 10.138 32.6725 12.6035C31.6556 15.0693 31.9368 17.8799 33.4221 20.0952L30.7041 22.8124C29.6161 22.3327 28.3762 22.3327 27.2883 22.8124L23.9352 19.4605C24.7207 17.675 24.1934 15.5846 22.6548 14.3859C21.1159 13.1871 18.9596 13.1871 17.4211 14.3859C15.8825 15.5846 15.3548 17.675 16.1407 19.4605L10.8072 24.7936C9.21985 24.095 7.36716 24.4288 6.12384 25.6381C4.88014 26.847 4.49417 28.6895 5.14778 30.2958C5.80138 31.9024 7.36413 32.9518 9.09851 32.9491ZM28.9962 25.5485C29.6373 25.5485 30.1575 26.0683 30.1575 26.7098C30.1575 27.3513 29.6373 27.8711 28.9962 27.8711C28.3547 27.8711 27.8349 27.3513 27.8349 26.7098C27.8349 26.0683 28.3547 25.5485 28.9962 25.5485ZM20.0378 16.5905C20.6793 16.5905 21.1991 17.1103 21.1991 17.7518C21.1991 18.3929 20.6793 18.9131 20.0378 18.9131C19.3966 18.9131 18.8765 18.3929 18.8765 17.7518C18.8765 17.1103 19.3966 16.5905 20.0378 16.5905ZM9.09851 27.5298C9.74002 27.5298 10.2598 28.0495 10.2598 28.6911C10.2598 29.3326 9.74002 29.8523 9.09851 29.8523C8.457 29.8523 7.93722 29.3326 7.93722 28.6911C7.93722 28.0495 8.457 27.5298 9.09851 27.5298Z" fill="#35425B"/>
<path d="M3.09677 7.74194H0V40.2581H48V37.1466H3.09677V7.74194Z" fill="#35425B"/>
</g>
<defs>
<clipPath id="clip0">
<rect width="48" height="48" fill="white"/>
</clipPath>
</defs>
</svg>
