<svg width="48" height="48" viewBox="0 0 48 48" fill="none" xmlns="http://www.w3.org/2000/svg" class="" style="">
<path d="M2 10V40H48" stroke="#1B2D43" stroke-width="4" class="HLaRkFOa_0"></path>
<path stroke="#1B2D43" stroke-width="3" d="M6.5,30.5A3,3 0,1,1 12.5,30.5A3,3 0,1,1 6.5,30.5" class="HLaRkFOa_1"></path>
<path stroke="#1B2D43" stroke-width="3" d="M17.5,19.5A3,3 0,1,1 23.5,19.5A3,3 0,1,1 17.5,19.5" class="HLaRkFOa_2"></path>
<path stroke="#1B2D43" stroke-width="3" d="M26.5,28.5A3,3 0,1,1 32.5,28.5A3,3 0,1,1 26.5,28.5" class="HLaRkFOa_3"></path>
<path d="M42.4579 11.416C44.5916 12.3483 46.0827 14.4773 46.0827 16.9547C46.0827 20.2912 43.3779 22.996 40.0413 22.996C36.7048 22.996 34 20.2912 34 16.9547C34 14.4773 35.4911 12.3483 37.6248 11.416" stroke="#1B2D43" stroke-width="3" class="HLaRkFOa_4"></path>
<path d="M11 29L19 21" stroke="#1B2D43" stroke-width="3" class="HLaRkFOa_5"></path>
<path d="M22 21L27 26" stroke="#1B2D43" stroke-width="3" class="HLaRkFOa_6"></path>
<path d="M31 27L36.5 21.5" stroke="#1B2D43" stroke-width="3" class="HLaRkFOa_7"></path>
<path stroke="#CEA45B" stroke-width="5" d="M37.5,17A2.5,2.5 0,1,1 42.5,17A2.5,2.5 0,1,1 37.5,17" class="HLaRkFOa_8"></path>
<style data-made-with="vivus-instant">.HLaRkFOa_0{stroke-dasharray:76 78;stroke-dashoffset:77;}.start .HLaRkFOa_0{animation:HLaRkFOa_draw 1582ms ease-in-out 0ms forwards;}.HLaRkFOa_1{stroke-dasharray:19 21;stroke-dashoffset:20;}.start .HLaRkFOa_1{animation:HLaRkFOa_draw 410ms ease-in-out 1582ms forwards;}.HLaRkFOa_2{stroke-dasharray:19 21;stroke-dashoffset:20;}.start .HLaRkFOa_2{animation:HLaRkFOa_draw 410ms ease-in-out 1993ms forwards;}.HLaRkFOa_3{stroke-dasharray:19 21;stroke-dashoffset:20;}.start .HLaRkFOa_3{animation:HLaRkFOa_draw 410ms ease-in-out 2404ms forwards;}.HLaRkFOa_4{stroke-dasharray:33 35;stroke-dashoffset:34;}.start .HLaRkFOa_4{animation:HLaRkFOa_draw 698ms ease-in-out 2815ms forwards;}.HLaRkFOa_5{stroke-dasharray:12 14;stroke-dashoffset:13;}.start .HLaRkFOa_5{animation:HLaRkFOa_draw 267ms ease-in-out 3513ms forwards;}.HLaRkFOa_6{stroke-dasharray:8 10;stroke-dashoffset:9;}.start .HLaRkFOa_6{animation:HLaRkFOa_draw 184ms ease-in-out 3780ms forwards;}.HLaRkFOa_7{stroke-dasharray:8 10;stroke-dashoffset:9;}.start .HLaRkFOa_7{animation:HLaRkFOa_draw 184ms ease-in-out 3965ms forwards;}.HLaRkFOa_8{stroke-dasharray:16 18;stroke-dashoffset:17;}.start .HLaRkFOa_8{animation:HLaRkFOa_draw 349ms ease-in-out 4150ms forwards;}@keyframes HLaRkFOa_draw{100%{stroke-dashoffset:0;}}@keyframes HLaRkFOa_fade{0%{stroke-opacity:1;}95.40229885057471%{stroke-opacity:1;}100%{stroke-opacity:0;}}</style></svg>
