<svg width="48" height="48" viewBox="0 0 48 48" fill="none" xmlns="http://www.w3.org/2000/svg" class="" style="">
<path d="M21 12C21 7.58173 24.5817 4 29 4C33.4183 4 37 7.58173 37 12C37 14.7614 35.6009 17.196 33.473 18.6336C40.1326 20.5689 45 26.716 45 34H40" stroke="#CEA45B" stroke-width="4" stroke-linecap="round" stroke-linejoin="round" class="bjapHoGP_0"></path>
<path d="M24.473 27.6336C26.6009 26.196 28 23.7614 28 21C28 16.5817 24.4183 13 20 13C15.5817 13 12 16.5817 12 21C12 23.7614 13.3991 26.196 15.527 27.6336C8.86737 29.5689 4 35.716 4 43H36C36 35.716 31.1326 29.5689 24.473 27.6336Z" stroke="#1B2D43" stroke-width="4" stroke-linecap="round" stroke-linejoin="round" class="bjapHoGP_1"></path>
<style data-made-with="vivus-instant">.bjapHoGP_0{stroke-dasharray:59 61;stroke-dashoffset:60;}.start .bjapHoGP_0{animation:bjapHoGP_draw 1542ms ease-in-out 0ms forwards;}.bjapHoGP_1{stroke-dasharray:114 116;stroke-dashoffset:115;}.start .bjapHoGP_1{animation:bjapHoGP_draw 2957ms ease-in-out 1542ms forwards;}@keyframes bjapHoGP_draw{100%{stroke-dashoffset:0;}}@keyframes bjapHoGP_fade{0%{stroke-opacity:1;}95.40229885057471%{stroke-opacity:1;}100%{stroke-opacity:0;}}</style></svg>
