<svg width="48" height="38" viewBox="0 0 48 38" fill="none" xmlns="http://www.w3.org/2000/svg">
<path d="M2.25 36.25H35.31C35.31 30.094 28.8892 26.065 22.7295 25.0105C24.0341 24.3211 25.132 23.2973 25.9109 22.044C26.6897 20.7908 27.1214 19.353 27.1618 17.878C27.2023 16.403 26.8499 14.9438 26.1409 13.6497C25.4319 12.3557 24.3917 11.2733 23.1268 10.5135C21.8619 9.75371 20.4178 9.34373 18.9424 9.32558C17.4669 9.30743 16.0132 9.68175 14.73 10.4102C13.4468 11.1387 12.3803 12.1951 11.6396 13.4713C10.899 14.7475 10.5109 16.1977 10.515 17.6732C10.5127 19.1703 10.9118 20.6407 11.6708 21.9312C12.4298 23.2216 13.5209 24.285 14.8305 25.0105C8.637 26.071 2.25 30.115 2.25 36.25Z" fill="#CEA45B"/>
<path d="M39.4545 17.8923C38.493 17.4169 37.4966 17.0157 36.474 16.6922C37.7368 15.2786 38.5657 13.5312 38.8617 11.659C39.1577 9.7867 38.9082 7.86881 38.1431 6.13458C37.378 4.40035 36.1296 2.92315 34.5472 1.87961C32.9649 0.836056 31.1154 0.270309 29.22 0.25C27.0089 0.259934 24.8665 1.01924 23.1426 2.40391C21.4188 3.78859 20.2153 5.71683 19.7288 7.87375C19.416 7.84375 19.1003 7.82575 18.78 7.82575C16.883 7.8456 15.032 8.41181 13.4485 9.45657C11.865 10.5013 10.6162 11.9804 9.85167 13.7166C9.08712 15.4528 8.83921 17.3726 9.13762 19.246C9.43604 21.1195 10.2681 22.8673 11.5343 24.28C5.9055 26.0905 0.75 30.2185 0.75 36.25C0.75 36.6478 0.908035 37.0294 1.18934 37.3107C1.47064 37.592 1.85218 37.75 2.25 37.75H35.31C35.7078 37.75 36.0894 37.592 36.3707 37.3107C36.652 37.0294 36.81 36.6478 36.81 36.25C36.81 30.2185 31.6545 26.0898 26.0257 24.28C27.0673 23.1155 27.8182 21.7208 28.217 20.2102C28.6158 18.6997 28.6512 17.1161 28.3203 15.5892C27.9894 14.0623 27.3015 12.6355 26.3131 11.4256C25.3246 10.2157 24.0637 9.25708 22.6335 8.62825C22.9757 6.98597 23.9175 5.5301 25.2751 4.54469C26.6327 3.55929 28.3088 3.11506 29.9763 3.29867C31.6438 3.48228 33.183 4.28056 34.2937 5.53775C35.4044 6.79495 36.0068 8.42086 35.9835 10.0983C35.987 11.327 35.6605 12.5341 35.0382 13.5936C34.4159 14.6531 33.5206 15.5261 32.4458 16.1215C32.1734 16.2715 31.9543 16.5025 31.8189 16.7824C31.6836 17.0624 31.6385 17.3775 31.6901 17.6842C31.7417 17.9908 31.8873 18.2739 32.1068 18.4942C32.3263 18.7144 32.6088 18.8611 32.9153 18.9137C34.721 19.2148 36.4736 19.7756 38.1188 20.5788C41.3438 22.1875 43.476 24.58 44.076 27.1742H36.2137C37.0301 28.0847 37.7311 29.0923 38.301 30.1742H45.75C46.1478 30.1742 46.5294 30.0162 46.8107 29.7349C47.092 29.4536 47.25 29.0721 47.25 28.6742C47.25 24.358 44.3377 20.3283 39.4545 17.8923ZM25.545 17.6733C25.5485 18.902 25.222 20.1091 24.5997 21.1686C23.9774 22.2281 23.0821 23.1011 22.0072 23.6965C21.7346 23.8464 21.5153 24.0774 21.3797 24.3574C21.2441 24.6375 21.199 24.9528 21.2506 25.2597C21.3021 25.5665 21.4479 25.8497 21.6676 26.0701C21.8873 26.2904 22.17 26.437 22.4767 26.4895C29.2545 27.6497 32.82 31.3315 33.63 34.75H3.93C4.74 31.3315 8.3055 27.6497 15.0833 26.4895C15.3899 26.437 15.6727 26.2904 15.8924 26.0701C16.1121 25.8497 16.2579 25.5665 16.3094 25.2597C16.361 24.9528 16.3159 24.6375 16.1803 24.3574C16.0447 24.0774 15.8254 23.8464 15.5527 23.6965C14.4802 23.1346 13.5764 22.2974 12.9342 21.2709C12.2919 20.2444 11.9343 19.0656 11.8981 17.8553C11.8618 16.6449 12.1482 15.4468 12.7279 14.3837C13.3075 13.3206 14.1596 12.4309 15.1966 11.8058C16.2336 11.1806 17.4183 10.8427 18.629 10.8265C19.8398 10.8104 21.033 11.1166 22.0863 11.7139C23.1396 12.3111 24.0151 13.1778 24.6229 14.2251C25.2307 15.2723 25.549 16.4624 25.545 17.6733Z" fill="#1B2D43"/>
</svg>
