<svg width="48" height="48" viewBox="0 0 48 48" fill="none" xmlns="http://www.w3.org/2000/svg">
<path d="M21.9538 23.9049C20.8433 24.6552 20.1428 25.8465 20 27.1398C19.8572 25.8465 19.1567 24.6552 18.0462 23.9049C17.104 23.2683 16.5 22.2039 16.5 21C16.5 19.067 18.067 17.5 20 17.5C21.933 17.5 23.5 19.067 23.5 21C23.5 22.2039 22.896 23.2683 21.9538 23.9049ZM19.9726 28.3314C19.9833 28.263 19.9925 28.1945 20 28.1261C20.0075 28.1945 20.0167 28.263 20.0274 28.3314C20.298 30.0556 21.5413 31.4678 23.2173 31.9549C26.5447 32.9218 29.2466 35.3526 30.586 38.5H9.41398C10.7534 35.3526 13.4553 32.9218 16.7827 31.9549C18.4587 31.4678 19.702 30.0556 19.9726 28.3314Z" stroke="#CEA45B" stroke-width="9" stroke-linecap="round" stroke-linejoin="round"/>
<path d="M24.473 27.6336C26.6009 26.196 28 23.7614 28 21C28 16.5817 24.4183 13 20 13C15.5817 13 12 16.5817 12 21C12 23.7614 13.3991 26.196 15.527 27.6336C8.86737 29.5689 4 35.716 4 43H36C36 35.716 31.1326 29.5689 24.473 27.6336Z" stroke="#1B2D43" stroke-width="3" stroke-linecap="round" stroke-linejoin="round"/>
<path d="M21 12C21 7.58173 24.5817 4 29 4C33.4183 4 37 7.58173 37 12C37 14.7614 35.6009 17.196 33.473 18.6336C40.1326 20.5689 45 26.716 45 34H40" stroke="#1B2D43" stroke-width="3" stroke-linecap="round" stroke-linejoin="round"/>
</svg>
