<svg width="48" height="48" viewBox="0 0 48 48" fill="none" xmlns="http://www.w3.org/2000/svg">
<g clip-path="url(#clip0)">
<path d="M23.2258 7.80396L1.54834 16.9317V18.4884L23.2258 26.9955H24.7741L46.4516 18.4884V16.9317L24.7741 7.80396H23.2258Z" fill="#CEA45B"/>
<path d="M25.0838 6.1936H22.9162L0 15.8748V40.3772H3.09677V20.7483L7.24257 22.3814V36.5282C7.63117 36.7145 13.5359 41.8065 24 41.8065C27.6079 41.8163 31.1878 41.1703 34.5646 39.9005V36.5535C26.9433 39.9292 17.2916 39.3747 10.3393 34.8883V23.6005L22.9332 28.5602H25.0668L37.6614 23.5997V38.4644C38.7384 37.8932 39.7731 37.2464 40.7582 36.5289V22.3806L48 19.5292V15.8748L25.0838 6.1936ZM24.4786 25.4524H23.5184L3.74395 17.6647L23.5354 9.30134H24.4646L44.2591 17.6625L24.4786 25.4524Z" fill="#35425B"/>
</g>
<defs>
<clipPath id="clip0">
<rect width="48" height="48" fill="white"/>
</clipPath>
</defs>
</svg>
