<svg width="48" height="48" viewBox="0 0 48 48" fill="none" xmlns="http://www.w3.org/2000/svg">
<g clip-path="url(#clip0)">
<path d="M15.9963 14.291C15.9963 18.7306 19.5953 22.3299 24.0353 22.3299C28.4749 22.3299 32.0742 18.7306 32.0742 14.291L18.2302 8.75342C16.7983 10.2417 15.9979 12.2258 15.9963 14.291Z" fill="#CEA45B"/>
<path d="M29.8656 26.8032C28.765 29.0158 26.5065 30.4151 24.0351 30.4151C21.5636 30.4151 19.3048 29.0158 18.2042 26.8032C6.45028 31.1344 17.2256 27.1655 6.5708 31.0886V46.4479H41.4993V31.0886C30.7187 27.1204 41.9446 31.2538 29.8656 26.8032Z" fill="#CEA45B"/>
<path fill-rule="evenodd" clip-rule="evenodd" d="M24.0352 23.883C18.7402 23.8765 14.4495 19.5855 14.4438 14.2909C14.4935 11.4693 15.7218 8.79695 17.831 6.92166L33.6265 13.2399C33.6249 13.244 33.6243 13.2762 33.6232 13.3336C33.6029 14.3845 33.4201 23.883 24.0352 23.883ZM23.5247 20.757C26.8985 21.0238 29.9104 18.6521 30.4425 15.31L18.7064 10.6158C17.9526 11.6929 17.5486 12.9762 17.5486 14.2909C17.549 17.675 20.1508 20.4902 23.5247 20.757Z" fill="#35425B"/>
<path fill-rule="evenodd" clip-rule="evenodd" d="M38.5903 14.2955V28.3624L43.0518 30.005V48.0002H11.2281V44.8954H39.9471V32.1713L30.5172 28.6963C28.9986 30.7539 26.5931 31.9678 24.036 31.9678C21.4785 31.9678 19.0733 30.7539 17.5547 28.6963C11.9508 30.7624 11.7919 30.8212 11.6328 30.8796C11.5008 30.928 11.3686 30.9761 8.12331 32.1713V48.0002H5.01855V30.005L9.48316 28.3624V14.2955C9.62491 6.35922 16.0993 0 24.0367 0C31.9741 0 38.4481 6.35922 38.5903 14.2955ZM29.1051 24.8695L35.4855 27.2189L35.4825 14.2955C35.3566 8.06244 30.2678 3.0752 24.0337 3.0752C17.7991 3.0752 12.7103 8.06244 12.5849 14.2955V27.2204L18.9649 24.8695C19.013 24.9299 19.0773 25.0684 19.1658 25.2591C19.6458 26.2931 20.8391 28.8638 24.0352 28.8638C27.2335 28.8638 28.4292 26.2847 28.9067 25.2546C28.9944 25.0655 29.0579 24.9287 29.1051 24.8695Z" fill="#35425B"/>
<path d="M24.0353 36.4665C24.8926 36.4665 25.5877 35.7714 25.5877 34.9141C25.5877 34.0568 24.8926 33.3617 24.0353 33.3617C23.178 33.3617 22.4829 34.0568 22.4829 34.9141C22.4829 35.7714 23.178 36.4665 24.0353 36.4665Z" fill="#35425B"/>
<path d="M25.5877 41.1718C25.5877 42.029 24.8926 42.7241 24.0353 42.7241C23.178 42.7241 22.4829 42.029 22.4829 41.1718C22.4829 40.3145 23.178 39.6194 24.0353 39.6194C24.8926 39.6194 25.5877 40.3145 25.5877 41.1718Z" fill="#35425B"/>
</g>
<defs>
<clipPath id="clip0">
<rect width="48" height="48" fill="white"/>
</clipPath>
</defs>
</svg>
