<svg width="48" height="48" viewBox="0 0 48 48" fill="none" xmlns="http://www.w3.org/2000/svg">
<path d="M7 46V31L18 27C18.5 28.1667 20 31 24 31C28 31 29.5 28.5 30 27L41 31V46H14" stroke="#1B2D43" stroke-width="3" stroke-linecap="round" stroke-linejoin="round"/>
<path d="M37 29V15C37 7.8203 31.1797 2 24 2V2C16.8203 2 11 7.8203 11 15V29" stroke="#1B2D43" stroke-width="3" stroke-linecap="round" stroke-linejoin="round"/>
<path d="M24 19C21.8333 19 20.0006 17.2049 20 14.8957C20.0004 14.4977 20.0575 14.1067 20.1664 13.7337L27.5747 16.7417C26.9096 18.0941 25.539 19 24 19Z" stroke="#CEA45B" stroke-width="6" stroke-linecap="round" stroke-linejoin="round"/>
<path d="M17 14.8945C17 18.8186 20.1338 22 24 22C27.8658 22 31 18.8186 31 14.8945L18.9451 10C17.6983 11.3155 17.0013 13.0692 17 14.8945Z" stroke="#1B2D43" stroke-width="3" stroke-linecap="round" stroke-linejoin="round"/>
<circle cx="24" cy="38" r="1" stroke="#CEA45B" stroke-width="2" stroke-linecap="round" stroke-linejoin="round"/>
</svg>
