<svg width="48" height="48" viewBox="0 0 48 48" fill="none" xmlns="http://www.w3.org/2000/svg" class="" style="">
<path d="M7 46V31L18 27C18.5 28.1667 20 31 24 31C28 31 29.5 28.5 30 27L41 31V46H14" stroke="#1B2D43" stroke-width="4" stroke-linecap="round" stroke-linejoin="round" class="guRhsQgT_0"></path>
<path d="M37 29V15C37 7.8203 31.1797 2 24 2V2C16.8203 2 11 7.8203 11 15V29" stroke="#1B2D43" stroke-width="4" stroke-linecap="round" stroke-linejoin="round" class="guRhsQgT_1"></path>
<path d="M24 19C21.8333 19 20.0006 17.2049 20 14.8957C20.0004 14.4977 20.0575 14.1067 20.1664 13.7337L27.5747 16.7417C26.9096 18.0941 25.539 19 24 19Z" stroke="#CEA45B" stroke-width="6" stroke-linecap="round" stroke-linejoin="round" class="guRhsQgT_2"></path>
<path d="M17 14.8945C17 18.8186 20.1338 22 24 22C27.8658 22 31 18.8186 31 14.8945L18.9451 10C17.6983 11.3155 17.0013 13.0692 17 14.8945Z" stroke="#1B2D43" stroke-width="4" stroke-linecap="round" stroke-linejoin="round" class="guRhsQgT_3"></path>
<path stroke="#CEA45B" stroke-width="2" stroke-linecap="round" stroke-linejoin="round" d="M23,38A1,1 0,1,1 25,38A1,1 0,1,1 23,38" class="guRhsQgT_4"></path>
<style data-made-with="vivus-instant">.guRhsQgT_0{stroke-dasharray:96 98;stroke-dashoffset:97;}.start .guRhsQgT_0{animation:guRhsQgT_draw 1834ms ease-in-out 0ms forwards;}.guRhsQgT_1{stroke-dasharray:69 71;stroke-dashoffset:70;}.start .guRhsQgT_1{animation:guRhsQgT_draw 1323ms ease-in-out 1834ms forwards;}.guRhsQgT_2{stroke-dasharray:20 22;stroke-dashoffset:21;}.start .guRhsQgT_2{animation:guRhsQgT_draw 397ms ease-in-out 3157ms forwards;}.guRhsQgT_3{stroke-dasharray:41 43;stroke-dashoffset:42;}.start .guRhsQgT_3{animation:guRhsQgT_draw 794ms ease-in-out 3554ms forwards;}.guRhsQgT_4{stroke-dasharray:7 9;stroke-dashoffset:8;}.start .guRhsQgT_4{animation:guRhsQgT_draw 151ms ease-in-out 4348ms forwards;}@keyframes guRhsQgT_draw{100%{stroke-dashoffset:0;}}@keyframes guRhsQgT_fade{0%{stroke-opacity:1;}95.40229885057471%{stroke-opacity:1;}100%{stroke-opacity:0;}}</style></svg>
