<svg width="48" height="48" viewBox="0 0 48 48" fill="none" xmlns="http://www.w3.org/2000/svg">
<g clip-path="url(#clip0)">
<path d="M23.9912 25.9743V46.0353H35.1864V21.542L23.9912 25.9743Z" fill="#CEA45B"/>
<path d="M1.60059 46.0353H12.7958V10.5481L1.60059 18.2836V46.0353Z" fill="#CEA45B"/>
<path d="M2.47807 12.0545L13.8848 4.18397L24.9258 19.37C25.3401 19.9404 26.0885 20.158 26.744 19.8982L46.9494 11.9078C47.4904 11.7254 47.8866 11.259 47.9794 10.6958C48.0725 10.1322 47.8467 9.56368 47.3931 9.21722C46.9392 8.87076 46.3311 8.8029 45.812 9.04116L26.7177 16.5905L15.4979 1.15332C15.0048 0.47473 14.0605 0.313753 13.3706 0.79065L0.722411 9.51731C0.241743 9.81966 -0.0345932 10.3614 0.00348321 10.928C0.0415597 11.4946 0.38764 11.9949 0.904499 12.2302C1.42136 12.4654 2.02568 12.3979 2.47807 12.0545Z" fill="#35425B"/>
<path d="M45.8127 15.6858L39.8185 18.0552V21.375L44.837 19.3887V44.4614H36.7301V19.2789L24.5374 24.0977L17.428 14.317V19.567L22.4466 26.4724V44.4621H14.3397V10.0671C14.0223 9.65354 13.8571 9.3493 13.3746 9.15289C12.014 8.5972 12.1392 9.41113 0.722301 17.0245C0.305722 17.3125 0.0565294 17.7864 0.0561523 18.2931V46.0029C0.0561523 46.8561 0.747182 47.5471 1.60032 47.5471H8.16303V44.4614H3.14449V19.1014L11.2514 13.5083V47.5448H25.5349V27.0198L33.6418 23.8142V44.4614H28.6232V47.5448H46.3812C47.2339 47.5448 47.9253 46.8534 47.9253 46.0007V17.1173C47.9238 16.6064 47.6701 16.1295 47.2471 15.843C46.8245 15.5569 46.2877 15.4977 45.8127 15.6858Z" fill="#35425B"/>
</g>
<defs>
<clipPath id="clip0">
<rect width="48" height="48" fill="white"/>
</clipPath>
</defs>
</svg>
