<svg width="48" height="48" viewBox="0 0 48 48" fill="none" xmlns="http://www.w3.org/2000/svg">
<circle cx="24" cy="21" r="7" stroke="#CEA45B" stroke-width="14" stroke-linecap="round" stroke-linejoin="round"/>
<circle cx="24" cy="21" r="13" stroke="#1B2D43" stroke-width="3" stroke-linecap="round" stroke-linejoin="round"/>
<path d="M44 21.5C44 32.2696 35.2696 41 24.5 41C13.7304 41 5 32.2696 5 21.5C5 10.7304 13.7304 2 24.5 2" stroke="#1B2D43" stroke-width="3" stroke-linecap="round" stroke-linejoin="round"/>
<path d="M24 41V46" stroke="#1B2D43" stroke-width="3" stroke-linecap="round" stroke-linejoin="round"/>
<path d="M16 46H32" stroke="#1B2D43" stroke-width="3" stroke-linecap="round" stroke-linejoin="round"/>
<path d="M7 4.5L14.2634 11.7634M41 38.5L33.2914 30.7914" stroke="#1B2D43" stroke-width="3" stroke-linecap="round" stroke-linejoin="round"/>
<path d="M33 11.5L14.5 30" stroke="#1B2D43" stroke-width="3" stroke-linejoin="bevel"/>
<path d="M25 8C25 13 17 21 11 21" stroke="#1B2D43" stroke-width="3" stroke-linejoin="round"/>
<path d="M37 21C37 21 26 24 24 34" stroke="#1B2D43" stroke-width="3" stroke-linejoin="round"/>
</svg>
