<svg width="48" height="48" viewBox="0 0 48 48" fill="none" xmlns="http://www.w3.org/2000/svg">
<g clip-path="url(#clip0)">
<path d="M38.2258 21.5017C38.2258 29.3585 31.8568 35.7275 24 35.7275C16.1431 35.7275 9.77417 29.3585 9.77417 21.5017C9.77417 13.6452 16.1431 7.27588 24 7.27588C31.8568 7.27588 38.2258 13.6452 38.2258 21.5017Z" fill="#CEA45B"/>
<path d="M45.6776 21.5009H42.5808C42.5808 25.8864 40.9992 30.1244 38.1262 33.4374L36.1952 31.5098C41.7125 24.7723 40.7323 14.8394 34.0042 9.31037L31.7962 11.5161L14.0132 29.2969C12.6148 27.513 11.7269 25.3832 11.4437 23.1343C14.8913 22.3193 18.0429 20.5566 20.5428 18.0458C23.0528 15.547 24.8152 12.3969 25.6313 8.95049C26.8078 9.10208 27.9573 9.4166 29.0472 9.88497L31.3735 7.55785C25.755 4.60019 18.9123 5.29084 13.9984 9.31188L12.0814 7.3953C15.4289 4.61153 19.6465 3.09036 24.0002 3.09679V1.30359e-05C18.8265 -0.00565733 13.8211 1.83872 9.88815 5.20011L6.62883 1.94079L4.43931 4.13031L7.68087 7.37186C4.22875 11.2689 2.32275 16.2947 2.32275 21.5009C2.38021 32.817 11.1617 42.1709 22.4518 42.9413V44.9032H14.5488V48H33.4515V44.9032H25.5486V42.9413C30.1786 42.6181 34.5822 40.8164 38.1114 37.8024L41.3715 41.0625L43.561 38.873L40.3187 35.6307C43.7716 31.734 45.678 26.7074 45.6776 21.5009ZM32.9646 30.4661C30.9747 32.4602 28.372 33.7277 25.575 34.0645C27.0943 28.7495 31.2488 24.595 36.5638 23.0757C36.2274 25.8731 34.9595 28.4762 32.9646 30.4661ZM33.9872 13.7034C35.3855 15.4877 36.2735 17.6175 36.557 19.8667C29.5307 21.5444 24.0448 27.0306 22.3675 34.057C20.1182 33.7734 17.9881 32.8851 16.2042 31.4864L33.9872 13.7034ZM15.0357 12.5372C17.0275 10.5461 19.6287 9.27937 22.4246 8.93953C20.906 14.2542 16.7516 18.4087 11.4365 19.9272C11.7734 17.1298 13.0413 14.5271 15.0357 12.5372ZM24.0002 39.9058C13.7916 39.9428 5.47963 31.7094 5.41953 21.5009C5.41953 17.1158 7.00118 12.8778 9.87416 9.56516L11.8051 11.4961C6.66739 17.7687 7.12064 26.9146 12.8541 32.6477C18.5876 38.3812 27.7332 38.8348 34.0057 33.6967L35.9174 35.6084C32.57 38.391 28.3531 39.9118 24.0002 39.9058Z" fill="#35425B"/>
</g>
<defs>
<clipPath id="clip0">
<rect width="48" height="48" fill="white"/>
</clipPath>
</defs>
</svg>
