<svg width="48" height="48" viewBox="0 0 48 48" fill="none" xmlns="http://www.w3.org/2000/svg">
<g clip-path="url(#clip0)">
<path d="M9 42C9 39.7909 10.7909 38 13 38H40V46H13C10.7909 46 9 44.2091 9 42Z" fill="#CEA45B"/>
<path d="M29 1H19V15L24 12L29 15V1Z" fill="#CEA45B"/>
<path d="M36.2638 0H11.7361C8.88614 0.00718246 6.57981 2.31993 6.58057 5.17024V42.1062C6.57943 45.355 9.20859 47.9921 12.4573 48H41.4193V5.17024C41.42 2.31993 39.1137 0.00718246 36.2638 0V0ZM38.3225 44.9032H12.4573C10.9127 44.9032 9.66033 43.6508 9.66033 42.1062C9.66033 40.5612 10.9127 39.3088 12.4573 39.3088H38.3225V44.9032ZM38.3225 36.2121H12.4573C11.4892 36.2196 10.537 36.4585 9.67961 36.9088V5.16683C9.67848 4.0286 10.5975 3.1032 11.7361 3.09677H36.2638C37.4043 3.10207 38.3255 4.02936 38.3225 5.17024V36.2121Z" fill="#35425B"/>
<path d="M30.6177 19.0452L24 14.315L17.3823 19.0452V0H30.6207L30.6177 19.0452ZM24 10.5091L27.5209 13.0244V3.09677H20.4761V13.0244L24 10.5091Z" fill="#35425B"/>
</g>
<defs>
<clipPath id="clip0">
<rect width="48" height="48" fill="white"/>
</clipPath>
</defs>
</svg>
