<svg width="48" height="48" viewBox="0 0 48 48" fill="none" xmlns="http://www.w3.org/2000/svg">
<rect x="3" y="11" width="27" height="6" fill="#CEA45B"/>
<rect x="18" y="32" width="27" height="6" fill="#CEA45B"/>
<path fill-rule="evenodd" clip-rule="evenodd" d="M45 30.9996V29C45 26.2386 42.7614 24 40 24H23C20.2386 24 18 26.2386 18 29V30.9996C16.7856 31.9118 16 33.3642 16 35C16 36.6358 16.7856 38.0882 18 39.0004V41C18 43.7614 20.2386 46 23 46H40C42.7614 46 45 43.7614 45 41V39.0004C46.2144 38.0882 47 36.6358 47 35C47 33.3642 46.2144 31.9118 45 30.9996ZM21 30H42V29C42 27.8954 41.1046 27 40 27H23C21.8954 27 21 27.8954 21 29V30ZM21 33C19.8954 33 19 33.8954 19 35C19 36.1046 19.8954 37 21 37H42C43.1046 37 44 36.1046 44 35C44 33.8954 43.1046 33 42 33H21ZM21 41L21 40H42V41C42 42.1046 41.1046 43 40 43H23C21.8954 43 21 42.1046 21 41Z" fill="#35425B"/>
<path fill-rule="evenodd" clip-rule="evenodd" d="M21.829 2H34.0001V5H24.1713L23.1713 9H32V19H27.5617L26.7565 24.5118L23.5 25L24.5649 19.1034H7.30662L10 43H16V46H7.28706L4.32871 19H1V9H20.079L21.829 2ZM4 16H29V12H4V16Z" fill="#35425B"/>
</svg>
