<svg width="48" height="48" viewBox="0 0 48 48" fill="none" xmlns="http://www.w3.org/2000/svg">
<path d="M26 17H22V22H17V26H22V31H26V26H31V22H26V17Z" fill="#CEA45B"/>
<path fill-rule="evenodd" clip-rule="evenodd" d="M28 15V20H33V28H28V33H20V28H15V20H20V15H28ZM18 23V25H23V30H25V25H30V23H25V18H23V23H18Z" fill="#35425B"/>
<path fill-rule="evenodd" clip-rule="evenodd" d="M8.76129 5.6925C10.6341 4.61929 12.7783 4 15.0642 4C18.5201 4 21.6629 5.40164 24.0017 7.68498C26.3357 5.4007 29.4805 4 32.9309 4C35.2207 4 37.369 4.61878 39.2397 5.6932L39.2433 5.69525C43.2634 8.01946 46 12.4893 46 17.6369C46 19.0853 45.7753 20.4776 45.3731 21.7779C44.7816 24.4521 43.1131 27.1405 41.1151 29.5971C39.075 32.1054 36.5726 34.5143 34.1675 36.5988C31.7573 38.6877 29.4151 40.4762 27.6775 41.7415C26.8077 42.3748 26.0872 42.8787 25.5825 43.2253C25.3301 43.3986 25.1315 43.5327 24.9951 43.6241C24.9269 43.6698 24.8742 43.7048 24.8381 43.7288L24.7964 43.7563L24.781 43.7664C24.781 43.7664 24.7804 43.7668 24.0035 42.4619C23.227 43.7671 23.2264 43.7667 23.2264 43.7667L23.2254 43.766L23.2222 43.7639L23.2109 43.7565L23.1692 43.729C23.1331 43.7051 23.0804 43.67 23.0121 43.6243C22.8756 43.5329 22.6769 43.3988 22.4243 43.2255C21.9193 42.8789 21.1983 42.3751 20.3281 41.7417C18.5894 40.4764 16.2457 38.6879 13.8342 36.599C11.4278 34.5145 8.92412 32.1056 6.88325 29.5972C4.88452 27.1407 3.21558 24.4521 2.62469 21.7777C2.22216 20.4759 2 19.0853 2 17.6369C2 12.4881 4.73627 8.0164 8.75723 5.69483L8.76129 5.6925ZM24.0035 42.4619L23.2264 43.7667C23.7017 44.0779 24.3057 44.0778 24.781 43.7664L24.0035 42.4619ZM24.0032 40.6321C24.4873 40.2994 25.1752 39.8179 26.0047 39.2139C27.6971 37.9816 29.9698 36.2456 32.2991 34.2268C34.6335 32.2036 36.9952 29.9218 38.8835 27.6C40.7952 25.2496 42.107 22.996 42.5271 21.03C42.5377 20.9806 42.5505 20.9318 42.5657 20.8837C42.8879 19.8613 43.0667 18.7701 43.0667 17.6369C43.0667 13.6666 40.9594 10.2019 37.8296 8.39129C36.3752 7.55627 34.7099 7.07695 32.9309 7.07695C29.7926 7.07695 26.9851 8.5663 25.1306 10.9026C24.8523 11.2532 24.4401 11.4561 24.0052 11.4567C23.5703 11.4572 23.1576 11.2553 22.8786 10.9054C21.0128 8.56589 18.2067 7.07695 15.0642 7.07695C13.2914 7.07695 11.6292 7.55561 10.1697 8.3916C7.04102 10.1989 4.93333 13.6644 4.93333 17.6369C4.93333 18.7734 5.11056 19.8629 5.4322 20.8837C5.4474 20.9319 5.4603 20.9809 5.47088 21.0305C5.89029 22.9959 7.20202 25.2493 9.11444 27.5997C11.0034 29.9214 13.3663 32.2032 15.702 34.2264C18.0326 36.2452 20.3067 37.9812 22.0001 39.2136C22.8303 39.8178 23.5188 40.2993 24.0032 40.6321Z" fill="#35425B"/>
</svg>
