<svg width="48" height="48" viewBox="0 0 48 48" fill="none" xmlns="http://www.w3.org/2000/svg">
<path d="M23 6H25L46.4516 21.4613L46 22H2L1.54834 21.462L23 6Z" fill="#CEA45B"/>
<path d="M28.2581 14.4481C28.2581 12.0964 26.3517 10.1901 24 10.1901C21.6483 10.1901 19.7419 12.0964 19.7419 14.4481C19.7419 16.7998 21.6483 18.7062 24 18.7062C26.3517 18.7062 28.2581 16.7998 28.2581 14.4481ZM22.8387 14.4481C22.8387 13.8066 23.3585 13.2868 24 13.2868C24.6415 13.2868 25.1613 13.8066 25.1613 14.4481C25.1613 15.0893 24.6415 15.6094 24 15.6094C23.3585 15.6094 22.8387 15.0893 22.8387 14.4481Z" fill="#35425B"/>
<path d="M41.6802 37.8462V22.7917H48V19.6791L25.2131 4H22.6954L0 19.6806V22.7917H6.31981V40.9231H2.90625V44H45.0938V40.9231H35.4579V30.7871C35.4579 28.0681 33.2397 25.8637 30.5031 25.8637C27.7666 25.8637 25.5484 28.0681 25.5484 30.7871V40.9231H22.4516V30.7871C22.4516 28.0681 20.2334 25.8637 17.4968 25.8637C14.7603 25.8637 12.5421 28.0681 12.5421 30.7871V40.9231H9.41658V19.7148H5.37513L23.6662 7.07692H24.2453L42.6124 19.7148H12.5134V22.7917H38.5834V37.8462H41.6802ZM28.6452 30.7871C28.6452 29.7674 29.4772 28.9407 30.5031 28.9407C31.5295 28.9407 32.3611 29.7674 32.3611 30.7871V40.9231H28.6452V30.7871ZM15.6389 30.7871C15.6389 29.7674 16.4705 28.9407 17.4968 28.9407C18.5228 28.9407 19.3548 29.7674 19.3548 30.7871V40.9231H15.6389V30.7871Z" fill="#35425B"/>
</svg>
