<svg width="48" height="48" viewBox="0 0 48 48" fill="none" xmlns="http://www.w3.org/2000/svg">
<g clip-path="url(#clip0)">
<path d="M12 12L5 8V30L12 35H13L20 31V8L13 12H12Z" fill="#CEA45B"/>
<path d="M35 12L28 8V30L35 35H36L43 31V8L36 12H35Z" fill="#CEA45B"/>
<path d="M18.7287 6.95402L13.8144 10.0659V0H11.0001V10.0659L6.08578 6.95402V0H3.27148V5.17192V7.72852V31.4445L11.0001 36.1668V48.0001H13.8144V36.1667L21.543 31.4444V7.72852V5.17192V0H18.7287V6.95402ZM18.7287 10.2851V18.4026L13.8144 21.4054V13.3972L18.7287 10.2851ZM11.0001 21.4053L6.08578 18.4025V10.285L11.0001 13.397V21.4053ZM6.08578 29.8659V21.7006L11.0001 24.7034V32.8687L6.08578 29.8659ZM13.8144 32.8687V24.7034L18.7287 21.7006V29.8659L13.8144 32.8687Z" fill="#35425B"/>
<path d="M41.9142 0V6.95402L36.9999 10.0659V0H34.1856V10.0659L29.2713 6.95402V0H26.457V5.17192V7.72852V31.4445L34.1856 36.1668V48.0001H36.9999V36.1667L44.7285 31.4444V7.72852V5.17192V0H41.9142ZM41.9142 10.2851V18.4026L36.9999 21.4054V13.3972L41.9142 10.2851ZM34.1856 21.4053L29.2713 18.4025V10.285L34.1856 13.397V21.4053ZM29.2713 29.8659V21.7006L34.1856 24.7034V32.8687L29.2713 29.8659ZM36.9999 32.8687V24.7034L41.9142 21.7006V29.8659L36.9999 32.8687Z" fill="#35425B"/>
</g>
<defs>
<clipPath id="clip0">
<rect width="48" height="48" fill="white"/>
</clipPath>
</defs>
</svg>
