<svg width="48" height="48" viewBox="0 0 48 48" fill="none" xmlns="http://www.w3.org/2000/svg">
<path d="M37 20L37.0365 31.0615H12.398L7.19678 37.0366H6.42258V31.0615H1V20H37Z" fill="#CEA45B"/>
<path d="M41.6816 15.9337V19.0305H44.9032V38.9282H40.0732V43.204L36.3515 38.9282H17.958V32.6099H38.5849V15.9337H35.4881V29.5131H14.8612V42.0249H34.9407L40.142 48H43.1699V42.0249H47.9999V15.9337H41.6816Z" fill="#35425B"/>
<path d="M0 0V3.09677H35.4882V29.5131H11.6927L7.97102 33.7889V29.5131H3.09677V6.19355H0V32.6099H4.87424V38.5849H7.90222L13.1031 32.6099H38.5849V0H0Z" fill="#35425B"/>
</svg>
