<svg width="48" height="48" viewBox="0 0 48 48" fill="none" xmlns="http://www.w3.org/2000/svg">
<path d="M24 11.313C26.5027 11.313 28.5315 9.28418 28.5315 6.7815C28.5315 4.27882 26.5027 2.25 24 2.25C21.4973 2.25 19.4685 4.27882 19.4685 6.7815C19.4685 9.28418 21.4973 11.313 24 11.313Z" fill="#CEA45B"/>
<path d="M24 45.75C26.5027 45.75 28.5315 43.7212 28.5315 41.2185C28.5315 38.7158 26.5027 36.687 24 36.687C21.4973 36.687 19.4685 38.7158 19.4685 41.2185C19.4685 43.7212 21.4973 45.75 24 45.75Z" fill="#CEA45B"/>
<path d="M41.2184 45.75C43.7211 45.75 45.7499 43.7212 45.7499 41.2185C45.7499 38.7158 43.7211 36.687 41.2184 36.687C38.7157 36.687 36.6869 38.7158 36.6869 41.2185C36.6869 43.7212 38.7157 45.75 41.2184 45.75Z" fill="#CEA45B"/>
<path d="M6.7815 45.75C9.28418 45.75 11.313 43.7212 11.313 41.2185C11.313 38.7158 9.28418 36.687 6.7815 36.687C4.27882 36.687 2.25 38.7158 2.25 41.2185C2.25 43.7212 4.27882 45.75 6.7815 45.75Z" fill="#CEA45B"/>
<path d="M42.7185 35.3843V22.5001H25.5V12.6158C26.9226 12.2505 28.163 11.3788 28.9885 10.164C29.8141 8.94924 30.168 7.47499 29.9839 6.01785C29.7999 4.5607 29.0904 3.2208 27.9887 2.24951C26.887 1.27822 25.4687 0.74231 24 0.74231C22.5313 0.74231 21.113 1.27822 20.0113 2.24951C18.9096 3.2208 18.2001 4.5607 18.0161 6.01785C17.832 7.47499 18.1859 8.94924 19.0114 10.164C19.837 11.3788 21.0774 12.2505 22.5 12.6158V22.5001H5.2815V35.3843C3.85912 35.7496 2.61889 36.6213 1.79349 37.8359C0.968086 39.0505 0.614233 40.5246 0.798315 41.9815C0.982397 43.4384 1.69176 44.7782 2.79333 45.7493C3.8949 46.7205 5.31297 47.2563 6.7815 47.2563C8.25003 47.2563 9.66809 46.7205 10.7697 45.7493C11.8712 44.7782 12.5806 43.4384 12.7647 41.9815C12.9488 40.5246 12.5949 39.0505 11.7695 37.8359C10.9441 36.6213 9.70388 35.7496 8.2815 35.3843V25.5001H22.5V35.3843C21.0774 35.7496 19.837 36.6214 19.0114 37.8361C18.1859 39.0509 17.832 40.5251 18.0161 41.9823C18.2001 43.4394 18.9096 44.7793 20.0113 45.7506C21.113 46.7219 22.5313 47.2578 24 47.2578C25.4687 47.2578 26.887 46.7219 27.9887 45.7506C29.0904 44.7793 29.7999 43.4394 29.9839 41.9823C30.168 40.5251 29.8141 39.0509 28.9885 37.8361C28.163 36.6214 26.9226 35.7496 25.5 35.3843V25.5001H39.7185V35.3843C38.2959 35.7496 37.0555 36.6214 36.2299 37.8361C35.4044 39.0509 35.0505 40.5251 35.2346 41.9823C35.4186 43.4394 36.1281 44.7793 37.2298 45.7506C38.3315 46.7219 39.7498 47.2578 41.2185 47.2578C42.6872 47.2578 44.1055 46.7219 45.2072 45.7506C46.3089 44.7793 47.0184 43.4394 47.2024 41.9823C47.3865 40.5251 47.0326 39.0509 46.207 37.8361C45.3815 36.6214 44.1411 35.7496 42.7185 35.3843ZM9.81225 41.2186C9.8124 41.8182 9.63471 42.4044 9.30166 42.9031C8.96861 43.4017 8.49516 43.7904 7.9412 44.0199C7.38723 44.2495 6.77764 44.3095 6.18952 44.1926C5.60139 44.0757 5.06116 43.7869 4.63715 43.3629C4.21315 42.9389 3.92441 42.3987 3.80746 41.8105C3.69051 41.2224 3.75061 40.6128 3.98015 40.0589C4.20969 39.5049 4.59836 39.0314 5.097 38.6984C5.59565 38.3654 6.18186 38.1877 6.7815 38.1878C7.58506 38.1886 8.35548 38.5082 8.92368 39.0764C9.49189 39.6446 9.81145 40.415 9.81225 41.2186ZM27.0315 41.2186C27.0316 41.8182 26.854 42.4044 26.521 42.903C26.1879 43.4016 25.7145 43.7903 25.1606 44.0198C24.6067 44.2494 23.9971 44.3095 23.409 44.1927C22.8209 44.0758 22.2807 43.7871 21.8567 43.3632C21.4326 42.9392 21.1438 42.3991 21.0268 41.811C20.9098 41.2229 20.9698 40.6134 21.1992 40.0594C21.4286 39.5054 21.8172 39.0319 22.3157 38.6988C22.8143 38.3656 23.4004 38.1878 24 38.1878C24.8036 38.1886 25.5741 38.5081 26.1424 39.0763C26.7108 39.6445 27.0305 40.4149 27.0315 41.2186ZM24 9.81231C23.4004 9.81231 22.8143 9.6345 22.3157 9.30136C21.8172 8.96822 21.4286 8.49472 21.1992 7.94074C20.9698 7.38677 20.9098 6.77719 21.0268 6.18912C21.1438 5.60105 21.4326 5.06089 21.8567 4.63695C22.2807 4.21302 22.8209 3.92436 23.409 3.80747C23.9971 3.69058 24.6067 3.75072 25.1606 3.98029C25.7145 4.20985 26.1879 4.59852 26.521 5.09715C26.854 5.59577 27.0316 6.18196 27.0315 6.78156C27.0307 7.58525 26.711 8.35579 26.1427 8.92401C25.5743 9.49224 24.8037 9.81172 24 9.81231ZM41.2185 44.2501C40.6189 44.2501 40.0328 44.0723 39.5343 43.7392C39.0358 43.4061 38.6472 42.9326 38.4178 42.3787C38.1883 41.8247 38.1283 41.2152 38.2452 40.6271C38.3622 40.0391 38.6509 39.4989 39.0749 39.075C39.4989 38.651 40.039 38.3623 40.6271 38.2453C41.2151 38.1283 41.8247 38.1884 42.3786 38.4178C42.9325 38.6473 43.406 39.0358 43.7391 39.5344C44.0722 40.0329 44.25 40.619 44.25 41.2186C44.2494 42.0224 43.9298 42.7931 43.3614 43.3615C42.793 43.9299 42.0223 44.2495 41.2185 44.2501Z" fill="#35425B"/>
</svg>
