<svg width="48" height="48" viewBox="0 0 48 48" fill="none" xmlns="http://www.w3.org/2000/svg">
<path d="M31.2503 45.75H22.7498V37.2503L31.2503 28.7498V45.75Z" fill="#CEA45B"/>
<path d="M45.75 45.75H37.2502V22.7498L45.75 14.25V45.75Z" fill="#CEA45B"/>
<path d="M47.25 8.25V0.75H39.75V3.75H42.129L3.75 42.129V2.25H0.75V47.25H45.75C46.1478 47.25 46.5294 47.092 46.8107 46.8107C47.092 46.5294 47.25 46.1478 47.25 45.75V14.25C47.2499 13.9534 47.1619 13.6634 46.9971 13.4168C46.8323 13.1702 46.598 12.978 46.324 12.8645C46.0499 12.751 45.7484 12.7213 45.4575 12.7791C45.1665 12.837 44.8993 12.9798 44.6895 13.1895L36.189 21.6893C35.908 21.9706 35.7501 22.3521 35.7503 22.7498V41.25H38.7503V23.3708L44.25 17.871V44.25H32.7503V28.7498C32.7503 28.453 32.6624 28.1628 32.4975 27.9161C32.3327 27.6693 32.0983 27.477 31.8241 27.3634C31.5499 27.2499 31.2482 27.2202 30.9571 27.2782C30.666 27.3362 30.3987 27.4793 30.189 27.6892L21.6893 36.1898C21.4079 36.471 21.2498 36.8525 21.2498 37.2503V41.25H24.2498V37.875L29.7502 32.3752V44.25H5.871L44.25 5.871V8.25H47.25Z" fill="#35425B"/>
</svg>
