<svg width="40" height="48" viewBox="0 0 40 48" fill="none" xmlns="http://www.w3.org/2000/svg">
<circle cx="20" cy="30" r="9" fill="#CEA45B"/>
<path d="M25.3835 10.6957C28.064 9.19575 30.6335 6.61425 32.9098 3.05925C33.055 2.83254 33.1366 2.57091 33.1459 2.30182C33.1552 2.03273 33.0919 1.76609 32.9626 1.5299C32.8334 1.2937 32.6429 1.09665 32.4112 0.959424C32.1796 0.8222 31.9153 0.749862 31.646 0.75H8.354C8.08475 0.749862 7.82042 0.8222 7.58876 0.959424C7.3571 1.09665 7.16664 1.2937 7.03738 1.5299C6.90812 1.76609 6.84482 2.03273 6.85412 2.30182C6.86343 2.57091 6.94499 2.83254 7.09025 3.05925C9.3635 6.612 11.9322 9.19425 14.6105 10.692C8.852 13.9102 4.4 21.804 2.2655 28.977H5.35175C8 20.7233 13.8605 12.201 20 12.201C28.3145 12.201 36.125 27.8325 36.125 37.2585C36.125 44.2973 31.6887 44.3498 22.9685 44.2335C22.0033 44.2207 21.0117 44.208 20 44.208C18.9883 44.208 17.9967 44.2207 17.0315 44.2335C8.546 44.343 3.875 44.3835 3.875 37.2585C3.90044 35.4796 4.12024 33.7089 4.5305 31.9778H1.499C1.11098 33.712 0.90189 35.4815 0.875 37.2585C0.875 47.07 8.18 47.352 17.0705 47.2335C18.9755 47.208 21.0245 47.208 22.9295 47.2335C32.3795 47.3558 39.125 46.845 39.125 37.2585C39.125 29.2973 33.575 15.2685 25.3835 10.6957ZM11.258 3.75H28.742C26.6637 6.375 23.594 9.20025 20 9.20025C16.406 9.20025 13.3363 6.375 11.258 3.75Z" fill="#35425B"/>
<path d="M20.0055 22.9271C21.6433 22.9243 23.2327 23.4795 24.5092 24.5001C25.7858 25.5207 26.6725 26.9453 27.0218 28.5368H30C29.6285 26.0388 28.3206 23.7731 26.339 22.1946C24.3573 20.6161 21.8486 19.8417 19.3166 20.027C16.7846 20.2122 14.4168 21.3433 12.6886 23.1932C10.9605 25.0431 10 27.4748 10 30C10 32.5252 10.9605 34.9569 12.6886 36.8068C14.4168 38.6567 16.7846 39.7878 19.3166 39.973C21.8486 40.1583 24.3573 39.3839 26.339 37.8054C28.3206 36.2269 29.6285 33.9612 30 31.4632H27.0218C26.7535 32.7861 26.1131 34.0061 25.1751 34.9813C24.237 35.9564 23.0399 36.6466 21.7229 36.9715C20.4059 37.2965 19.0233 37.2428 17.7357 36.8168C16.4482 36.3908 15.3088 35.61 14.4499 34.5651C13.5911 33.5203 13.0482 32.2543 12.8844 30.9146C12.7206 29.5749 12.9425 28.2165 13.5245 26.9973C14.1065 25.7782 15.0245 24.7484 16.1718 24.0279C17.3192 23.3073 18.6486 22.9256 20.0055 22.9271Z" fill="#35425B"/>
</svg>
