<svg width="48" height="48" viewBox="0 0 48 48" fill="none" xmlns="http://www.w3.org/2000/svg">
<path d="M28.9448 37.1263C28.3914 34.4647 25.7229 32.7689 22.9842 33.3382C20.2455 33.9079 18.4741 36.5272 19.0279 39.1884C19.5813 41.85 22.2497 43.5462 24.9885 42.9765C27.7272 42.4072 29.4982 39.7879 28.9448 37.1263Z" fill="#CEA45B"/>
<path d="M47.8677 13.6706C41.5703 7.15436 32.8944 3.47738 23.8325 3.48456H23.8231C14.8467 3.46642 6.24788 7.09653 0 13.5421L2.26055 15.7282C7.91532 9.89348 15.698 6.60662 23.8231 6.62098H23.831C32.0385 6.61569 39.8957 9.94641 45.5992 15.8484L45.7239 15.9777L48 13.8098L47.8677 13.6706Z" fill="#35425B"/>
<path d="M23.8291 12.9445H23.8223C17.2724 12.9298 10.9973 15.577 6.43726 20.2788L8.6978 22.466C12.6643 18.3736 18.1233 16.0688 23.8223 16.0798H23.8284C29.6113 16.0787 35.1462 18.4281 39.1627 22.5885L39.2534 22.6811L41.52 20.5003L41.4274 20.4058C36.8167 15.6337 30.4648 12.9407 23.8291 12.9445Z" fill="#35425B"/>
<path d="M23.8266 22.404H23.8228C19.6979 22.3934 15.7461 24.0593 12.8735 27.0196L15.1341 29.2061C17.4135 26.8563 20.5496 25.534 23.8228 25.5419C27.1766 25.5438 30.3863 26.9069 32.7157 29.3198L32.7709 29.3773L35.0454 27.2094L34.9842 27.1451C32.0621 24.1164 28.0351 22.4051 23.8266 22.404Z" fill="#35425B"/>
<path d="M25.5341 31.8065V35.0465C26.7279 35.5621 27.4998 36.7393 27.4968 38.0397C27.4367 39.949 25.8596 41.4596 23.9495 41.4373H23.9287C23.0282 41.46 22.1565 41.1209 21.5079 40.4964C20.8592 39.8719 20.4876 39.0134 20.4759 38.113C20.5035 36.8175 21.2637 35.6498 22.4374 35.1006V31.836C19.5187 32.521 17.4362 35.0979 17.3792 38.0952C17.3882 39.8179 18.0853 41.4653 19.3154 42.6711C20.5454 43.877 22.2061 44.5412 23.9287 44.5162H23.9665C27.5663 44.5283 30.513 41.6562 30.5935 38.0574C30.5928 35.0412 28.4838 32.4359 25.5341 31.8065Z" fill="#35425B"/>
</svg>
