<svg width="48" height="48" viewBox="0 0 48 48" fill="none" xmlns="http://www.w3.org/2000/svg">
<g clip-path="url(#clip0)">
<path d="M38.7318 26.528L35.3669 28.7564L30.5957 25.5943L26.2971 28.4384L26.1377 28.764L24.0029 24.3928L20.0083 27.0413L14.3352 23.2858L9.22982 26.6655L3.75879 37.8964H44.2826L38.7318 26.528Z" fill="#CEA45B"/>
<path d="M48.0002 37.9342C48.0013 37.5233 47.8389 37.1286 47.5488 36.8374C47.2584 36.5462 46.864 36.3826 46.4531 36.3826H45.2486C33.5606 12.3618 35.8083 16.98 34.3742 14.0343C34.1147 13.5033 33.5753 13.1663 32.9842 13.1663C32.3931 13.1663 31.8538 13.5033 31.5943 14.0343L26.1391 25.2445L18.5703 9.42784C18.3127 8.89113 17.7703 8.54968 17.1751 8.54968C16.5798 8.54968 16.0374 8.89113 15.7802 9.42784L8.06035 25.595L8.03165 25.6143L4.30145 33.2802H7.74384L10.41 27.7986L14.3389 25.1448C15.3833 25.8602 18.9152 28.2643 20.012 28.9109L23.4019 26.6825L28.1202 36.3826H1.58804C0.774842 36.3611 0.0836453 36.9734 0.00697158 37.7835C-0.0697021 38.5933 0.494208 39.3246 1.2972 39.456C2.08849 39.5334 46.8251 39.4481 46.7447 39.456C47.474 39.3159 48.0013 38.6772 48.0002 37.9342ZM20.0105 25.1894L14.3382 21.4233L13.0921 22.2399L17.1747 13.6902L22.0278 23.8482L20.0105 25.1894ZM32.9842 18.2525L36.7499 25.9879L35.3705 26.903L30.5994 23.7352L30.1794 24.014L32.9842 18.2525ZM31.558 36.3826L28.0431 29.1538L30.5956 27.4598L35.3653 30.6313L38.1142 28.8059L41.8032 36.3864L31.558 36.3826Z" fill="#35425B"/>
</g>
<defs>
<clipPath id="clip0">
<rect width="48" height="48" fill="white"/>
</clipPath>
</defs>
</svg>
