<svg width="52" height="64" viewBox="0 0 52 64" fill="none" xmlns="http://www.w3.org/2000/svg">
<path d="M26 23.1429C34.5069 23.1429 40.7859 24.8796 44.8368 28.3529C48.9456 31.8263 51 36.4575 51 42.2465C51 46.0093 50.0162 49.4827 48.0486 52.6667C46.1389 55.7927 43.1875 58.3109 39.1944 60.2213C35.2593 62.0738 30.3692 63 24.5243 63C20.2419 63 15.9884 62.479 11.7639 61.437C7.59722 60.395 4.00926 58.9188 1 57.0084L7.16319 44.07C9.59375 45.6909 12.2558 46.9356 15.1493 47.8039C18.1007 48.6723 21.0521 49.1064 24.0035 49.1064C26.9549 49.1064 29.2986 48.5565 31.0347 47.4566C32.8287 46.2988 33.7257 44.7068 33.7257 42.6807C33.7257 40.6545 32.8576 39.1204 31.1215 38.0784C29.3854 37.0364 26.3183 36.5154 21.9201 36.5154H5.42708L8.46528 1H47.1806V14.2857H22.7014L21.9201 23.1429H26Z" stroke="#CEA45B" stroke-width="2" stroke-linecap="round" stroke-linejoin="round"/>
</svg>
