<svg width="52" height="64" viewBox="0 0 52 64" fill="none" xmlns="http://www.w3.org/2000/svg">
<path d="M35.4021 25.3137C40.4281 26.3557 44.2698 28.4398 46.9272 31.5658C49.6424 34.634 51 38.3679 51 42.7675C51 46.3567 50.0179 49.6853 48.0537 52.7535C46.1473 55.8217 43.201 58.3109 39.2149 60.2213C35.2865 62.0738 30.405 63 24.5702 63C20.2952 63 16.0491 62.479 11.8319 61.437C7.67244 60.395 4.06181 58.9188 1 57.0084L7.23917 44.07C9.60774 45.6909 12.2652 46.9356 15.2114 47.8039C18.2155 48.6723 21.1618 49.1064 24.0503 49.1064C26.9965 49.1064 29.3362 48.5565 31.0693 47.4566C32.8024 46.3567 33.669 44.7936 33.669 42.7675C33.669 38.831 30.5783 36.8627 24.3969 36.8627H17.2045V26.0084L28.0364 14.2857H4.11958V1H47.9671V11.7675L35.4021 25.3137Z" stroke="#CEA45B" stroke-width="2" stroke-linecap="round" stroke-linejoin="round"/>
</svg>
