<svg width="53" height="64" viewBox="0 0 53 64" fill="none" xmlns="http://www.w3.org/2000/svg">
<path d="M52 49.3669V63H4.16007V52.2325L27.1583 30.958C29.3821 28.874 30.8744 27.1083 31.6351 25.6611C32.3959 24.1559 32.7762 22.6508 32.7762 21.1457C32.7762 19.1774 32.1033 17.6433 30.7573 16.5434C29.4114 15.4435 27.4509 14.8936 24.8761 14.8936C22.5938 14.8936 20.4871 15.4146 18.5559 16.4566C16.6833 17.4407 15.1325 18.888 13.9036 20.7983L1 13.6779C3.39931 9.74137 6.7642 6.64426 11.0947 4.38656C15.4251 2.12885 20.5456 1 26.4561 1C31.1377 1 35.2633 1.75257 38.833 3.2577C42.4613 4.76284 45.2702 6.93371 47.2599 9.77031C49.3081 12.549 50.3322 15.7909 50.3322 19.4958C50.3322 22.7955 49.6007 25.9216 48.1377 28.874C46.7332 31.7684 43.9828 35.0682 39.8864 38.7731L28.2995 49.3669H52Z" stroke="#CEA45B" stroke-width="2" stroke-linecap="round" stroke-linejoin="round"/>
</svg>
