<svg width="162" height="32" viewBox="0 0 162 32" fill="none" xmlns="http://www.w3.org/2000/svg">
<path d="M86.8773 3.70175C86.3623 3.17278 85.7489 2.75485 85.0733 2.47268C84.3978 2.1905 83.6737 2.0498 82.9441 2.0589C82.2491 2.02943 81.5555 2.14557 80.9059 2.40018C80.2563 2.65479 79.6644 3.04252 79.1665 3.53958C78.6686 4.03664 78.2751 4.63255 78.0102 5.29077C77.7454 5.94899 77.6147 6.65563 77.6262 7.36738C77.6708 8.77003 78.2563 10.0975 79.2548 11.0596C80.2532 12.0217 81.5833 12.54 82.9542 12.5013C84.2522 12.5108 85.5099 12.0404 86.4961 11.1767V8.66113H84.7602L83.9174 6.65889H88.4526V12.0187C87.759 12.8094 86.9094 13.4407 85.9599 13.8708C85.0103 14.3009 83.9825 14.52 82.9441 14.5138C81.9907 14.5498 81.0401 14.3887 80.1489 14.04C79.2578 13.6913 78.4446 13.1623 77.7579 12.4846C77.0712 11.8068 76.5251 10.9943 76.1524 10.0956C75.7797 9.19692 75.5879 8.23052 75.5886 7.25423C75.5892 6.27794 75.7823 5.31183 76.1563 4.41368C76.5303 3.51552 77.0775 2.7038 77.7651 2.02706C78.4528 1.35031 79.2667 0.822465 80.1583 0.475085C81.0499 0.127705 82.0008 -0.0320672 82.9542 0.00532736C84.8866 0.0063286 86.7403 0.788739 88.1115 2.18211L86.8773 3.70175Z" fill="white"/>
<path d="M57.0068 14.2057H55V0.416003H57.0068V6.07359C57.542 5.81211 58.1295 5.68202 58.7225 5.69368C59.076 5.69368 59.7426 5.77534 60.4814 5.86583C61.3995 5.97829 62.429 6.10439 63.1073 6.10439C63.7325 6.11227 64.3531 5.99362 64.9334 5.75529V0.416003H66.9402V14.2057H64.9334V7.78832C64.3531 8.02666 63.7325 8.1453 63.1073 8.13743C62.429 8.13743 61.3995 8.01447 60.4814 7.90483C59.7426 7.8166 59.076 7.73698 58.7225 7.73698C58.1303 7.72174 57.5427 7.84832 57.0068 8.10662V14.2057Z" fill="white"/>
<path d="M66.2679 21.2187C65.7579 20.6786 65.1468 20.2493 64.471 19.9564C63.7951 19.6635 63.0686 19.5132 62.3347 19.5142C61.6359 19.4816 60.938 19.5965 60.2845 19.8518C59.631 20.1071 59.0358 20.4973 58.536 20.9982C58.0362 21.499 57.6425 22.0998 57.3794 22.763C57.1163 23.4263 56.9895 24.1379 57.0067 24.8535C57.0513 26.2562 57.6368 27.5837 58.6353 28.5458C59.6337 29.5078 60.9638 30.0262 62.3347 29.9874C63.163 29.9934 63.9813 29.8006 64.7236 29.4243C65.4659 29.048 66.1117 28.4989 66.609 27.8209L67.8231 29.5049C67.1283 30.2941 66.2784 30.9242 65.3292 31.3542C64.3799 31.7842 63.3527 32.0042 62.3146 31.9999C60.4332 31.9999 58.6288 31.2351 57.2985 29.8737C55.9681 28.5123 55.2207 26.6659 55.2207 24.7406C55.2207 22.8153 55.9681 20.9688 57.2985 19.6074C58.6288 18.246 60.4332 17.4812 62.3146 17.4812C63.2759 17.4781 64.2283 17.6698 65.1169 18.0451C66.0055 18.4205 66.8127 18.9721 67.492 19.6683L66.2679 21.2187Z" fill="white"/>
<path fill-rule="evenodd" clip-rule="evenodd" d="M77.6663 17.6866H79.8336L86.3154 31.7125H84.0979L83.215 29.6589H79.1312C76.6729 29.6589 75.3485 30.4495 75.0475 31.0245L74.7063 31.6714H72.5691L78.4088 19.35L77.6663 17.6866ZM82.342 27.6669L79.4021 21.8451L76.392 28.4473C77.4235 27.8149 78.6274 27.5411 79.8235 27.6669H82.342Z" fill="white"/>
<path fill-rule="evenodd" clip-rule="evenodd" d="M92.3155 17.9228V31.7125H94.2821V26.404C95.0803 26.0045 95.9629 25.814 96.8508 25.8495H99.2187C99.7424 25.8903 100.269 25.8155 100.762 25.6305C101.255 25.4454 101.703 25.1542 102.077 24.7766C102.451 24.399 102.741 23.9437 102.928 23.4416C103.115 22.9394 103.195 22.402 103.162 21.8656C103.197 21.3314 103.119 20.7957 102.933 20.2953C102.747 19.7949 102.457 19.3418 102.083 18.9671C101.709 18.5924 101.26 18.305 100.768 18.1247C100.275 17.9445 99.75 17.8756 99.2288 17.9228H92.3155ZM101.236 21.8656C101.236 23.1902 100.513 23.8165 99.2288 23.8165H96.8508C95.9616 23.7647 95.0751 23.9561 94.2821 24.371V19.9353H99.2288C100.553 19.9353 101.236 20.5411 101.236 21.8656Z" fill="white"/>
<path d="M109.524 31.7125V17.9227H111.46V31.7125H109.524Z" fill="white"/>
<path d="M124.173 31.7124V19.9558H128.899V17.9022H117.42V19.9558H122.226V31.7124H124.173Z" fill="white"/>
<path fill-rule="evenodd" clip-rule="evenodd" d="M137.859 17.6866H140.026L146.518 31.7125H144.3L143.417 29.6589H139.284C136.825 29.6589 135.511 30.4495 135.2 31.0245L134.859 31.6714H132.732L138.561 19.35L137.859 17.6866ZM142.545 27.6669L139.595 21.8451L136.584 28.4473C137.617 27.8176 138.82 27.5441 140.016 27.6669H142.545Z" fill="white"/>
<path d="M152.508 17.9227V31.7125L162 31.7535V29.7H154.515V17.9227H152.508Z" fill="white"/>
<path d="M70.7831 0.416003V14.2057H72.7196V0.416003H70.7831Z" fill="white"/>
<path d="M91.6433 14.2057H93.6501V8.10662C94.1861 7.84832 94.7736 7.72174 95.3659 7.73698C95.7193 7.73698 96.3859 7.8166 97.1247 7.90483C98.0428 8.01447 99.0723 8.13743 99.7506 8.13743C100.376 8.1453 100.996 8.02666 101.577 7.78832V14.2057H103.584V0.416003H101.577V5.75529C100.996 5.99362 100.376 6.11227 99.7506 6.10439C99.0723 6.10439 98.0428 5.97829 97.1247 5.86583C96.3859 5.77534 95.7193 5.69368 95.3659 5.69368C94.7728 5.68202 94.1853 5.81211 93.6501 6.07359V0.416003H91.6433V14.2057Z" fill="white"/>
<path d="M107.426 14.2057V0.416003H109.433V12.1932H116.918V14.2468L107.426 14.2057Z" fill="white"/>
<path fill-rule="evenodd" clip-rule="evenodd" d="M125.126 0.169585H122.959L123.701 1.84324L117.871 14.1647H119.999L120.34 13.5178C120.651 12.9428 121.965 12.1522 124.424 12.1522H128.527L129.41 14.2057H131.618L125.126 0.169585ZM124.694 4.32806L127.644 10.1499H125.116C123.92 10.0328 122.719 10.306 121.684 10.9303L124.694 4.32806Z" fill="white"/>
<path d="M132.872 0.416003H135.421L144.08 10.9508V0.416003H146.087V14.2057H144.13L136.404 4.71823V14.2057H134.468V2.35663L132.872 0.416003Z" fill="white"/>
<path fill-rule="evenodd" clip-rule="evenodd" d="M155.629 0.416003H148.765L149.608 2.44904H150.672V14.2263H155.689C156.494 14.2755 157.3 14.1355 158.044 13.8169C158.789 13.4983 159.452 13.0096 159.983 12.3883C161.262 10.9979 161.979 9.16367 161.99 7.25439C162.021 6.37543 161.88 5.49903 161.575 4.67665C161.27 3.85427 160.808 3.10249 160.215 2.46546C159.623 1.82842 158.912 1.31898 158.124 0.967035C157.336 0.615093 156.488 0.427748 155.629 0.416003ZM155.649 12.1932H152.639L152.598 2.44904H155.609C158.398 2.44904 159.963 4.73877 159.963 7.39814C160.001 8.00612 159.918 8.61568 159.72 9.19001C159.521 9.76434 159.211 10.2915 158.808 10.7397C158.404 11.1879 157.917 11.5477 157.374 11.7976C156.831 12.0474 156.244 12.182 155.649 12.1932Z" fill="white"/>
<path d="M14.0021 0H0L0.010176 30.5095C0.888156 29.9123 1.71208 29.2414 2.47276 28.5043C2.72716 28.1935 2.98156 27.8927 3.24613 27.5919L5.08798 26.9803C5.41566 26.7764 5.72386 26.4189 6.00707 26.0904C6.22516 25.8374 6.42844 25.6016 6.61437 25.4664C6.83179 25.3083 7.01233 25.145 7.18548 24.9884C7.35271 24.8371 7.51305 24.6921 7.69303 24.564H7.9983C8.44297 24.2364 8.96996 23.6978 9.52989 23.1256C10.4948 22.1394 11.5576 21.0533 12.4656 20.7741C12.7824 21.1143 13.2047 21.357 13.6273 21.5998C14.1141 21.8796 14.6013 22.1595 14.9281 22.5889C15.8889 22.2798 17.133 20.6493 17.7778 19.8042C17.8023 19.7721 17.8259 19.7411 17.8486 19.7114L18.9782 18.809C20.6163 17.1348 22.255 15.4601 23.9033 13.796C24.4587 13.9761 24.7166 14.3473 24.9859 14.735C25.1213 14.9298 25.2595 15.1288 25.4399 15.3099C26.3824 16.1728 27.2791 17.083 28.1264 18.037C28.3636 18.3505 28.618 18.6076 28.8683 18.8606C29.0904 19.0852 29.3094 19.3064 29.5103 19.561L29.6935 20.0322C29.9282 20.2085 30.1845 20.2909 30.4437 20.3743C30.6564 20.4427 30.871 20.5118 31.0774 20.6338C32.1075 21.2589 32.9974 22.0845 33.6926 23.0601C34.8323 22.8195 36.664 22.1076 37.2338 21.2454C38.8731 21.4844 40.3771 23.1887 41.7351 24.7275C42.4846 25.5769 43.1895 26.3757 43.8482 26.85C44.2202 27.1188 44.6451 27.3773 45.0797 27.6418C46.0717 28.2455 47.1145 28.88 47.6947 29.7375H48V0H34.0081V11.52H14.0021V0Z" fill="white"/>
<path d="M24.6156 19.8617C24.5338 18.6684 24.2767 17.4932 23.8524 16.3726C23.6716 16.9071 23.2425 17.2872 22.8132 17.6675C22.5418 17.9079 22.2703 18.1484 22.0614 18.428L18.683 22.0675L16.831 23.7318C16.5482 24.2265 16.436 24.7972 16.3252 25.36C16.2048 25.972 16.0863 26.5748 15.7523 27.0605L14.8365 27.8225C14.0881 28.5717 13.4072 29.3835 12.8013 30.2488H12.6486V30.3992C13.475 30.0446 14.2514 29.5863 14.9586 29.0356L15.8744 28.7349C16.207 28.5176 16.5516 28.2837 16.902 28.0458C17.5702 27.5923 18.2598 27.1242 18.9272 26.7296C19.8827 26.3237 20.8077 25.8513 21.6951 25.3159C21.7884 25.0375 21.8817 24.7555 21.9752 24.473C22.2385 23.6777 22.5035 22.8773 22.7737 22.1377C22.9597 21.8123 23.2669 21.4912 23.5884 21.1551C23.9703 20.7558 24.3725 20.3354 24.6156 19.8617Z" fill="white"/>
<path d="M30.4667 23.9524C29.7951 22.9498 28.2891 21.125 27.0781 20.7741C26.3973 21.5244 25.7812 22.3292 25.2363 23.1804C25.015 23.6546 24.8367 24.2398 24.6544 24.8378C24.3589 25.8076 24.053 26.8113 23.5369 27.4315V27.7323H26.9255C27.5736 27.3281 28.1894 26.8756 28.7673 26.3787C29.5877 26.0127 30.3627 25.5552 31.0773 25.0152C31.233 24.778 30.9848 24.5214 30.744 24.2724C30.6387 24.1635 30.5348 24.0561 30.4667 23.9524Z" fill="white"/>
<path d="M11.8449 23.6516C12.4742 24.7281 12.8919 25.9118 13.0762 27.1407C12.8433 27.8576 11.7729 28.7796 10.9027 29.529C10.5559 29.8277 10.2409 30.099 10.0234 30.319L9.09736 31.3818H8.14082C7.23889 32.0482 4.42641 32.0137 2.51622 31.9903C2.27149 31.9873 2.0409 31.9845 1.83172 31.9833V31.8329C2.21052 31.5064 2.56067 30.9758 2.90883 30.4482C3.30892 29.8419 3.70638 29.2396 4.14167 28.9554C4.44891 28.7589 4.85895 28.6918 5.27044 28.6245C5.63578 28.5647 6.00226 28.5048 6.29897 28.3539L6.76706 27.7323C6.96217 27.5963 7.15505 27.4866 7.34675 27.3776C7.56494 27.2536 7.7817 27.1304 7.99835 26.9703L8.61909 26.2183C9.81383 25.5198 10.9002 24.6553 11.8449 23.6516Z" fill="white"/>
<path d="M34.5746 30.184C35.0418 29.9152 35.5291 29.6349 36.1552 29.567C36.1533 28.7675 36.3675 27.982 36.7759 27.2911C37.0645 26.8589 37.556 26.5848 38.0463 26.3113C38.4204 26.1027 38.7938 25.8945 39.0757 25.6167H39.2385V25.4663C38.9132 25.262 38.6415 24.9792 38.3675 24.6941C37.956 24.2658 37.5395 23.8322 36.9285 23.6516L32.7767 26.5291V28.805C31.4517 29.3088 30.2835 30.1452 29.3882 31.2314H29.2355V31.3818C29.5923 31.3058 29.9756 31.2307 30.365 31.1545C31.2082 30.9895 32.0806 30.8187 32.7767 30.6198H33.6926C33.998 30.5156 34.2823 30.3521 34.5746 30.184Z" fill="white"/>
<path d="M42.0065 27.8927C43.3349 28.5342 44.5346 29.4072 45.5477 30.4694H42.4949C41.962 30.2255 41.3907 30.0729 40.8057 30.0182V29.8678H40.9583L42.0065 27.8927Z" fill="white"/>
</svg>
