<svg width="240" height="160" viewBox="0 0 240 160" fill="none" xmlns="http://www.w3.org/2000/svg">
<mask id="path-1-inside-1" fill="white">
<path d="M70.0106 0H0L0.0508798 152.548C4.44078 149.561 8.56042 146.207 12.3638 142.521C13.6358 140.967 14.9078 139.464 16.2307 137.96L25.4399 134.902C27.0783 133.882 28.6193 132.095 30.0353 130.452C31.1258 129.187 32.1422 128.008 33.0719 127.332C34.1589 126.541 35.0617 125.725 35.9274 124.942C36.7636 124.186 37.5652 123.461 38.4651 122.82H39.9915C42.2148 121.182 44.8498 118.489 47.6495 115.628C52.4741 110.697 57.788 105.267 62.3278 103.871C63.912 105.571 66.0236 106.785 68.1367 107.999C70.5707 109.398 73.0066 110.798 74.6407 112.944C79.4444 111.399 85.665 103.246 88.889 99.0207C89.0115 98.8603 89.1296 98.7055 89.2432 98.5569L94.8908 94.0451C103.082 85.6741 111.275 77.3007 119.517 68.9798C122.294 69.8807 123.583 71.7365 124.93 73.6751C125.606 74.6492 126.298 75.6442 127.199 76.5495C131.912 80.8639 136.396 85.4151 140.632 90.1851C141.818 91.7522 143.09 93.0379 144.342 94.3031C145.452 95.4258 146.547 96.5322 147.551 97.8049L148.467 100.161C149.641 101.042 150.923 101.455 152.219 101.872C153.282 102.214 154.355 102.559 155.387 103.169C160.538 106.294 164.987 110.422 168.463 115.301C174.162 114.097 183.32 110.538 186.169 106.227C194.365 107.422 201.886 115.944 208.675 123.638C212.423 127.884 215.948 131.879 219.241 134.25C221.101 135.594 223.225 136.887 225.398 138.209C230.359 141.227 235.572 144.4 238.474 148.688H240V0H170.04V57.6001H70.0106V0Z"/>
<path d="M123.078 99.3086C122.669 93.3422 121.384 87.4658 119.262 81.8632C118.358 84.5353 116.212 86.4359 114.066 88.3374C112.709 89.5395 111.351 90.742 110.307 92.1399L93.415 110.337L84.1548 118.659C82.7411 121.133 82.1798 123.986 81.6262 126.8C81.0242 129.86 80.4314 132.874 78.7616 135.302L74.1824 139.112C70.4406 142.859 67.0358 146.918 64.0064 151.244H63.2432V151.996C67.3752 150.223 71.2572 147.932 74.793 145.178L79.3721 143.674C81.0349 142.588 82.7579 141.418 84.5101 140.229C87.8509 137.961 91.2988 135.621 94.6361 133.648C99.4136 131.619 104.038 129.257 108.475 126.58C108.942 125.187 109.409 123.778 109.876 122.365C111.193 118.389 112.517 114.387 113.869 110.688C114.799 109.062 116.335 107.456 117.942 105.776C119.852 103.779 121.862 101.677 123.078 99.3086Z"/>
<path d="M152.334 119.762C148.975 114.749 141.445 105.625 135.391 103.871C131.987 107.622 128.906 111.646 126.181 115.902C125.075 118.273 124.183 121.199 123.272 124.189C121.794 129.038 120.265 134.057 117.684 137.157V138.661H134.627C137.868 136.641 140.947 134.378 143.837 131.894C147.938 130.064 151.814 127.776 155.386 125.076C156.165 123.89 154.924 122.607 153.72 121.362C153.194 120.818 152.674 120.281 152.334 119.762Z"/>
<path d="M59.2243 118.258C62.3708 123.64 64.4594 129.559 65.3808 135.704C64.2166 139.288 58.8643 143.898 54.5133 147.645C52.7793 149.138 51.2043 150.495 50.1169 151.595L45.4868 156.909H40.7041C36.1945 160.241 22.1321 160.069 12.5811 159.952C11.3575 159.936 10.2045 159.922 9.15861 159.917V159.165C11.0526 157.532 12.8033 154.879 14.5442 152.241C16.5446 149.209 18.5319 146.198 20.7083 144.777C22.2446 143.795 24.2947 143.459 26.3522 143.123C28.1789 142.824 30.0113 142.524 31.4948 141.769L33.8353 138.661C34.8108 137.981 35.7752 137.433 36.7337 136.888C37.8247 136.268 38.9085 135.652 39.9918 134.851L43.0954 131.092C49.0691 127.599 54.5012 123.277 59.2243 118.258Z"/>
<path d="M172.873 150.92C175.209 149.576 177.646 148.174 180.776 147.835C180.766 143.838 181.838 139.91 183.879 136.456C185.322 134.295 187.78 132.924 190.232 131.557C192.102 130.513 193.969 129.472 195.378 128.084H196.192V127.332C194.566 126.31 193.207 124.896 191.838 123.47C189.78 121.329 187.697 119.161 184.643 118.258L163.884 132.646V144.025C157.259 146.544 151.418 150.726 146.941 156.157H146.178V156.909C147.962 156.529 149.878 156.154 151.825 155.773C156.041 154.947 160.403 154.093 163.884 153.099H168.463C169.99 152.578 171.412 151.76 172.873 150.92Z"/>
<path d="M210.032 139.463C216.674 142.671 222.673 147.036 227.738 152.347H212.475C209.81 151.127 206.954 150.364 204.028 150.091V149.339H204.792L210.032 139.463Z"/>
</mask>
<path d="M70.0106 0H0L0.0508798 152.548C4.44078 149.561 8.56042 146.207 12.3638 142.521C13.6358 140.967 14.9078 139.464 16.2307 137.96L25.4399 134.902C27.0783 133.882 28.6193 132.095 30.0353 130.452C31.1258 129.187 32.1422 128.008 33.0719 127.332C34.1589 126.541 35.0617 125.725 35.9274 124.942C36.7636 124.186 37.5652 123.461 38.4651 122.82H39.9915C42.2148 121.182 44.8498 118.489 47.6495 115.628C52.4741 110.697 57.788 105.267 62.3278 103.871C63.912 105.571 66.0236 106.785 68.1367 107.999C70.5707 109.398 73.0066 110.798 74.6407 112.944C79.4444 111.399 85.665 103.246 88.889 99.0207C89.0115 98.8603 89.1296 98.7055 89.2432 98.5569L94.8908 94.0451C103.082 85.6741 111.275 77.3007 119.517 68.9798C122.294 69.8807 123.583 71.7365 124.93 73.6751C125.606 74.6492 126.298 75.6442 127.199 76.5495C131.912 80.8639 136.396 85.4151 140.632 90.1851C141.818 91.7522 143.09 93.0379 144.342 94.3031C145.452 95.4258 146.547 96.5322 147.551 97.8049L148.467 100.161C149.641 101.042 150.923 101.455 152.219 101.872C153.282 102.214 154.355 102.559 155.387 103.169C160.538 106.294 164.987 110.422 168.463 115.301C174.162 114.097 183.32 110.538 186.169 106.227C194.365 107.422 201.886 115.944 208.675 123.638C212.423 127.884 215.948 131.879 219.241 134.25C221.101 135.594 223.225 136.887 225.398 138.209C230.359 141.227 235.572 144.4 238.474 148.688H240V0H170.04V57.6001H70.0106V0Z" fill="#CEA45B"/>
<path d="M123.078 99.3086C122.669 93.3422 121.384 87.4658 119.262 81.8632C118.358 84.5353 116.212 86.4359 114.066 88.3374C112.709 89.5395 111.351 90.742 110.307 92.1399L93.415 110.337L84.1548 118.659C82.7411 121.133 82.1798 123.986 81.6262 126.8C81.0242 129.86 80.4314 132.874 78.7616 135.302L74.1824 139.112C70.4406 142.859 67.0358 146.918 64.0064 151.244H63.2432V151.996C67.3752 150.223 71.2572 147.932 74.793 145.178L79.3721 143.674C81.0349 142.588 82.7579 141.418 84.5101 140.229C87.8509 137.961 91.2988 135.621 94.6361 133.648C99.4136 131.619 104.038 129.257 108.475 126.58C108.942 125.187 109.409 123.778 109.876 122.365C111.193 118.389 112.517 114.387 113.869 110.688C114.799 109.062 116.335 107.456 117.942 105.776C119.852 103.779 121.862 101.677 123.078 99.3086Z" fill="#CEA45B"/>
<path d="M152.334 119.762C148.975 114.749 141.445 105.625 135.391 103.871C131.987 107.622 128.906 111.646 126.181 115.902C125.075 118.273 124.183 121.199 123.272 124.189C121.794 129.038 120.265 134.057 117.684 137.157V138.661H134.627C137.868 136.641 140.947 134.378 143.837 131.894C147.938 130.064 151.814 127.776 155.386 125.076C156.165 123.89 154.924 122.607 153.72 121.362C153.194 120.818 152.674 120.281 152.334 119.762Z" fill="#CEA45B"/>
<path d="M59.2243 118.258C62.3708 123.64 64.4594 129.559 65.3808 135.704C64.2166 139.288 58.8643 143.898 54.5133 147.645C52.7793 149.138 51.2043 150.495 50.1169 151.595L45.4868 156.909H40.7041C36.1945 160.241 22.1321 160.069 12.5811 159.952C11.3575 159.936 10.2045 159.922 9.15861 159.917V159.165C11.0526 157.532 12.8033 154.879 14.5442 152.241C16.5446 149.209 18.5319 146.198 20.7083 144.777C22.2446 143.795 24.2947 143.459 26.3522 143.123C28.1789 142.824 30.0113 142.524 31.4948 141.769L33.8353 138.661C34.8108 137.981 35.7752 137.433 36.7337 136.888C37.8247 136.268 38.9085 135.652 39.9918 134.851L43.0954 131.092C49.0691 127.599 54.5012 123.277 59.2243 118.258Z" fill="#CEA45B"/>
<path d="M172.873 150.92C175.209 149.576 177.646 148.174 180.776 147.835C180.766 143.838 181.838 139.91 183.879 136.456C185.322 134.295 187.78 132.924 190.232 131.557C192.102 130.513 193.969 129.472 195.378 128.084H196.192V127.332C194.566 126.31 193.207 124.896 191.838 123.47C189.78 121.329 187.697 119.161 184.643 118.258L163.884 132.646V144.025C157.259 146.544 151.418 150.726 146.941 156.157H146.178V156.909C147.962 156.529 149.878 156.154 151.825 155.773C156.041 154.947 160.403 154.093 163.884 153.099H168.463C169.99 152.578 171.412 151.76 172.873 150.92Z" fill="#CEA45B"/>
<path d="M210.032 139.463C216.674 142.671 222.673 147.036 227.738 152.347H212.475C209.81 151.127 206.954 150.364 204.028 150.091V149.339H204.792L210.032 139.463Z" fill="#CEA45B"/>
<path d="M70.0106 0H0L0.0508798 152.548C4.44078 149.561 8.56042 146.207 12.3638 142.521C13.6358 140.967 14.9078 139.464 16.2307 137.96L25.4399 134.902C27.0783 133.882 28.6193 132.095 30.0353 130.452C31.1258 129.187 32.1422 128.008 33.0719 127.332C34.1589 126.541 35.0617 125.725 35.9274 124.942C36.7636 124.186 37.5652 123.461 38.4651 122.82H39.9915C42.2148 121.182 44.8498 118.489 47.6495 115.628C52.4741 110.697 57.788 105.267 62.3278 103.871C63.912 105.571 66.0236 106.785 68.1367 107.999C70.5707 109.398 73.0066 110.798 74.6407 112.944C79.4444 111.399 85.665 103.246 88.889 99.0207C89.0115 98.8603 89.1296 98.7055 89.2432 98.5569L94.8908 94.0451C103.082 85.6741 111.275 77.3007 119.517 68.9798C122.294 69.8807 123.583 71.7365 124.93 73.6751C125.606 74.6492 126.298 75.6442 127.199 76.5495C131.912 80.8639 136.396 85.4151 140.632 90.1851C141.818 91.7522 143.09 93.0379 144.342 94.3031C145.452 95.4258 146.547 96.5322 147.551 97.8049L148.467 100.161C149.641 101.042 150.923 101.455 152.219 101.872C153.282 102.214 154.355 102.559 155.387 103.169C160.538 106.294 164.987 110.422 168.463 115.301C174.162 114.097 183.32 110.538 186.169 106.227C194.365 107.422 201.886 115.944 208.675 123.638C212.423 127.884 215.948 131.879 219.241 134.25C221.101 135.594 223.225 136.887 225.398 138.209C230.359 141.227 235.572 144.4 238.474 148.688H240V0H170.04V57.6001H70.0106V0Z" stroke="#CEA45B" stroke-width="6" stroke-linecap="round" stroke-linejoin="round" mask="url(#path-1-inside-1)"/>
<path d="M123.078 99.3086C122.669 93.3422 121.384 87.4658 119.262 81.8632C118.358 84.5353 116.212 86.4359 114.066 88.3374C112.709 89.5395 111.351 90.742 110.307 92.1399L93.415 110.337L84.1548 118.659C82.7411 121.133 82.1798 123.986 81.6262 126.8C81.0242 129.86 80.4314 132.874 78.7616 135.302L74.1824 139.112C70.4406 142.859 67.0358 146.918 64.0064 151.244H63.2432V151.996C67.3752 150.223 71.2572 147.932 74.793 145.178L79.3721 143.674C81.0349 142.588 82.7579 141.418 84.5101 140.229C87.8509 137.961 91.2988 135.621 94.6361 133.648C99.4136 131.619 104.038 129.257 108.475 126.58C108.942 125.187 109.409 123.778 109.876 122.365C111.193 118.389 112.517 114.387 113.869 110.688C114.799 109.062 116.335 107.456 117.942 105.776C119.852 103.779 121.862 101.677 123.078 99.3086Z" stroke="#CEA45B" stroke-width="6" stroke-linecap="round" stroke-linejoin="round" mask="url(#path-1-inside-1)"/>
<path d="M152.334 119.762C148.975 114.749 141.445 105.625 135.391 103.871C131.987 107.622 128.906 111.646 126.181 115.902C125.075 118.273 124.183 121.199 123.272 124.189C121.794 129.038 120.265 134.057 117.684 137.157V138.661H134.627C137.868 136.641 140.947 134.378 143.837 131.894C147.938 130.064 151.814 127.776 155.386 125.076C156.165 123.89 154.924 122.607 153.72 121.362C153.194 120.818 152.674 120.281 152.334 119.762Z" stroke="#CEA45B" stroke-width="6" stroke-linecap="round" stroke-linejoin="round" mask="url(#path-1-inside-1)"/>
<path d="M59.2243 118.258C62.3708 123.64 64.4594 129.559 65.3808 135.704C64.2166 139.288 58.8643 143.898 54.5133 147.645C52.7793 149.138 51.2043 150.495 50.1169 151.595L45.4868 156.909H40.7041C36.1945 160.241 22.1321 160.069 12.5811 159.952C11.3575 159.936 10.2045 159.922 9.15861 159.917V159.165C11.0526 157.532 12.8033 154.879 14.5442 152.241C16.5446 149.209 18.5319 146.198 20.7083 144.777C22.2446 143.795 24.2947 143.459 26.3522 143.123C28.1789 142.824 30.0113 142.524 31.4948 141.769L33.8353 138.661C34.8108 137.981 35.7752 137.433 36.7337 136.888C37.8247 136.268 38.9085 135.652 39.9918 134.851L43.0954 131.092C49.0691 127.599 54.5012 123.277 59.2243 118.258Z" stroke="#CEA45B" stroke-width="6" stroke-linecap="round" stroke-linejoin="round" mask="url(#path-1-inside-1)"/>
<path d="M172.873 150.92C175.209 149.576 177.646 148.174 180.776 147.835C180.766 143.838 181.838 139.91 183.879 136.456C185.322 134.295 187.78 132.924 190.232 131.557C192.102 130.513 193.969 129.472 195.378 128.084H196.192V127.332C194.566 126.31 193.207 124.896 191.838 123.47C189.78 121.329 187.697 119.161 184.643 118.258L163.884 132.646V144.025C157.259 146.544 151.418 150.726 146.941 156.157H146.178V156.909C147.962 156.529 149.878 156.154 151.825 155.773C156.041 154.947 160.403 154.093 163.884 153.099H168.463C169.99 152.578 171.412 151.76 172.873 150.92Z" stroke="#CEA45B" stroke-width="6" stroke-linecap="round" stroke-linejoin="round" mask="url(#path-1-inside-1)"/>
<path d="M210.032 139.463C216.674 142.671 222.673 147.036 227.738 152.347H212.475C209.81 151.127 206.954 150.364 204.028 150.091V149.339H204.792L210.032 139.463Z" stroke="#CEA45B" stroke-width="6" stroke-linecap="round" stroke-linejoin="round" mask="url(#path-1-inside-1)"/>
</svg>
